G75*
%MOIN*%
%OFA0B0*%
%FSLAX25Y25*%
%IPPOS*%
%LPD*%
%AMOC8*
5,1,8,0,0,1.08239X$1,22.5*
%
%ADD10R,0.80000X0.17500*%
%ADD11C,0.00600*%
%ADD12C,0.00300*%
%ADD13C,0.00200*%
D10*
X0086300Y0021300D03*
D11*
X0094493Y0096501D02*
X0094493Y0121099D01*
X0108115Y0121099D01*
X0108115Y0096501D01*
X0094493Y0096501D01*
D12*
X0112200Y0096627D02*
X0113707Y0098135D01*
X0114084Y0098135D01*
X0114461Y0097758D01*
X0114461Y0097004D01*
X0114084Y0096627D01*
X0114084Y0095778D02*
X0114461Y0095401D01*
X0114461Y0094648D01*
X0114084Y0094271D01*
X0112577Y0094271D01*
X0112200Y0094648D01*
X0112200Y0095401D01*
X0112577Y0095778D01*
X0112200Y0096627D02*
X0112200Y0098135D01*
X0112200Y0093454D02*
X0112200Y0092700D01*
X0112200Y0093077D02*
X0114461Y0093077D01*
X0114461Y0092700D02*
X0114461Y0093454D01*
D13*
X0101626Y0074952D02*
X0102019Y0074559D01*
X0102019Y0072984D01*
X0101626Y0072591D01*
X0100838Y0072591D01*
X0100445Y0072984D01*
X0099663Y0072591D02*
X0098089Y0072591D01*
X0097306Y0072591D02*
X0095732Y0072591D01*
X0096519Y0072591D02*
X0096519Y0074952D01*
X0097306Y0074165D01*
X0098876Y0074952D02*
X0098876Y0072591D01*
X0099663Y0074165D02*
X0098876Y0074952D01*
X0100445Y0074559D02*
X0100838Y0074952D01*
X0101626Y0074952D01*
X0070749Y0109981D02*
X0069175Y0109981D01*
X0068782Y0110374D01*
X0068782Y0111161D01*
X0069175Y0111555D01*
X0068782Y0112337D02*
X0068782Y0113911D01*
X0068782Y0114693D02*
X0070356Y0116267D01*
X0070749Y0116267D01*
X0071143Y0115874D01*
X0071143Y0115087D01*
X0070749Y0114693D01*
X0071143Y0113124D02*
X0068782Y0113124D01*
X0068782Y0114693D02*
X0068782Y0116267D01*
X0071143Y0113124D02*
X0070356Y0112337D01*
X0070749Y0111555D02*
X0071143Y0111161D01*
X0071143Y0110374D01*
X0070749Y0109981D01*
X0043309Y0076868D02*
X0042915Y0076868D01*
X0041341Y0075294D01*
X0041341Y0076868D01*
X0043309Y0076868D02*
X0043702Y0076474D01*
X0043702Y0075687D01*
X0043309Y0075294D01*
X0043309Y0074511D02*
X0042521Y0074511D01*
X0042128Y0074118D01*
X0042128Y0072937D01*
X0041341Y0072937D02*
X0043702Y0072937D01*
X0043702Y0074118D01*
X0043309Y0074511D01*
X0042128Y0073724D02*
X0041341Y0074511D01*
M02*
