G75*
%MOIN*%
%OFA0B0*%
%FSLAX25Y25*%
%IPPOS*%
%LPD*%
%AMOC8*
5,1,8,0,0,1.08239X$1,22.5*
%
%ADD10C,0.00000*%
%ADD11R,0.07900X0.05900*%
%ADD12R,0.07900X0.15000*%
%ADD13R,0.09449X0.11024*%
%ADD14R,0.04252X0.04134*%
%ADD15C,0.06000*%
%ADD16C,0.05200*%
%ADD17R,0.04331X0.03937*%
%ADD18R,0.06000X0.06000*%
%ADD19C,0.06000*%
%ADD20C,0.02781*%
%ADD21C,0.02400*%
%ADD22C,0.03937*%
%ADD23C,0.03543*%
%ADD24C,0.02000*%
%ADD25C,0.00600*%
%ADD26C,0.02978*%
%ADD27C,0.01000*%
%ADD28C,0.02500*%
%ADD29C,0.00800*%
%ADD30C,0.00787*%
%ADD31C,0.01600*%
%ADD32C,0.21654*%
D10*
X0018800Y0008800D02*
X0018800Y0151261D01*
X0207501Y0151261D01*
X0207501Y0008800D01*
X0018800Y0008800D01*
D11*
X0088900Y0099900D03*
X0088900Y0108900D03*
X0088900Y0117900D03*
D12*
X0113700Y0108800D03*
D13*
X0123702Y0083800D03*
X0098898Y0083800D03*
D14*
X0076300Y0110355D03*
X0076300Y0117245D03*
D15*
X0073800Y0135800D02*
X0073800Y0141800D01*
X0083800Y0141800D02*
X0083800Y0135800D01*
X0061300Y0135800D02*
X0061300Y0141800D01*
X0051300Y0141800D02*
X0051300Y0135800D01*
X0133800Y0135800D02*
X0133800Y0141800D01*
X0143800Y0141800D02*
X0143800Y0135800D01*
X0153800Y0135800D02*
X0153800Y0141800D01*
X0193300Y0058800D02*
X0199300Y0058800D01*
X0199300Y0048800D02*
X0193300Y0048800D01*
X0193300Y0038800D02*
X0199300Y0038800D01*
X0086635Y0037394D02*
X0086635Y0043394D01*
X0076635Y0043394D02*
X0076635Y0037394D01*
X0066635Y0037394D02*
X0066635Y0043394D01*
X0056635Y0043394D02*
X0056635Y0037394D01*
D16*
X0054881Y0061871D02*
X0060081Y0061871D01*
X0030081Y0061871D02*
X0024881Y0061871D01*
D17*
X0048800Y0067954D03*
X0048800Y0074646D03*
D18*
X0036300Y0111064D03*
X0061300Y0111064D03*
D19*
X0061300Y0101221D03*
X0061300Y0091379D03*
X0061300Y0081536D03*
X0036300Y0081536D03*
X0036300Y0091379D03*
X0036300Y0101221D03*
D20*
X0051300Y0126300D03*
X0081300Y0128800D03*
X0101300Y0123800D03*
X0136300Y0126300D03*
X0143800Y0126300D03*
X0141300Y0106300D03*
X0146300Y0106300D03*
X0133800Y0098800D03*
X0146300Y0093800D03*
X0166300Y0068800D03*
X0166300Y0061300D03*
X0143800Y0058800D03*
X0136300Y0058800D03*
X0123800Y0068800D03*
X0113800Y0063800D03*
X0101300Y0056300D03*
X0076300Y0066300D03*
X0076300Y0088800D03*
X0076300Y0098800D03*
X0128800Y0048800D03*
X0136300Y0048800D03*
X0143800Y0048800D03*
X0133800Y0033800D03*
X0138800Y0021300D03*
X0196300Y0068800D03*
D21*
X0196300Y0066300D02*
X0196300Y0058800D01*
X0196300Y0066300D02*
X0168800Y0093800D01*
X0146300Y0093800D01*
X0140050Y0093800D01*
X0130050Y0083800D01*
X0123702Y0083800D01*
X0146300Y0083800D02*
X0103800Y0040050D01*
X0101300Y0056300D02*
X0101300Y0071300D01*
X0098800Y0073800D01*
X0098800Y0083702D01*
X0098898Y0083800D01*
X0088900Y0099900D02*
X0082700Y0099900D01*
X0076300Y0106300D01*
X0071221Y0101221D01*
X0061300Y0101221D01*
X0036300Y0101221D01*
X0028879Y0101221D01*
X0026300Y0103800D01*
X0026300Y0116300D01*
X0028800Y0118800D01*
X0066300Y0118800D01*
X0076300Y0128800D01*
X0081300Y0128800D01*
X0111300Y0128800D01*
X0116300Y0123800D01*
X0146300Y0093800D01*
X0171300Y0118800D01*
X0171300Y0121300D01*
X0171300Y0128800D01*
X0161300Y0138800D01*
X0153800Y0138800D01*
X0088900Y0117900D02*
X0088245Y0117245D01*
X0076300Y0117245D01*
X0072245Y0117245D01*
X0066064Y0111064D01*
X0061300Y0111064D01*
X0036300Y0111064D01*
X0036300Y0091379D02*
X0061300Y0091379D01*
X0061300Y0081536D02*
X0048800Y0081536D01*
X0036300Y0081536D01*
X0068800Y0056300D02*
X0101300Y0056300D01*
X0108800Y0063800D01*
X0113800Y0063800D01*
X0143800Y0048800D02*
X0163800Y0048800D01*
X0166300Y0051300D01*
X0178800Y0038800D01*
X0196300Y0038800D01*
X0166300Y0051300D02*
X0166300Y0061300D01*
X0146300Y0083800D02*
X0146300Y0093800D01*
X0088900Y0099900D02*
X0086755Y0099900D01*
X0076300Y0106300D02*
X0076300Y0110355D01*
X0068800Y0056300D02*
X0056635Y0044135D01*
X0056635Y0040394D01*
D22*
X0116300Y0123800D03*
D23*
X0103800Y0040050D03*
D24*
X0128800Y0033800D01*
X0133800Y0033800D01*
X0133800Y0018800D01*
X0131300Y0016300D01*
D25*
X0136519Y0019776D02*
X0137276Y0019019D01*
X0138265Y0018609D01*
X0139335Y0018609D01*
X0140324Y0019019D01*
X0141081Y0019776D01*
X0141491Y0020765D01*
X0141491Y0021595D01*
X0141970Y0022075D01*
X0141970Y0046825D01*
X0142276Y0046519D01*
X0143265Y0046109D01*
X0144335Y0046109D01*
X0144795Y0046300D01*
X0164297Y0046300D01*
X0165216Y0046681D01*
X0165919Y0047384D01*
X0166300Y0047764D01*
X0176681Y0037384D01*
X0177384Y0036681D01*
X0178303Y0036300D01*
X0189719Y0036300D01*
X0190864Y0035155D01*
X0192445Y0034500D01*
X0200155Y0034500D01*
X0201736Y0035155D01*
X0202945Y0036364D01*
X0203600Y0037945D01*
X0203600Y0039655D01*
X0202945Y0041236D01*
X0201736Y0042445D01*
X0200155Y0043100D01*
X0192445Y0043100D01*
X0190864Y0042445D01*
X0189719Y0041300D01*
X0179836Y0041300D01*
X0168800Y0052336D01*
X0168800Y0060305D01*
X0168991Y0060765D01*
X0168991Y0061835D01*
X0168581Y0062824D01*
X0167824Y0063581D01*
X0166835Y0063991D01*
X0165765Y0063991D01*
X0164776Y0063581D01*
X0164019Y0062824D01*
X0163609Y0061835D01*
X0163609Y0060765D01*
X0163800Y0060305D01*
X0163800Y0052336D01*
X0162764Y0051300D01*
X0144795Y0051300D01*
X0144335Y0051491D01*
X0144299Y0051491D01*
X0159915Y0067106D01*
X0164189Y0067106D01*
X0164776Y0066519D01*
X0165765Y0066109D01*
X0166835Y0066109D01*
X0167824Y0066519D01*
X0168581Y0067276D01*
X0168991Y0068265D01*
X0168991Y0069335D01*
X0168581Y0070324D01*
X0167824Y0071081D01*
X0166835Y0071491D01*
X0165765Y0071491D01*
X0164776Y0071081D01*
X0164189Y0070494D01*
X0158512Y0070494D01*
X0146491Y0058472D01*
X0146491Y0059335D01*
X0146081Y0060324D01*
X0145324Y0061081D01*
X0144335Y0061491D01*
X0143265Y0061491D01*
X0142276Y0061081D01*
X0141519Y0060324D01*
X0141109Y0059335D01*
X0141109Y0058265D01*
X0141519Y0057276D01*
X0142016Y0056779D01*
X0140637Y0055400D01*
X0133137Y0055400D01*
X0132200Y0054463D01*
X0129228Y0051491D01*
X0128265Y0051491D01*
X0127276Y0051081D01*
X0126519Y0050324D01*
X0126109Y0049335D01*
X0126109Y0048265D01*
X0126519Y0047276D01*
X0127276Y0046519D01*
X0128265Y0046109D01*
X0129335Y0046109D01*
X0130324Y0046519D01*
X0131081Y0047276D01*
X0131491Y0048265D01*
X0131491Y0049228D01*
X0134463Y0052200D01*
X0140218Y0052200D01*
X0138583Y0050565D01*
X0138583Y0050320D01*
X0138581Y0050324D01*
X0137824Y0051081D01*
X0136835Y0051491D01*
X0135765Y0051491D01*
X0134776Y0051081D01*
X0134019Y0050324D01*
X0133609Y0049335D01*
X0133609Y0048505D01*
X0130598Y0045494D01*
X0127002Y0045494D01*
X0124089Y0048406D01*
X0124089Y0049194D01*
X0131995Y0057100D01*
X0134195Y0057100D01*
X0134776Y0056519D01*
X0135765Y0056109D01*
X0136835Y0056109D01*
X0137824Y0056519D01*
X0138581Y0057276D01*
X0138991Y0058265D01*
X0138991Y0059335D01*
X0138581Y0060324D01*
X0137824Y0061081D01*
X0136835Y0061491D01*
X0135765Y0061491D01*
X0134776Y0061081D01*
X0134195Y0060500D01*
X0130596Y0060500D01*
X0129600Y0059504D01*
X0129600Y0059495D01*
X0121694Y0051589D01*
X0120745Y0051589D01*
X0119720Y0051164D01*
X0118936Y0050380D01*
X0118511Y0049355D01*
X0118511Y0048245D01*
X0118936Y0047220D01*
X0119720Y0046436D01*
X0120745Y0046011D01*
X0121694Y0046011D01*
X0124606Y0043098D01*
X0125598Y0042106D01*
X0132002Y0042106D01*
X0136005Y0046109D01*
X0136835Y0046109D01*
X0137824Y0046519D01*
X0138581Y0047276D01*
X0138583Y0047280D01*
X0138583Y0023991D01*
X0138265Y0023991D01*
X0137276Y0023581D01*
X0136519Y0022824D01*
X0136109Y0021835D01*
X0136109Y0020765D01*
X0136519Y0019776D01*
X0136707Y0019588D02*
X0046065Y0019588D01*
X0046065Y0019133D02*
X0046065Y0022326D01*
X0045238Y0025410D01*
X0043642Y0028175D01*
X0041384Y0030433D01*
X0038619Y0032029D01*
X0035534Y0032856D01*
X0032341Y0032856D01*
X0029257Y0032029D01*
X0026492Y0030433D01*
X0024234Y0028175D01*
X0022637Y0025410D01*
X0021811Y0022326D01*
X0021811Y0019133D01*
X0022637Y0016048D01*
X0024234Y0013283D01*
X0025917Y0011600D01*
X0021600Y0011600D01*
X0021600Y0059637D01*
X0022672Y0058565D01*
X0024105Y0057971D01*
X0030857Y0057971D01*
X0032290Y0058565D01*
X0033387Y0059662D01*
X0033981Y0061095D01*
X0033981Y0062647D01*
X0033387Y0064080D01*
X0032290Y0065177D01*
X0030857Y0065771D01*
X0029175Y0065771D01*
X0029175Y0086780D01*
X0032080Y0089685D01*
X0032347Y0089685D01*
X0032655Y0088943D01*
X0033864Y0087733D01*
X0035445Y0087079D01*
X0037155Y0087079D01*
X0038736Y0087733D01*
X0039881Y0088879D01*
X0057719Y0088879D01*
X0058864Y0087733D01*
X0060445Y0087079D01*
X0062155Y0087079D01*
X0063736Y0087733D01*
X0064945Y0088943D01*
X0065253Y0089685D01*
X0067080Y0089685D01*
X0074345Y0096950D01*
X0074776Y0096519D01*
X0075765Y0096109D01*
X0076835Y0096109D01*
X0077824Y0096519D01*
X0078581Y0097276D01*
X0078991Y0098265D01*
X0078991Y0099335D01*
X0078581Y0100324D01*
X0077824Y0101081D01*
X0076835Y0101491D01*
X0075765Y0101491D01*
X0074776Y0101081D01*
X0074189Y0100494D01*
X0073098Y0100494D01*
X0072106Y0099502D01*
X0065677Y0093072D01*
X0065253Y0093072D01*
X0064945Y0093814D01*
X0063736Y0095024D01*
X0062155Y0095679D01*
X0060445Y0095679D01*
X0058864Y0095024D01*
X0057719Y0093879D01*
X0039881Y0093879D01*
X0038736Y0095024D01*
X0037155Y0095679D01*
X0035445Y0095679D01*
X0033864Y0095024D01*
X0032655Y0093814D01*
X0032347Y0093072D01*
X0030677Y0093072D01*
X0025787Y0088183D01*
X0025787Y0065771D01*
X0024105Y0065771D01*
X0022672Y0065177D01*
X0021600Y0064105D01*
X0021600Y0148461D01*
X0026449Y0148461D01*
X0024234Y0146246D01*
X0022637Y0143481D01*
X0021811Y0140397D01*
X0021811Y0137203D01*
X0022637Y0134119D01*
X0024234Y0131354D01*
X0026492Y0129096D01*
X0029257Y0127500D01*
X0032341Y0126673D01*
X0035534Y0126673D01*
X0038619Y0127500D01*
X0041384Y0129096D01*
X0043642Y0131354D01*
X0045238Y0134119D01*
X0046065Y0137203D01*
X0046065Y0140397D01*
X0045238Y0143481D01*
X0043642Y0146246D01*
X0041427Y0148461D01*
X0183840Y0148461D01*
X0181714Y0146335D01*
X0180118Y0143569D01*
X0179291Y0140485D01*
X0179291Y0137292D01*
X0180118Y0134208D01*
X0181714Y0131443D01*
X0183972Y0129185D01*
X0186737Y0127588D01*
X0189822Y0126762D01*
X0193015Y0126762D01*
X0196099Y0127588D01*
X0198864Y0129185D01*
X0201122Y0131443D01*
X0202718Y0134208D01*
X0203545Y0137292D01*
X0203545Y0140485D01*
X0202718Y0143569D01*
X0201122Y0146335D01*
X0198996Y0148461D01*
X0204701Y0148461D01*
X0204701Y0011600D01*
X0199281Y0011600D01*
X0200886Y0013204D01*
X0202482Y0015970D01*
X0203309Y0019054D01*
X0203309Y0022247D01*
X0202482Y0025331D01*
X0200886Y0028096D01*
X0198628Y0030354D01*
X0195863Y0031951D01*
X0192778Y0032777D01*
X0189585Y0032777D01*
X0186501Y0031951D01*
X0183736Y0030354D01*
X0181478Y0028096D01*
X0179882Y0025331D01*
X0179055Y0022247D01*
X0179055Y0019054D01*
X0179882Y0015970D01*
X0181478Y0013204D01*
X0183082Y0011600D01*
X0041958Y0011600D01*
X0043642Y0013283D01*
X0045238Y0016048D01*
X0046065Y0019133D01*
X0046026Y0018989D02*
X0137348Y0018989D01*
X0136349Y0020186D02*
X0046065Y0020186D01*
X0046065Y0020785D02*
X0136109Y0020785D01*
X0136109Y0021383D02*
X0046065Y0021383D01*
X0046065Y0021982D02*
X0136170Y0021982D01*
X0136418Y0022580D02*
X0045996Y0022580D01*
X0045836Y0023179D02*
X0136874Y0023179D01*
X0137750Y0023777D02*
X0045676Y0023777D01*
X0045515Y0024376D02*
X0138583Y0024376D01*
X0138583Y0024974D02*
X0045355Y0024974D01*
X0045144Y0025573D02*
X0138583Y0025573D01*
X0138583Y0026171D02*
X0044799Y0026171D01*
X0044453Y0026770D02*
X0138583Y0026770D01*
X0138583Y0027368D02*
X0044107Y0027368D01*
X0043762Y0027967D02*
X0138583Y0027967D01*
X0138583Y0028565D02*
X0043251Y0028565D01*
X0042653Y0029164D02*
X0138583Y0029164D01*
X0138583Y0029762D02*
X0042054Y0029762D01*
X0041456Y0030361D02*
X0138583Y0030361D01*
X0138583Y0030959D02*
X0040472Y0030959D01*
X0039435Y0031558D02*
X0138583Y0031558D01*
X0138583Y0032156D02*
X0038145Y0032156D01*
X0035911Y0032755D02*
X0138583Y0032755D01*
X0138583Y0033353D02*
X0088115Y0033353D01*
X0087490Y0033094D02*
X0085779Y0033094D01*
X0084199Y0033749D01*
X0082989Y0034959D01*
X0082335Y0036539D01*
X0082335Y0044250D01*
X0082989Y0045830D01*
X0084199Y0047040D01*
X0085779Y0047694D01*
X0087490Y0047694D01*
X0089070Y0047040D01*
X0090280Y0045830D01*
X0090935Y0044250D01*
X0090935Y0036539D01*
X0090280Y0034959D01*
X0089070Y0033749D01*
X0087490Y0033094D01*
X0089273Y0033952D02*
X0138583Y0033952D01*
X0138583Y0034550D02*
X0089872Y0034550D01*
X0090359Y0035149D02*
X0138583Y0035149D01*
X0138583Y0035747D02*
X0090607Y0035747D01*
X0090855Y0036346D02*
X0138583Y0036346D01*
X0138583Y0036944D02*
X0090935Y0036944D01*
X0090935Y0037543D02*
X0138583Y0037543D01*
X0138583Y0038141D02*
X0090935Y0038141D01*
X0090935Y0038740D02*
X0138583Y0038740D01*
X0138583Y0039339D02*
X0090935Y0039339D01*
X0090935Y0039937D02*
X0138583Y0039937D01*
X0138583Y0040536D02*
X0090935Y0040536D01*
X0090935Y0041134D02*
X0138583Y0041134D01*
X0138583Y0041733D02*
X0090935Y0041733D01*
X0090935Y0042331D02*
X0125374Y0042331D01*
X0124775Y0042930D02*
X0090935Y0042930D01*
X0090935Y0043528D02*
X0124177Y0043528D01*
X0124606Y0043098D02*
X0124606Y0043098D01*
X0123578Y0044127D02*
X0090935Y0044127D01*
X0090738Y0044725D02*
X0122980Y0044725D01*
X0122381Y0045324D02*
X0090490Y0045324D01*
X0090188Y0045922D02*
X0121783Y0045922D01*
X0119635Y0046521D02*
X0089590Y0046521D01*
X0088879Y0047119D02*
X0119037Y0047119D01*
X0118730Y0047718D02*
X0063753Y0047718D01*
X0064352Y0048316D02*
X0118511Y0048316D01*
X0118511Y0048915D02*
X0064950Y0048915D01*
X0065549Y0049513D02*
X0118577Y0049513D01*
X0118825Y0050112D02*
X0066147Y0050112D01*
X0066746Y0050710D02*
X0119266Y0050710D01*
X0120069Y0051309D02*
X0067344Y0051309D01*
X0067943Y0051907D02*
X0122012Y0051907D01*
X0122611Y0052506D02*
X0068541Y0052506D01*
X0069140Y0053104D02*
X0123209Y0053104D01*
X0123808Y0053703D02*
X0102061Y0053703D01*
X0101835Y0053609D02*
X0102824Y0054019D01*
X0103581Y0054776D01*
X0103771Y0055236D01*
X0109836Y0061300D01*
X0112805Y0061300D01*
X0113265Y0061109D01*
X0114335Y0061109D01*
X0115324Y0061519D01*
X0116081Y0062276D01*
X0116491Y0063265D01*
X0116491Y0064335D01*
X0116081Y0065324D01*
X0115324Y0066081D01*
X0114335Y0066491D01*
X0113265Y0066491D01*
X0112805Y0066300D01*
X0108303Y0066300D01*
X0107384Y0065919D01*
X0103800Y0062336D01*
X0103800Y0071797D01*
X0103419Y0072716D01*
X0101300Y0074836D01*
X0101300Y0076988D01*
X0104161Y0076988D01*
X0104923Y0077750D01*
X0104923Y0089850D01*
X0104161Y0090612D01*
X0101448Y0090612D01*
X0101448Y0106709D01*
X0101060Y0107646D01*
X0099906Y0108800D01*
X0102744Y0111638D01*
X0103462Y0112356D01*
X0103850Y0113293D01*
X0103850Y0122925D01*
X0103991Y0123265D01*
X0103991Y0124335D01*
X0103581Y0125324D01*
X0102824Y0126081D01*
X0101835Y0126491D01*
X0100765Y0126491D01*
X0099776Y0126081D01*
X0099019Y0125324D01*
X0098609Y0124335D01*
X0098609Y0123265D01*
X0098750Y0122925D01*
X0098750Y0114856D01*
X0095244Y0111350D01*
X0094150Y0111350D01*
X0094150Y0112388D01*
X0093388Y0113150D01*
X0084412Y0113150D01*
X0083650Y0112388D01*
X0083650Y0105412D01*
X0084412Y0104650D01*
X0093388Y0104650D01*
X0094150Y0105412D01*
X0094150Y0106250D01*
X0095244Y0106250D01*
X0096348Y0105145D01*
X0096348Y0090612D01*
X0093636Y0090612D01*
X0092874Y0089850D01*
X0092874Y0077750D01*
X0093636Y0076988D01*
X0096300Y0076988D01*
X0096300Y0073303D01*
X0096681Y0072384D01*
X0097384Y0071681D01*
X0098800Y0070264D01*
X0098800Y0058800D01*
X0068303Y0058800D01*
X0067384Y0058419D01*
X0066681Y0057716D01*
X0056659Y0047694D01*
X0055779Y0047694D01*
X0054199Y0047040D01*
X0052989Y0045830D01*
X0052335Y0044250D01*
X0052335Y0036539D01*
X0052989Y0034959D01*
X0054199Y0033749D01*
X0055779Y0033094D01*
X0057490Y0033094D01*
X0059070Y0033749D01*
X0060280Y0034959D01*
X0060935Y0036539D01*
X0060935Y0044250D01*
X0060744Y0044709D01*
X0069836Y0053800D01*
X0100305Y0053800D01*
X0100765Y0053609D01*
X0101835Y0053609D01*
X0100539Y0053703D02*
X0069738Y0053703D01*
X0065660Y0056695D02*
X0021600Y0056695D01*
X0021600Y0056097D02*
X0065061Y0056097D01*
X0064463Y0055498D02*
X0021600Y0055498D01*
X0021600Y0054900D02*
X0063864Y0054900D01*
X0063266Y0054301D02*
X0021600Y0054301D01*
X0021600Y0053703D02*
X0062667Y0053703D01*
X0062069Y0053104D02*
X0021600Y0053104D01*
X0021600Y0052506D02*
X0061470Y0052506D01*
X0060872Y0051907D02*
X0021600Y0051907D01*
X0021600Y0051309D02*
X0060273Y0051309D01*
X0059675Y0050710D02*
X0021600Y0050710D01*
X0021600Y0050112D02*
X0059076Y0050112D01*
X0058478Y0049513D02*
X0021600Y0049513D01*
X0021600Y0048915D02*
X0057879Y0048915D01*
X0057281Y0048316D02*
X0021600Y0048316D01*
X0021600Y0047718D02*
X0056682Y0047718D01*
X0054390Y0047119D02*
X0021600Y0047119D01*
X0021600Y0046521D02*
X0053680Y0046521D01*
X0053081Y0045922D02*
X0021600Y0045922D01*
X0021600Y0045324D02*
X0052779Y0045324D01*
X0052532Y0044725D02*
X0021600Y0044725D01*
X0021600Y0044127D02*
X0052335Y0044127D01*
X0052335Y0043528D02*
X0021600Y0043528D01*
X0021600Y0042930D02*
X0052335Y0042930D01*
X0052335Y0042331D02*
X0021600Y0042331D01*
X0021600Y0041733D02*
X0052335Y0041733D01*
X0052335Y0041134D02*
X0021600Y0041134D01*
X0021600Y0040536D02*
X0052335Y0040536D01*
X0052335Y0039937D02*
X0021600Y0039937D01*
X0021600Y0039339D02*
X0052335Y0039339D01*
X0052335Y0038740D02*
X0021600Y0038740D01*
X0021600Y0038141D02*
X0052335Y0038141D01*
X0052335Y0037543D02*
X0021600Y0037543D01*
X0021600Y0036944D02*
X0052335Y0036944D01*
X0052415Y0036346D02*
X0021600Y0036346D01*
X0021600Y0035747D02*
X0052663Y0035747D01*
X0052910Y0035149D02*
X0021600Y0035149D01*
X0021600Y0034550D02*
X0053398Y0034550D01*
X0053996Y0033952D02*
X0021600Y0033952D01*
X0021600Y0033353D02*
X0055154Y0033353D01*
X0058115Y0033353D02*
X0065157Y0033353D01*
X0064984Y0033410D02*
X0065628Y0033200D01*
X0066296Y0033094D01*
X0066335Y0033094D01*
X0066335Y0040094D01*
X0066935Y0040094D01*
X0066935Y0033094D01*
X0066973Y0033094D01*
X0067642Y0033200D01*
X0068285Y0033410D01*
X0068888Y0033717D01*
X0069436Y0034115D01*
X0069914Y0034593D01*
X0070312Y0035141D01*
X0070620Y0035744D01*
X0070829Y0036388D01*
X0070935Y0037056D01*
X0070935Y0040094D01*
X0066935Y0040094D01*
X0066935Y0040694D01*
X0070935Y0040694D01*
X0070935Y0043733D01*
X0070829Y0044401D01*
X0070620Y0045045D01*
X0070312Y0045648D01*
X0069914Y0046196D01*
X0069436Y0046674D01*
X0068888Y0047072D01*
X0068285Y0047379D01*
X0067642Y0047589D01*
X0066973Y0047694D01*
X0066935Y0047694D01*
X0066935Y0040695D01*
X0066335Y0040695D01*
X0066335Y0047694D01*
X0066296Y0047694D01*
X0065628Y0047589D01*
X0064984Y0047379D01*
X0064381Y0047072D01*
X0063833Y0046674D01*
X0063355Y0046196D01*
X0062957Y0045648D01*
X0062650Y0045045D01*
X0062441Y0044401D01*
X0062335Y0043733D01*
X0062335Y0040694D01*
X0066335Y0040694D01*
X0066335Y0040094D01*
X0062335Y0040094D01*
X0062335Y0037056D01*
X0062441Y0036388D01*
X0062650Y0035744D01*
X0062957Y0035141D01*
X0063355Y0034593D01*
X0063833Y0034115D01*
X0064381Y0033717D01*
X0064984Y0033410D01*
X0064057Y0033952D02*
X0059273Y0033952D01*
X0059872Y0034550D02*
X0063398Y0034550D01*
X0062953Y0035149D02*
X0060359Y0035149D01*
X0060607Y0035747D02*
X0062649Y0035747D01*
X0062454Y0036346D02*
X0060855Y0036346D01*
X0060935Y0036944D02*
X0062352Y0036944D01*
X0062335Y0037543D02*
X0060935Y0037543D01*
X0060935Y0038141D02*
X0062335Y0038141D01*
X0062335Y0038740D02*
X0060935Y0038740D01*
X0060935Y0039339D02*
X0062335Y0039339D01*
X0062335Y0039937D02*
X0060935Y0039937D01*
X0060935Y0040536D02*
X0066335Y0040536D01*
X0066335Y0041134D02*
X0066935Y0041134D01*
X0066935Y0040536D02*
X0072335Y0040536D01*
X0072335Y0041134D02*
X0070935Y0041134D01*
X0070935Y0041733D02*
X0072335Y0041733D01*
X0072335Y0042331D02*
X0070935Y0042331D01*
X0070935Y0042930D02*
X0072335Y0042930D01*
X0072335Y0043528D02*
X0070935Y0043528D01*
X0070872Y0044127D02*
X0072335Y0044127D01*
X0072335Y0044250D02*
X0072335Y0036539D01*
X0072989Y0034959D01*
X0074199Y0033749D01*
X0075779Y0033094D01*
X0077490Y0033094D01*
X0079070Y0033749D01*
X0080280Y0034959D01*
X0080935Y0036539D01*
X0080935Y0044250D01*
X0080280Y0045830D01*
X0079070Y0047040D01*
X0077490Y0047694D01*
X0075779Y0047694D01*
X0074199Y0047040D01*
X0072989Y0045830D01*
X0072335Y0044250D01*
X0072532Y0044725D02*
X0070724Y0044725D01*
X0070478Y0045324D02*
X0072779Y0045324D01*
X0073081Y0045922D02*
X0070113Y0045922D01*
X0069590Y0046521D02*
X0073680Y0046521D01*
X0074390Y0047119D02*
X0068796Y0047119D01*
X0066935Y0047119D02*
X0066335Y0047119D01*
X0066335Y0046521D02*
X0066935Y0046521D01*
X0066935Y0045922D02*
X0066335Y0045922D01*
X0066335Y0045324D02*
X0066935Y0045324D01*
X0066935Y0044725D02*
X0066335Y0044725D01*
X0066335Y0044127D02*
X0066935Y0044127D01*
X0066935Y0043528D02*
X0066335Y0043528D01*
X0066335Y0042930D02*
X0066935Y0042930D01*
X0066935Y0042331D02*
X0066335Y0042331D01*
X0066335Y0041733D02*
X0066935Y0041733D01*
X0066935Y0039937D02*
X0066335Y0039937D01*
X0066335Y0039339D02*
X0066935Y0039339D01*
X0066935Y0038740D02*
X0066335Y0038740D01*
X0066335Y0038141D02*
X0066935Y0038141D01*
X0066935Y0037543D02*
X0066335Y0037543D01*
X0066335Y0036944D02*
X0066935Y0036944D01*
X0066935Y0036346D02*
X0066335Y0036346D01*
X0066335Y0035747D02*
X0066935Y0035747D01*
X0066935Y0035149D02*
X0066335Y0035149D01*
X0066335Y0034550D02*
X0066935Y0034550D01*
X0066935Y0033952D02*
X0066335Y0033952D01*
X0066335Y0033353D02*
X0066935Y0033353D01*
X0068113Y0033353D02*
X0075154Y0033353D01*
X0073996Y0033952D02*
X0069212Y0033952D01*
X0069872Y0034550D02*
X0073398Y0034550D01*
X0072910Y0035149D02*
X0070316Y0035149D01*
X0070621Y0035747D02*
X0072663Y0035747D01*
X0072415Y0036346D02*
X0070815Y0036346D01*
X0070917Y0036944D02*
X0072335Y0036944D01*
X0072335Y0037543D02*
X0070935Y0037543D01*
X0070935Y0038141D02*
X0072335Y0038141D01*
X0072335Y0038740D02*
X0070935Y0038740D01*
X0070935Y0039339D02*
X0072335Y0039339D01*
X0072335Y0039937D02*
X0070935Y0039937D01*
X0062335Y0041134D02*
X0060935Y0041134D01*
X0060935Y0041733D02*
X0062335Y0041733D01*
X0062335Y0042331D02*
X0060935Y0042331D01*
X0060935Y0042930D02*
X0062335Y0042930D01*
X0062335Y0043528D02*
X0060935Y0043528D01*
X0060935Y0044127D02*
X0062397Y0044127D01*
X0062546Y0044725D02*
X0060761Y0044725D01*
X0061359Y0045324D02*
X0062792Y0045324D01*
X0063156Y0045922D02*
X0061958Y0045922D01*
X0062556Y0046521D02*
X0063680Y0046521D01*
X0063155Y0047119D02*
X0064473Y0047119D01*
X0078879Y0047119D02*
X0084390Y0047119D01*
X0083680Y0046521D02*
X0079590Y0046521D01*
X0080188Y0045922D02*
X0083081Y0045922D01*
X0082779Y0045324D02*
X0080490Y0045324D01*
X0080738Y0044725D02*
X0082532Y0044725D01*
X0082335Y0044127D02*
X0080935Y0044127D01*
X0080935Y0043528D02*
X0082335Y0043528D01*
X0082335Y0042930D02*
X0080935Y0042930D01*
X0080935Y0042331D02*
X0082335Y0042331D01*
X0082335Y0041733D02*
X0080935Y0041733D01*
X0080935Y0041134D02*
X0082335Y0041134D01*
X0082335Y0040536D02*
X0080935Y0040536D01*
X0080935Y0039937D02*
X0082335Y0039937D01*
X0082335Y0039339D02*
X0080935Y0039339D01*
X0080935Y0038740D02*
X0082335Y0038740D01*
X0082335Y0038141D02*
X0080935Y0038141D01*
X0080935Y0037543D02*
X0082335Y0037543D01*
X0082335Y0036944D02*
X0080935Y0036944D01*
X0080855Y0036346D02*
X0082415Y0036346D01*
X0082663Y0035747D02*
X0080607Y0035747D01*
X0080359Y0035149D02*
X0082910Y0035149D01*
X0083398Y0034550D02*
X0079872Y0034550D01*
X0079273Y0033952D02*
X0083996Y0033952D01*
X0085154Y0033353D02*
X0078115Y0033353D01*
X0103106Y0054301D02*
X0124406Y0054301D01*
X0125005Y0054900D02*
X0103632Y0054900D01*
X0104034Y0055498D02*
X0125603Y0055498D01*
X0126202Y0056097D02*
X0104632Y0056097D01*
X0105231Y0056695D02*
X0126800Y0056695D01*
X0127399Y0057294D02*
X0105829Y0057294D01*
X0106428Y0057892D02*
X0127997Y0057892D01*
X0128596Y0058491D02*
X0107026Y0058491D01*
X0107625Y0059089D02*
X0129194Y0059089D01*
X0129784Y0059688D02*
X0108223Y0059688D01*
X0108822Y0060286D02*
X0130382Y0060286D01*
X0134580Y0060885D02*
X0109420Y0060885D01*
X0105940Y0064476D02*
X0103800Y0064476D01*
X0103800Y0065074D02*
X0106539Y0065074D01*
X0107137Y0065673D02*
X0103800Y0065673D01*
X0103800Y0066272D02*
X0108234Y0066272D01*
X0105342Y0063877D02*
X0103800Y0063877D01*
X0103800Y0063279D02*
X0104743Y0063279D01*
X0104145Y0062680D02*
X0103800Y0062680D01*
X0098800Y0062680D02*
X0063967Y0062680D01*
X0063981Y0062647D02*
X0063387Y0064080D01*
X0062290Y0065177D01*
X0060857Y0065771D01*
X0059175Y0065771D01*
X0059175Y0065820D01*
X0055348Y0069647D01*
X0052265Y0069647D01*
X0052265Y0070461D01*
X0098603Y0070461D01*
X0098800Y0069863D02*
X0052265Y0069863D01*
X0052265Y0070461D02*
X0051504Y0071222D01*
X0046096Y0071222D01*
X0045335Y0070461D01*
X0029175Y0070461D01*
X0029175Y0069863D02*
X0045335Y0069863D01*
X0045335Y0070461D02*
X0045335Y0065447D01*
X0046096Y0064685D01*
X0051504Y0064685D01*
X0052265Y0065447D01*
X0052265Y0066260D01*
X0053945Y0066260D01*
X0054434Y0065771D01*
X0054105Y0065771D01*
X0052672Y0065177D01*
X0051575Y0064080D01*
X0050981Y0062647D01*
X0050981Y0061095D01*
X0051575Y0059662D01*
X0052672Y0058565D01*
X0054105Y0057971D01*
X0060857Y0057971D01*
X0062290Y0058565D01*
X0063387Y0059662D01*
X0063981Y0061095D01*
X0063981Y0062647D01*
X0063981Y0062082D02*
X0098800Y0062082D01*
X0098800Y0061483D02*
X0063981Y0061483D01*
X0063894Y0060885D02*
X0098800Y0060885D01*
X0098800Y0060286D02*
X0063646Y0060286D01*
X0063398Y0059688D02*
X0098800Y0059688D01*
X0098800Y0059089D02*
X0062815Y0059089D01*
X0062112Y0058491D02*
X0067556Y0058491D01*
X0066857Y0057892D02*
X0021600Y0057892D01*
X0021600Y0057294D02*
X0066258Y0057294D01*
X0063719Y0063279D02*
X0098800Y0063279D01*
X0098800Y0063877D02*
X0063471Y0063877D01*
X0062991Y0064476D02*
X0098800Y0064476D01*
X0098800Y0065074D02*
X0062393Y0065074D01*
X0061093Y0065673D02*
X0098800Y0065673D01*
X0098800Y0066272D02*
X0058724Y0066272D01*
X0058125Y0066870D02*
X0098800Y0066870D01*
X0098800Y0067469D02*
X0057527Y0067469D01*
X0056928Y0068067D02*
X0098800Y0068067D01*
X0098800Y0068666D02*
X0056330Y0068666D01*
X0055731Y0069264D02*
X0098800Y0069264D01*
X0098005Y0071060D02*
X0051666Y0071060D01*
X0051504Y0071378D02*
X0052265Y0072139D01*
X0052265Y0077153D01*
X0051504Y0077915D01*
X0050494Y0077915D01*
X0050494Y0079036D01*
X0057719Y0079036D01*
X0058864Y0077891D01*
X0060445Y0077236D01*
X0062155Y0077236D01*
X0063736Y0077891D01*
X0064945Y0079100D01*
X0065253Y0079843D01*
X0067238Y0079843D01*
X0074345Y0086950D01*
X0074776Y0086519D01*
X0075765Y0086109D01*
X0076835Y0086109D01*
X0077824Y0086519D01*
X0078581Y0087276D01*
X0078991Y0088265D01*
X0078991Y0089335D01*
X0078581Y0090324D01*
X0077824Y0091081D01*
X0076835Y0091491D01*
X0075765Y0091491D01*
X0074776Y0091081D01*
X0074189Y0090494D01*
X0073098Y0090494D01*
X0072106Y0089502D01*
X0065835Y0083230D01*
X0065253Y0083230D01*
X0064945Y0083972D01*
X0063736Y0085182D01*
X0062155Y0085836D01*
X0060445Y0085836D01*
X0058864Y0085182D01*
X0057719Y0084036D01*
X0039881Y0084036D01*
X0038736Y0085182D01*
X0037155Y0085836D01*
X0035445Y0085836D01*
X0033864Y0085182D01*
X0032655Y0083972D01*
X0032000Y0082392D01*
X0032000Y0080681D01*
X0032655Y0079100D01*
X0033864Y0077891D01*
X0035445Y0077236D01*
X0037155Y0077236D01*
X0038736Y0077891D01*
X0039881Y0079036D01*
X0047106Y0079036D01*
X0047106Y0077915D01*
X0046096Y0077915D01*
X0045335Y0077153D01*
X0045335Y0072139D01*
X0046096Y0071378D01*
X0051504Y0071378D01*
X0051784Y0071658D02*
X0097406Y0071658D01*
X0096808Y0072257D02*
X0052265Y0072257D01*
X0052265Y0072855D02*
X0096485Y0072855D01*
X0096300Y0073454D02*
X0052265Y0073454D01*
X0052265Y0074052D02*
X0096300Y0074052D01*
X0096300Y0074651D02*
X0052265Y0074651D01*
X0052265Y0075249D02*
X0096300Y0075249D01*
X0096300Y0075848D02*
X0052265Y0075848D01*
X0052265Y0076446D02*
X0096300Y0076446D01*
X0093579Y0077045D02*
X0052265Y0077045D01*
X0051776Y0077643D02*
X0059462Y0077643D01*
X0058513Y0078242D02*
X0050494Y0078242D01*
X0050494Y0078840D02*
X0057915Y0078840D01*
X0063138Y0077643D02*
X0092980Y0077643D01*
X0092874Y0078242D02*
X0064087Y0078242D01*
X0064685Y0078840D02*
X0092874Y0078840D01*
X0092874Y0079439D02*
X0065085Y0079439D01*
X0067433Y0080037D02*
X0092874Y0080037D01*
X0092874Y0080636D02*
X0068031Y0080636D01*
X0068630Y0081234D02*
X0092874Y0081234D01*
X0092874Y0081833D02*
X0069228Y0081833D01*
X0069827Y0082431D02*
X0092874Y0082431D01*
X0092874Y0083030D02*
X0070425Y0083030D01*
X0071024Y0083628D02*
X0092874Y0083628D01*
X0092874Y0084227D02*
X0071622Y0084227D01*
X0072221Y0084825D02*
X0092874Y0084825D01*
X0092874Y0085424D02*
X0072819Y0085424D01*
X0073418Y0086022D02*
X0092874Y0086022D01*
X0092874Y0086621D02*
X0077926Y0086621D01*
X0078524Y0087219D02*
X0092874Y0087219D01*
X0092874Y0087818D02*
X0078805Y0087818D01*
X0078991Y0088416D02*
X0092874Y0088416D01*
X0092874Y0089015D02*
X0078991Y0089015D01*
X0078875Y0089613D02*
X0092874Y0089613D01*
X0093236Y0090212D02*
X0078627Y0090212D01*
X0078095Y0090810D02*
X0096348Y0090810D01*
X0096348Y0091409D02*
X0077032Y0091409D01*
X0075568Y0091409D02*
X0068804Y0091409D01*
X0068206Y0090810D02*
X0074505Y0090810D01*
X0072817Y0090212D02*
X0067607Y0090212D01*
X0065223Y0089613D02*
X0072218Y0089613D01*
X0071620Y0089015D02*
X0064975Y0089015D01*
X0064419Y0088416D02*
X0071021Y0088416D01*
X0070423Y0087818D02*
X0063820Y0087818D01*
X0062495Y0087219D02*
X0069824Y0087219D01*
X0069226Y0086621D02*
X0029175Y0086621D01*
X0029175Y0086022D02*
X0068627Y0086022D01*
X0068029Y0085424D02*
X0063151Y0085424D01*
X0064092Y0084825D02*
X0067430Y0084825D01*
X0066832Y0084227D02*
X0064690Y0084227D01*
X0065088Y0083628D02*
X0066233Y0083628D01*
X0059449Y0085424D02*
X0038151Y0085424D01*
X0039092Y0084825D02*
X0058508Y0084825D01*
X0057910Y0084227D02*
X0039690Y0084227D01*
X0038820Y0087818D02*
X0058780Y0087818D01*
X0058181Y0088416D02*
X0039419Y0088416D01*
X0037495Y0087219D02*
X0060105Y0087219D01*
X0058242Y0094402D02*
X0039358Y0094402D01*
X0038760Y0095000D02*
X0058840Y0095000D01*
X0060251Y0095599D02*
X0037349Y0095599D01*
X0037307Y0097027D02*
X0037951Y0097236D01*
X0038554Y0097544D01*
X0039101Y0097941D01*
X0039580Y0098420D01*
X0039978Y0098968D01*
X0040285Y0099571D01*
X0040494Y0100214D01*
X0040600Y0100883D01*
X0040600Y0100921D01*
X0036600Y0100921D01*
X0036600Y0096921D01*
X0036638Y0096921D01*
X0037307Y0097027D01*
X0036600Y0097394D02*
X0036000Y0097394D01*
X0036000Y0096921D02*
X0036000Y0100921D01*
X0036600Y0100921D01*
X0036600Y0101521D01*
X0040600Y0101521D01*
X0040600Y0101560D01*
X0040494Y0102228D01*
X0040285Y0102872D01*
X0039978Y0103475D01*
X0039580Y0104023D01*
X0039101Y0104501D01*
X0038554Y0104899D01*
X0037951Y0105206D01*
X0037307Y0105415D01*
X0036638Y0105521D01*
X0036600Y0105521D01*
X0036600Y0101521D01*
X0036000Y0101521D01*
X0036000Y0100921D01*
X0032000Y0100921D01*
X0032000Y0100883D01*
X0032106Y0100214D01*
X0032315Y0099571D01*
X0032622Y0098968D01*
X0033020Y0098420D01*
X0033499Y0097941D01*
X0034046Y0097544D01*
X0034649Y0097236D01*
X0035293Y0097027D01*
X0035962Y0096921D01*
X0036000Y0096921D01*
X0036000Y0097993D02*
X0036600Y0097993D01*
X0036600Y0098591D02*
X0036000Y0098591D01*
X0036000Y0099190D02*
X0036600Y0099190D01*
X0036600Y0099788D02*
X0036000Y0099788D01*
X0036000Y0100387D02*
X0036600Y0100387D01*
X0036600Y0100985D02*
X0061000Y0100985D01*
X0061000Y0100921D02*
X0057000Y0100921D01*
X0057000Y0100883D01*
X0057106Y0100214D01*
X0057315Y0099571D01*
X0057622Y0098968D01*
X0058020Y0098420D01*
X0058499Y0097941D01*
X0059046Y0097544D01*
X0059649Y0097236D01*
X0060293Y0097027D01*
X0060962Y0096921D01*
X0061000Y0096921D01*
X0061000Y0100921D01*
X0061600Y0100921D01*
X0061600Y0096921D01*
X0061638Y0096921D01*
X0062307Y0097027D01*
X0062951Y0097236D01*
X0063554Y0097544D01*
X0064101Y0097941D01*
X0064580Y0098420D01*
X0064978Y0098968D01*
X0065285Y0099571D01*
X0065494Y0100214D01*
X0065600Y0100883D01*
X0065600Y0100921D01*
X0061600Y0100921D01*
X0061600Y0101521D01*
X0065600Y0101521D01*
X0065600Y0101560D01*
X0065494Y0102228D01*
X0065285Y0102872D01*
X0064978Y0103475D01*
X0064580Y0104023D01*
X0064101Y0104501D01*
X0063554Y0104899D01*
X0062951Y0105206D01*
X0062307Y0105415D01*
X0061638Y0105521D01*
X0061600Y0105521D01*
X0061600Y0101521D01*
X0061000Y0101521D01*
X0061000Y0100921D01*
X0061000Y0100387D02*
X0061600Y0100387D01*
X0061600Y0100985D02*
X0074680Y0100985D01*
X0072991Y0100387D02*
X0065521Y0100387D01*
X0065356Y0099788D02*
X0072393Y0099788D01*
X0071794Y0099190D02*
X0065091Y0099190D01*
X0064704Y0098591D02*
X0071196Y0098591D01*
X0070597Y0097993D02*
X0064152Y0097993D01*
X0063260Y0097394D02*
X0069999Y0097394D01*
X0069400Y0096796D02*
X0021600Y0096796D01*
X0021600Y0097394D02*
X0034340Y0097394D01*
X0033448Y0097993D02*
X0021600Y0097993D01*
X0021600Y0098591D02*
X0032896Y0098591D01*
X0032509Y0099190D02*
X0021600Y0099190D01*
X0021600Y0099788D02*
X0032244Y0099788D01*
X0032079Y0100387D02*
X0021600Y0100387D01*
X0021600Y0100985D02*
X0036000Y0100985D01*
X0036000Y0101521D02*
X0032000Y0101521D01*
X0032000Y0101560D01*
X0032106Y0102228D01*
X0032315Y0102872D01*
X0032622Y0103475D01*
X0033020Y0104023D01*
X0033499Y0104501D01*
X0034046Y0104899D01*
X0034649Y0105206D01*
X0035293Y0105415D01*
X0035962Y0105521D01*
X0036000Y0105521D01*
X0036000Y0101521D01*
X0036000Y0101584D02*
X0036600Y0101584D01*
X0036600Y0102182D02*
X0036000Y0102182D01*
X0036000Y0102781D02*
X0036600Y0102781D01*
X0036600Y0103379D02*
X0036000Y0103379D01*
X0036000Y0103978D02*
X0036600Y0103978D01*
X0036600Y0104576D02*
X0036000Y0104576D01*
X0036000Y0105175D02*
X0036600Y0105175D01*
X0038012Y0105175D02*
X0059588Y0105175D01*
X0059649Y0105206D02*
X0059046Y0104899D01*
X0058499Y0104501D01*
X0058020Y0104023D01*
X0057622Y0103475D01*
X0057315Y0102872D01*
X0057106Y0102228D01*
X0057000Y0101560D01*
X0057000Y0101521D01*
X0061000Y0101521D01*
X0061000Y0105521D01*
X0060962Y0105521D01*
X0060293Y0105415D01*
X0059649Y0105206D01*
X0058602Y0104576D02*
X0038998Y0104576D01*
X0039612Y0103978D02*
X0057988Y0103978D01*
X0057574Y0103379D02*
X0040026Y0103379D01*
X0040315Y0102781D02*
X0057285Y0102781D01*
X0057099Y0102182D02*
X0040501Y0102182D01*
X0040596Y0101584D02*
X0057004Y0101584D01*
X0057079Y0100387D02*
X0040521Y0100387D01*
X0040356Y0099788D02*
X0057244Y0099788D01*
X0057509Y0099190D02*
X0040091Y0099190D01*
X0039704Y0098591D02*
X0057896Y0098591D01*
X0058448Y0097993D02*
X0039152Y0097993D01*
X0038260Y0097394D02*
X0059340Y0097394D01*
X0061000Y0097394D02*
X0061600Y0097394D01*
X0061600Y0097993D02*
X0061000Y0097993D01*
X0061000Y0098591D02*
X0061600Y0098591D01*
X0061600Y0099190D02*
X0061000Y0099190D01*
X0061000Y0099788D02*
X0061600Y0099788D01*
X0061600Y0101584D02*
X0061000Y0101584D01*
X0061000Y0102182D02*
X0061600Y0102182D01*
X0061600Y0102781D02*
X0061000Y0102781D01*
X0061000Y0103379D02*
X0061600Y0103379D01*
X0061600Y0103978D02*
X0061000Y0103978D01*
X0061000Y0104576D02*
X0061600Y0104576D01*
X0061600Y0105175D02*
X0061000Y0105175D01*
X0063012Y0105175D02*
X0083887Y0105175D01*
X0083650Y0105773D02*
X0021600Y0105773D01*
X0021600Y0105175D02*
X0034588Y0105175D01*
X0033602Y0104576D02*
X0021600Y0104576D01*
X0021600Y0103978D02*
X0032988Y0103978D01*
X0032574Y0103379D02*
X0021600Y0103379D01*
X0021600Y0102781D02*
X0032285Y0102781D01*
X0032099Y0102182D02*
X0021600Y0102182D01*
X0021600Y0101584D02*
X0032004Y0101584D01*
X0032762Y0106764D02*
X0039838Y0106764D01*
X0040600Y0107525D01*
X0040600Y0108564D01*
X0057000Y0108564D01*
X0057000Y0107525D01*
X0057762Y0106764D01*
X0064838Y0106764D01*
X0065600Y0107525D01*
X0065600Y0108564D01*
X0066561Y0108564D01*
X0067480Y0108944D01*
X0073025Y0114489D01*
X0073636Y0113878D01*
X0078964Y0113878D01*
X0079726Y0114639D01*
X0079726Y0114745D01*
X0083650Y0114745D01*
X0083650Y0114412D01*
X0084412Y0113650D01*
X0093388Y0113650D01*
X0094150Y0114412D01*
X0094150Y0121388D01*
X0093388Y0122150D01*
X0084412Y0122150D01*
X0083650Y0121388D01*
X0083650Y0119745D01*
X0079726Y0119745D01*
X0079726Y0119850D01*
X0078964Y0120612D01*
X0073636Y0120612D01*
X0072874Y0119850D01*
X0072874Y0119745D01*
X0071748Y0119745D01*
X0070829Y0119364D01*
X0065600Y0114136D01*
X0065600Y0114602D01*
X0064838Y0115364D01*
X0057762Y0115364D01*
X0057000Y0114602D01*
X0057000Y0113564D01*
X0040600Y0113564D01*
X0040600Y0114602D01*
X0039838Y0115364D01*
X0032762Y0115364D01*
X0032000Y0114602D01*
X0032000Y0107525D01*
X0032762Y0106764D01*
X0032555Y0106970D02*
X0021600Y0106970D01*
X0021600Y0106372D02*
X0083650Y0106372D01*
X0083650Y0106970D02*
X0065045Y0106970D01*
X0065600Y0107569D02*
X0073088Y0107569D01*
X0073134Y0107490D02*
X0073376Y0107248D01*
X0073672Y0107077D01*
X0074003Y0106988D01*
X0076000Y0106988D01*
X0076000Y0110055D01*
X0076600Y0110055D01*
X0076600Y0106988D01*
X0078597Y0106988D01*
X0078928Y0107077D01*
X0079224Y0107248D01*
X0079466Y0107490D01*
X0079637Y0107786D01*
X0079726Y0108117D01*
X0079726Y0110055D01*
X0076600Y0110055D01*
X0076600Y0110655D01*
X0079726Y0110655D01*
X0079726Y0112593D01*
X0079637Y0112924D01*
X0079466Y0113220D01*
X0079224Y0113462D01*
X0078928Y0113633D01*
X0078597Y0113722D01*
X0076600Y0113722D01*
X0076600Y0110655D01*
X0076000Y0110655D01*
X0076000Y0110055D01*
X0072874Y0110055D01*
X0072874Y0108117D01*
X0072963Y0107786D01*
X0073134Y0107490D01*
X0072874Y0108167D02*
X0065600Y0108167D01*
X0067049Y0108766D02*
X0072874Y0108766D01*
X0072874Y0109364D02*
X0067900Y0109364D01*
X0068498Y0109963D02*
X0072874Y0109963D01*
X0072874Y0110655D02*
X0076000Y0110655D01*
X0076000Y0113722D01*
X0074003Y0113722D01*
X0073672Y0113633D01*
X0073376Y0113462D01*
X0073134Y0113220D01*
X0072963Y0112924D01*
X0072874Y0112593D01*
X0072874Y0110655D01*
X0072874Y0111160D02*
X0069695Y0111160D01*
X0069097Y0110561D02*
X0076000Y0110561D01*
X0076000Y0109963D02*
X0076600Y0109963D01*
X0076600Y0110561D02*
X0083650Y0110561D01*
X0083650Y0109963D02*
X0079726Y0109963D01*
X0079726Y0109364D02*
X0083650Y0109364D01*
X0083650Y0108766D02*
X0079726Y0108766D01*
X0079726Y0108167D02*
X0083650Y0108167D01*
X0083650Y0107569D02*
X0079512Y0107569D01*
X0076600Y0107569D02*
X0076000Y0107569D01*
X0076000Y0108167D02*
X0076600Y0108167D01*
X0076600Y0108766D02*
X0076000Y0108766D01*
X0076000Y0109364D02*
X0076600Y0109364D01*
X0076600Y0111160D02*
X0076000Y0111160D01*
X0076000Y0111758D02*
X0076600Y0111758D01*
X0076600Y0112357D02*
X0076000Y0112357D01*
X0076000Y0112955D02*
X0076600Y0112955D01*
X0076600Y0113554D02*
X0076000Y0113554D01*
X0073534Y0113554D02*
X0072089Y0113554D01*
X0071491Y0112955D02*
X0072981Y0112955D01*
X0072874Y0112357D02*
X0070892Y0112357D01*
X0070294Y0111758D02*
X0072874Y0111758D01*
X0072688Y0114152D02*
X0073361Y0114152D01*
X0069208Y0117743D02*
X0021600Y0117743D01*
X0021600Y0117145D02*
X0068609Y0117145D01*
X0068011Y0116546D02*
X0021600Y0116546D01*
X0021600Y0115948D02*
X0067412Y0115948D01*
X0066814Y0115349D02*
X0064853Y0115349D01*
X0065451Y0114751D02*
X0066215Y0114751D01*
X0065617Y0114152D02*
X0065600Y0114152D01*
X0069806Y0118342D02*
X0021600Y0118342D01*
X0021600Y0118941D02*
X0070405Y0118941D01*
X0071251Y0119539D02*
X0021600Y0119539D01*
X0021600Y0120138D02*
X0073161Y0120138D01*
X0079439Y0120138D02*
X0083650Y0120138D01*
X0083650Y0120736D02*
X0021600Y0120736D01*
X0021600Y0121335D02*
X0083650Y0121335D01*
X0084195Y0121933D02*
X0021600Y0121933D01*
X0021600Y0122532D02*
X0098750Y0122532D01*
X0098750Y0121933D02*
X0093605Y0121933D01*
X0094150Y0121335D02*
X0098750Y0121335D01*
X0098750Y0120736D02*
X0094150Y0120736D01*
X0094150Y0120138D02*
X0098750Y0120138D01*
X0098750Y0119539D02*
X0094150Y0119539D01*
X0094150Y0118941D02*
X0098750Y0118941D01*
X0098750Y0118342D02*
X0094150Y0118342D01*
X0094150Y0117743D02*
X0098750Y0117743D01*
X0098750Y0117145D02*
X0094150Y0117145D01*
X0094150Y0116546D02*
X0098750Y0116546D01*
X0098750Y0115948D02*
X0094150Y0115948D01*
X0094150Y0115349D02*
X0098750Y0115349D01*
X0098645Y0114751D02*
X0094150Y0114751D01*
X0093891Y0114152D02*
X0098046Y0114152D01*
X0097448Y0113554D02*
X0079066Y0113554D01*
X0079239Y0114152D02*
X0083909Y0114152D01*
X0084217Y0112955D02*
X0079619Y0112955D01*
X0079726Y0112357D02*
X0083650Y0112357D01*
X0083650Y0111758D02*
X0079726Y0111758D01*
X0079726Y0111160D02*
X0083650Y0111160D01*
X0084779Y0104150D02*
X0084448Y0104061D01*
X0084152Y0103890D01*
X0083910Y0103648D01*
X0083739Y0103352D01*
X0083650Y0103021D01*
X0083650Y0100200D01*
X0088600Y0100200D01*
X0088600Y0104150D01*
X0084779Y0104150D01*
X0084303Y0103978D02*
X0064612Y0103978D01*
X0065026Y0103379D02*
X0083754Y0103379D01*
X0083650Y0102781D02*
X0065315Y0102781D01*
X0065501Y0102182D02*
X0083650Y0102182D01*
X0083650Y0101584D02*
X0065596Y0101584D01*
X0063998Y0104576D02*
X0096348Y0104576D01*
X0096348Y0103978D02*
X0093497Y0103978D01*
X0093352Y0104061D02*
X0093648Y0103890D01*
X0093890Y0103648D01*
X0094061Y0103352D01*
X0094150Y0103021D01*
X0094150Y0100200D01*
X0089200Y0100200D01*
X0088600Y0100200D01*
X0088600Y0099600D01*
X0089200Y0099600D01*
X0089200Y0100200D01*
X0089200Y0104150D01*
X0093021Y0104150D01*
X0093352Y0104061D01*
X0094046Y0103379D02*
X0096348Y0103379D01*
X0096348Y0102781D02*
X0094150Y0102781D01*
X0094150Y0102182D02*
X0096348Y0102182D01*
X0096348Y0101584D02*
X0094150Y0101584D01*
X0094150Y0100985D02*
X0096348Y0100985D01*
X0096348Y0100387D02*
X0094150Y0100387D01*
X0094150Y0099600D02*
X0089200Y0099600D01*
X0089200Y0095650D01*
X0093021Y0095650D01*
X0093352Y0095739D01*
X0093648Y0095910D01*
X0093890Y0096152D01*
X0094061Y0096448D01*
X0094150Y0096779D01*
X0094150Y0099600D01*
X0094150Y0099190D02*
X0096348Y0099190D01*
X0096348Y0099788D02*
X0089200Y0099788D01*
X0089200Y0099190D02*
X0088600Y0099190D01*
X0088600Y0099600D02*
X0088600Y0095650D01*
X0084779Y0095650D01*
X0084448Y0095739D01*
X0084152Y0095910D01*
X0083910Y0096152D01*
X0083739Y0096448D01*
X0083650Y0096779D01*
X0083650Y0099600D01*
X0088600Y0099600D01*
X0088600Y0099788D02*
X0078803Y0099788D01*
X0078991Y0099190D02*
X0083650Y0099190D01*
X0083650Y0098591D02*
X0078991Y0098591D01*
X0078878Y0097993D02*
X0083650Y0097993D01*
X0083650Y0097394D02*
X0078630Y0097394D01*
X0078101Y0096796D02*
X0083650Y0096796D01*
X0083884Y0096197D02*
X0077047Y0096197D01*
X0075553Y0096197D02*
X0073592Y0096197D01*
X0072994Y0095599D02*
X0096348Y0095599D01*
X0096348Y0096197D02*
X0093916Y0096197D01*
X0094150Y0096796D02*
X0096348Y0096796D01*
X0096348Y0097394D02*
X0094150Y0097394D01*
X0094150Y0097993D02*
X0096348Y0097993D01*
X0096348Y0098591D02*
X0094150Y0098591D01*
X0096348Y0095000D02*
X0072395Y0095000D01*
X0071797Y0094402D02*
X0096348Y0094402D01*
X0096348Y0093803D02*
X0071198Y0093803D01*
X0070600Y0093205D02*
X0096348Y0093205D01*
X0096348Y0092606D02*
X0070001Y0092606D01*
X0069403Y0092008D02*
X0096348Y0092008D01*
X0101448Y0092008D02*
X0204701Y0092008D01*
X0204701Y0092606D02*
X0101448Y0092606D01*
X0101448Y0093205D02*
X0204701Y0093205D01*
X0204701Y0093803D02*
X0101448Y0093803D01*
X0101448Y0094402D02*
X0204701Y0094402D01*
X0204701Y0095000D02*
X0101448Y0095000D01*
X0101448Y0095599D02*
X0204701Y0095599D01*
X0204701Y0096197D02*
X0101448Y0096197D01*
X0101448Y0096796D02*
X0204701Y0096796D01*
X0204701Y0097394D02*
X0101448Y0097394D01*
X0101448Y0097993D02*
X0204701Y0097993D01*
X0204701Y0098591D02*
X0101448Y0098591D01*
X0101448Y0099190D02*
X0204701Y0099190D01*
X0204701Y0099788D02*
X0101448Y0099788D01*
X0101448Y0100387D02*
X0108825Y0100387D01*
X0108450Y0100762D02*
X0109212Y0100000D01*
X0118188Y0100000D01*
X0118950Y0100762D01*
X0118950Y0116838D01*
X0118188Y0117600D01*
X0109212Y0117600D01*
X0108450Y0116838D01*
X0108450Y0100762D01*
X0108450Y0100985D02*
X0101448Y0100985D01*
X0101448Y0101584D02*
X0108450Y0101584D01*
X0108450Y0102182D02*
X0101448Y0102182D01*
X0101448Y0102781D02*
X0108450Y0102781D01*
X0108450Y0103379D02*
X0101448Y0103379D01*
X0101448Y0103978D02*
X0108450Y0103978D01*
X0108450Y0104576D02*
X0101448Y0104576D01*
X0101448Y0105175D02*
X0108450Y0105175D01*
X0108450Y0105773D02*
X0101448Y0105773D01*
X0101448Y0106372D02*
X0108450Y0106372D01*
X0108450Y0106970D02*
X0101340Y0106970D01*
X0101092Y0107569D02*
X0108450Y0107569D01*
X0108450Y0108167D02*
X0100539Y0108167D01*
X0099940Y0108766D02*
X0108450Y0108766D01*
X0108450Y0109364D02*
X0100471Y0109364D01*
X0101069Y0109963D02*
X0108450Y0109963D01*
X0108450Y0110561D02*
X0101668Y0110561D01*
X0102266Y0111160D02*
X0108450Y0111160D01*
X0108450Y0111758D02*
X0102865Y0111758D01*
X0103462Y0112357D02*
X0108450Y0112357D01*
X0108450Y0112955D02*
X0103710Y0112955D01*
X0103850Y0113554D02*
X0108450Y0113554D01*
X0108450Y0114152D02*
X0103850Y0114152D01*
X0103850Y0114751D02*
X0108450Y0114751D01*
X0108450Y0115349D02*
X0103850Y0115349D01*
X0103850Y0115948D02*
X0108450Y0115948D01*
X0108450Y0116546D02*
X0103850Y0116546D01*
X0103850Y0117145D02*
X0108757Y0117145D01*
X0103850Y0117743D02*
X0127461Y0117743D01*
X0128060Y0117145D02*
X0118643Y0117145D01*
X0118950Y0116546D02*
X0128658Y0116546D01*
X0129257Y0115948D02*
X0118950Y0115948D01*
X0118950Y0115349D02*
X0129855Y0115349D01*
X0130454Y0114751D02*
X0118950Y0114751D01*
X0118950Y0114152D02*
X0131052Y0114152D01*
X0131651Y0113554D02*
X0118950Y0113554D01*
X0118950Y0112955D02*
X0132249Y0112955D01*
X0132848Y0112357D02*
X0118950Y0112357D01*
X0118950Y0111758D02*
X0133446Y0111758D01*
X0134045Y0111160D02*
X0118950Y0111160D01*
X0118950Y0110561D02*
X0134643Y0110561D01*
X0135242Y0109963D02*
X0118950Y0109963D01*
X0118950Y0109364D02*
X0135840Y0109364D01*
X0136439Y0108766D02*
X0118950Y0108766D01*
X0118950Y0108167D02*
X0137037Y0108167D01*
X0137636Y0107569D02*
X0118950Y0107569D01*
X0118950Y0106970D02*
X0138234Y0106970D01*
X0138609Y0106595D02*
X0138609Y0105765D01*
X0139019Y0104776D01*
X0139776Y0104019D01*
X0140765Y0103609D01*
X0141835Y0103609D01*
X0142824Y0104019D01*
X0143581Y0104776D01*
X0143800Y0105305D01*
X0144019Y0104776D01*
X0144776Y0104019D01*
X0145765Y0103609D01*
X0146835Y0103609D01*
X0147824Y0104019D01*
X0148581Y0104776D01*
X0148991Y0105765D01*
X0148991Y0106835D01*
X0148581Y0107824D01*
X0147824Y0108581D01*
X0146835Y0108991D01*
X0146005Y0108991D01*
X0130494Y0124502D01*
X0130494Y0133025D01*
X0131364Y0132155D01*
X0132945Y0131500D01*
X0133554Y0131500D01*
X0134500Y0130554D01*
X0134500Y0128305D01*
X0134019Y0127824D01*
X0133609Y0126835D01*
X0133609Y0125765D01*
X0134019Y0124776D01*
X0134776Y0124019D01*
X0135765Y0123609D01*
X0136835Y0123609D01*
X0137824Y0124019D01*
X0138581Y0124776D01*
X0138991Y0125765D01*
X0138991Y0126835D01*
X0138581Y0127824D01*
X0138100Y0128305D01*
X0138100Y0132046D01*
X0137113Y0133032D01*
X0137445Y0133364D01*
X0138100Y0134945D01*
X0138100Y0142655D01*
X0137445Y0144236D01*
X0136236Y0145445D01*
X0134655Y0146100D01*
X0132945Y0146100D01*
X0131364Y0145445D01*
X0130155Y0144236D01*
X0129500Y0142655D01*
X0129500Y0135495D01*
X0117435Y0147561D01*
X0116032Y0147561D01*
X0089068Y0147561D01*
X0087665Y0147561D01*
X0085751Y0145646D01*
X0084655Y0146100D01*
X0082945Y0146100D01*
X0081364Y0145445D01*
X0080155Y0144236D01*
X0079500Y0142655D01*
X0079500Y0134945D01*
X0080118Y0133453D01*
X0077410Y0133453D01*
X0077478Y0133546D01*
X0077785Y0134149D01*
X0077994Y0134793D01*
X0078100Y0135462D01*
X0078100Y0138500D01*
X0074100Y0138500D01*
X0074100Y0139100D01*
X0073500Y0139100D01*
X0073500Y0146100D01*
X0073462Y0146100D01*
X0072793Y0145994D01*
X0072149Y0145785D01*
X0071546Y0145478D01*
X0070999Y0145080D01*
X0070520Y0144601D01*
X0070122Y0144054D01*
X0069815Y0143451D01*
X0069606Y0142807D01*
X0069500Y0142138D01*
X0069500Y0139100D01*
X0073500Y0139100D01*
X0073500Y0138500D01*
X0069500Y0138500D01*
X0069500Y0135462D01*
X0069606Y0134793D01*
X0069815Y0134149D01*
X0070122Y0133546D01*
X0070190Y0133453D01*
X0066995Y0133453D01*
X0065572Y0134876D01*
X0065600Y0134945D01*
X0065600Y0142655D01*
X0064945Y0144236D01*
X0063736Y0145445D01*
X0062155Y0146100D01*
X0060445Y0146100D01*
X0058864Y0145445D01*
X0057655Y0144236D01*
X0057000Y0142655D01*
X0057000Y0134945D01*
X0057655Y0133364D01*
X0058864Y0132155D01*
X0060445Y0131500D01*
X0062155Y0131500D01*
X0063571Y0132086D01*
X0064600Y0131057D01*
X0064600Y0131049D01*
X0065596Y0130053D01*
X0087457Y0130053D01*
X0097010Y0139606D01*
X0115598Y0139606D01*
X0122106Y0133098D01*
X0122106Y0123098D01*
X0123098Y0122106D01*
X0138609Y0106595D01*
X0138609Y0106372D02*
X0118950Y0106372D01*
X0118950Y0105773D02*
X0138609Y0105773D01*
X0138854Y0105175D02*
X0118950Y0105175D01*
X0118950Y0104576D02*
X0139219Y0104576D01*
X0139876Y0103978D02*
X0118950Y0103978D01*
X0118950Y0103379D02*
X0204701Y0103379D01*
X0204701Y0102781D02*
X0118950Y0102781D01*
X0118950Y0102182D02*
X0204701Y0102182D01*
X0204701Y0101584D02*
X0118950Y0101584D01*
X0118950Y0100985D02*
X0204701Y0100985D01*
X0204701Y0100387D02*
X0118575Y0100387D01*
X0118806Y0090612D02*
X0118475Y0090523D01*
X0118179Y0090352D01*
X0117937Y0090110D01*
X0117766Y0089814D01*
X0117677Y0089483D01*
X0117677Y0084100D01*
X0123402Y0084100D01*
X0123402Y0090612D01*
X0118806Y0090612D01*
X0118039Y0090212D02*
X0104561Y0090212D01*
X0104923Y0089613D02*
X0117712Y0089613D01*
X0117677Y0089015D02*
X0104923Y0089015D01*
X0104923Y0088416D02*
X0117677Y0088416D01*
X0117677Y0087818D02*
X0104923Y0087818D01*
X0104923Y0087219D02*
X0117677Y0087219D01*
X0117677Y0086621D02*
X0104923Y0086621D01*
X0104923Y0086022D02*
X0117677Y0086022D01*
X0117677Y0085424D02*
X0104923Y0085424D01*
X0104923Y0084825D02*
X0117677Y0084825D01*
X0117677Y0084227D02*
X0104923Y0084227D01*
X0104923Y0083628D02*
X0123402Y0083628D01*
X0123402Y0083500D02*
X0123402Y0084100D01*
X0124002Y0084100D01*
X0129726Y0084100D01*
X0129726Y0089483D01*
X0129637Y0089814D01*
X0129466Y0090110D01*
X0129224Y0090352D01*
X0128928Y0090523D01*
X0128597Y0090612D01*
X0124002Y0090612D01*
X0124002Y0084100D01*
X0124002Y0083500D01*
X0129726Y0083500D01*
X0129726Y0078117D01*
X0129637Y0077786D01*
X0129466Y0077490D01*
X0129224Y0077248D01*
X0128928Y0077077D01*
X0128597Y0076988D01*
X0124002Y0076988D01*
X0124002Y0083500D01*
X0123402Y0083500D01*
X0123402Y0076988D01*
X0118806Y0076988D01*
X0118475Y0077077D01*
X0118179Y0077248D01*
X0117937Y0077490D01*
X0117766Y0077786D01*
X0117677Y0078117D01*
X0117677Y0083500D01*
X0123402Y0083500D01*
X0123402Y0083030D02*
X0124002Y0083030D01*
X0124002Y0083628D02*
X0204701Y0083628D01*
X0204701Y0083030D02*
X0129726Y0083030D01*
X0129726Y0082431D02*
X0204701Y0082431D01*
X0204701Y0081833D02*
X0129726Y0081833D01*
X0129726Y0081234D02*
X0204701Y0081234D01*
X0204701Y0080636D02*
X0129726Y0080636D01*
X0129726Y0080037D02*
X0204701Y0080037D01*
X0204701Y0079439D02*
X0129726Y0079439D01*
X0129726Y0078840D02*
X0204701Y0078840D01*
X0204701Y0078242D02*
X0129726Y0078242D01*
X0129555Y0077643D02*
X0204701Y0077643D01*
X0204701Y0077045D02*
X0128808Y0077045D01*
X0124002Y0077045D02*
X0123402Y0077045D01*
X0123402Y0077643D02*
X0124002Y0077643D01*
X0124002Y0078242D02*
X0123402Y0078242D01*
X0123402Y0078840D02*
X0124002Y0078840D01*
X0124002Y0079439D02*
X0123402Y0079439D01*
X0123402Y0080037D02*
X0124002Y0080037D01*
X0124002Y0080636D02*
X0123402Y0080636D01*
X0123402Y0081234D02*
X0124002Y0081234D01*
X0124002Y0081833D02*
X0123402Y0081833D01*
X0123402Y0082431D02*
X0124002Y0082431D01*
X0124002Y0084227D02*
X0123402Y0084227D01*
X0123402Y0084825D02*
X0124002Y0084825D01*
X0124002Y0085424D02*
X0123402Y0085424D01*
X0123402Y0086022D02*
X0124002Y0086022D01*
X0124002Y0086621D02*
X0123402Y0086621D01*
X0123402Y0087219D02*
X0124002Y0087219D01*
X0124002Y0087818D02*
X0123402Y0087818D01*
X0123402Y0088416D02*
X0124002Y0088416D01*
X0124002Y0089015D02*
X0123402Y0089015D01*
X0123402Y0089613D02*
X0124002Y0089613D01*
X0124002Y0090212D02*
X0123402Y0090212D01*
X0129364Y0090212D02*
X0204701Y0090212D01*
X0204701Y0090810D02*
X0101448Y0090810D01*
X0101448Y0091409D02*
X0204701Y0091409D01*
X0204701Y0089613D02*
X0129691Y0089613D01*
X0129726Y0089015D02*
X0204701Y0089015D01*
X0204701Y0088416D02*
X0129726Y0088416D01*
X0129726Y0087818D02*
X0204701Y0087818D01*
X0204701Y0087219D02*
X0129726Y0087219D01*
X0129726Y0086621D02*
X0204701Y0086621D01*
X0204701Y0086022D02*
X0129726Y0086022D01*
X0129726Y0085424D02*
X0204701Y0085424D01*
X0204701Y0084825D02*
X0129726Y0084825D01*
X0129726Y0084227D02*
X0204701Y0084227D01*
X0204701Y0076446D02*
X0101300Y0076446D01*
X0101300Y0075848D02*
X0204701Y0075848D01*
X0204701Y0075249D02*
X0101300Y0075249D01*
X0101485Y0074651D02*
X0204701Y0074651D01*
X0204701Y0074052D02*
X0102083Y0074052D01*
X0102682Y0073454D02*
X0204701Y0073454D01*
X0204701Y0072855D02*
X0103280Y0072855D01*
X0103610Y0072257D02*
X0204701Y0072257D01*
X0204701Y0071658D02*
X0103800Y0071658D01*
X0103800Y0071060D02*
X0164755Y0071060D01*
X0167845Y0071060D02*
X0204701Y0071060D01*
X0204701Y0070461D02*
X0168444Y0070461D01*
X0168772Y0069863D02*
X0204701Y0069863D01*
X0204701Y0069264D02*
X0168991Y0069264D01*
X0168991Y0068666D02*
X0204701Y0068666D01*
X0204701Y0068067D02*
X0168909Y0068067D01*
X0168661Y0067469D02*
X0204701Y0067469D01*
X0204701Y0066870D02*
X0168175Y0066870D01*
X0167226Y0066272D02*
X0204701Y0066272D01*
X0204701Y0065673D02*
X0158482Y0065673D01*
X0159080Y0066272D02*
X0165374Y0066272D01*
X0164425Y0066870D02*
X0159679Y0066870D01*
X0157883Y0065074D02*
X0204701Y0065074D01*
X0204701Y0064476D02*
X0157285Y0064476D01*
X0156686Y0063877D02*
X0165492Y0063877D01*
X0164474Y0063279D02*
X0156088Y0063279D01*
X0155489Y0062680D02*
X0163960Y0062680D01*
X0163712Y0062082D02*
X0154891Y0062082D01*
X0154292Y0061483D02*
X0163609Y0061483D01*
X0163609Y0060885D02*
X0153694Y0060885D01*
X0153095Y0060286D02*
X0163800Y0060286D01*
X0163800Y0059688D02*
X0152497Y0059688D01*
X0151898Y0059089D02*
X0163800Y0059089D01*
X0163800Y0058491D02*
X0151299Y0058491D01*
X0150701Y0057892D02*
X0163800Y0057892D01*
X0163800Y0057294D02*
X0150102Y0057294D01*
X0149504Y0056695D02*
X0163800Y0056695D01*
X0163800Y0056097D02*
X0148905Y0056097D01*
X0148307Y0055498D02*
X0163800Y0055498D01*
X0163800Y0054900D02*
X0147708Y0054900D01*
X0147110Y0054301D02*
X0163800Y0054301D01*
X0163800Y0053703D02*
X0146511Y0053703D01*
X0145913Y0053104D02*
X0163800Y0053104D01*
X0163800Y0052506D02*
X0145314Y0052506D01*
X0144716Y0051907D02*
X0163372Y0051907D01*
X0162773Y0051309D02*
X0144774Y0051309D01*
X0141300Y0053800D02*
X0138800Y0053800D01*
X0133800Y0053800D01*
X0128800Y0048800D01*
X0131264Y0047718D02*
X0132822Y0047718D01*
X0132224Y0047119D02*
X0130924Y0047119D01*
X0130326Y0046521D02*
X0131625Y0046521D01*
X0131027Y0045922D02*
X0126573Y0045922D01*
X0125975Y0046521D02*
X0127274Y0046521D01*
X0126676Y0047119D02*
X0125376Y0047119D01*
X0124778Y0047718D02*
X0126336Y0047718D01*
X0126109Y0048316D02*
X0124179Y0048316D01*
X0124089Y0048915D02*
X0126109Y0048915D01*
X0126183Y0049513D02*
X0124408Y0049513D01*
X0125007Y0050112D02*
X0126431Y0050112D01*
X0126905Y0050710D02*
X0125605Y0050710D01*
X0126204Y0051309D02*
X0127826Y0051309D01*
X0126802Y0051907D02*
X0129645Y0051907D01*
X0130243Y0052506D02*
X0127401Y0052506D01*
X0128000Y0053104D02*
X0130842Y0053104D01*
X0131440Y0053703D02*
X0128598Y0053703D01*
X0129197Y0054301D02*
X0132039Y0054301D01*
X0132637Y0054900D02*
X0129795Y0054900D01*
X0130394Y0055498D02*
X0140736Y0055498D01*
X0141334Y0056097D02*
X0130992Y0056097D01*
X0131591Y0056695D02*
X0134600Y0056695D01*
X0138000Y0056695D02*
X0141933Y0056695D01*
X0141512Y0057294D02*
X0138588Y0057294D01*
X0138836Y0057892D02*
X0141264Y0057892D01*
X0141109Y0058491D02*
X0138991Y0058491D01*
X0138991Y0059089D02*
X0141109Y0059089D01*
X0141256Y0059688D02*
X0138844Y0059688D01*
X0138597Y0060286D02*
X0141503Y0060286D01*
X0142080Y0060885D02*
X0138020Y0060885D01*
X0136852Y0061483D02*
X0143248Y0061483D01*
X0144352Y0061483D02*
X0149502Y0061483D01*
X0150100Y0062082D02*
X0115887Y0062082D01*
X0116248Y0062680D02*
X0150699Y0062680D01*
X0151297Y0063279D02*
X0116491Y0063279D01*
X0116491Y0063877D02*
X0151896Y0063877D01*
X0152494Y0064476D02*
X0116432Y0064476D01*
X0116184Y0065074D02*
X0153093Y0065074D01*
X0153691Y0065673D02*
X0115732Y0065673D01*
X0114864Y0066272D02*
X0154290Y0066272D01*
X0154888Y0066870D02*
X0103800Y0066870D01*
X0103800Y0067469D02*
X0155487Y0067469D01*
X0156085Y0068067D02*
X0103800Y0068067D01*
X0103800Y0068666D02*
X0156684Y0068666D01*
X0157282Y0069264D02*
X0103800Y0069264D01*
X0103800Y0069863D02*
X0157881Y0069863D01*
X0158479Y0070461D02*
X0103800Y0070461D01*
X0104218Y0077045D02*
X0118595Y0077045D01*
X0117848Y0077643D02*
X0104816Y0077643D01*
X0104923Y0078242D02*
X0117677Y0078242D01*
X0117677Y0078840D02*
X0104923Y0078840D01*
X0104923Y0079439D02*
X0117677Y0079439D01*
X0117677Y0080037D02*
X0104923Y0080037D01*
X0104923Y0080636D02*
X0117677Y0080636D01*
X0117677Y0081234D02*
X0104923Y0081234D01*
X0104923Y0081833D02*
X0117677Y0081833D01*
X0117677Y0082431D02*
X0104923Y0082431D01*
X0104923Y0083030D02*
X0117677Y0083030D01*
X0089200Y0096197D02*
X0088600Y0096197D01*
X0088600Y0096796D02*
X0089200Y0096796D01*
X0089200Y0097394D02*
X0088600Y0097394D01*
X0088600Y0097993D02*
X0089200Y0097993D01*
X0089200Y0098591D02*
X0088600Y0098591D01*
X0088600Y0100387D02*
X0089200Y0100387D01*
X0089200Y0100985D02*
X0088600Y0100985D01*
X0088600Y0101584D02*
X0089200Y0101584D01*
X0089200Y0102182D02*
X0088600Y0102182D01*
X0088600Y0102781D02*
X0089200Y0102781D01*
X0089200Y0103379D02*
X0088600Y0103379D01*
X0088600Y0103978D02*
X0089200Y0103978D01*
X0093913Y0105175D02*
X0096319Y0105175D01*
X0095720Y0105773D02*
X0094150Y0105773D01*
X0094150Y0111758D02*
X0095652Y0111758D01*
X0096251Y0112357D02*
X0094150Y0112357D01*
X0093583Y0112955D02*
X0096849Y0112955D01*
X0103850Y0118342D02*
X0126863Y0118342D01*
X0126264Y0118941D02*
X0103850Y0118941D01*
X0103850Y0119539D02*
X0125666Y0119539D01*
X0125067Y0120138D02*
X0103850Y0120138D01*
X0103850Y0120736D02*
X0124469Y0120736D01*
X0123870Y0121335D02*
X0103850Y0121335D01*
X0103850Y0121933D02*
X0123272Y0121933D01*
X0122673Y0122532D02*
X0103850Y0122532D01*
X0103935Y0123130D02*
X0122106Y0123130D01*
X0122106Y0123729D02*
X0103991Y0123729D01*
X0103991Y0124327D02*
X0122106Y0124327D01*
X0122106Y0124926D02*
X0103746Y0124926D01*
X0103381Y0125524D02*
X0122106Y0125524D01*
X0122106Y0126123D02*
X0102723Y0126123D01*
X0099877Y0126123D02*
X0021600Y0126123D01*
X0021600Y0126721D02*
X0032162Y0126721D01*
X0029929Y0127320D02*
X0021600Y0127320D01*
X0021600Y0127918D02*
X0028532Y0127918D01*
X0027495Y0128517D02*
X0021600Y0128517D01*
X0021600Y0129115D02*
X0026473Y0129115D01*
X0025874Y0129714D02*
X0021600Y0129714D01*
X0021600Y0130312D02*
X0025276Y0130312D01*
X0024677Y0130911D02*
X0021600Y0130911D01*
X0021600Y0131509D02*
X0024144Y0131509D01*
X0023799Y0132108D02*
X0021600Y0132108D01*
X0021600Y0132706D02*
X0023453Y0132706D01*
X0023108Y0133305D02*
X0021600Y0133305D01*
X0021600Y0133903D02*
X0022762Y0133903D01*
X0022535Y0134502D02*
X0021600Y0134502D01*
X0021600Y0135100D02*
X0022375Y0135100D01*
X0022214Y0135699D02*
X0021600Y0135699D01*
X0021600Y0136297D02*
X0022054Y0136297D01*
X0021893Y0136896D02*
X0021600Y0136896D01*
X0021600Y0137494D02*
X0021811Y0137494D01*
X0021811Y0138093D02*
X0021600Y0138093D01*
X0021600Y0138691D02*
X0021811Y0138691D01*
X0021811Y0139290D02*
X0021600Y0139290D01*
X0021600Y0139888D02*
X0021811Y0139888D01*
X0021835Y0140487D02*
X0021600Y0140487D01*
X0021600Y0141085D02*
X0021996Y0141085D01*
X0022156Y0141684D02*
X0021600Y0141684D01*
X0021600Y0142282D02*
X0022316Y0142282D01*
X0022477Y0142881D02*
X0021600Y0142881D01*
X0021600Y0143479D02*
X0022637Y0143479D01*
X0022982Y0144078D02*
X0021600Y0144078D01*
X0021600Y0144677D02*
X0023328Y0144677D01*
X0023673Y0145275D02*
X0021600Y0145275D01*
X0021600Y0145874D02*
X0024019Y0145874D01*
X0024460Y0146472D02*
X0021600Y0146472D01*
X0021600Y0147071D02*
X0025059Y0147071D01*
X0025657Y0147669D02*
X0021600Y0147669D01*
X0021600Y0148268D02*
X0026256Y0148268D01*
X0041620Y0148268D02*
X0183647Y0148268D01*
X0183049Y0147669D02*
X0042219Y0147669D01*
X0042817Y0147071D02*
X0087175Y0147071D01*
X0086577Y0146472D02*
X0043416Y0146472D01*
X0043857Y0145874D02*
X0049922Y0145874D01*
X0049649Y0145785D02*
X0050293Y0145994D01*
X0050962Y0146100D01*
X0051000Y0146100D01*
X0051000Y0139100D01*
X0051600Y0139100D01*
X0055600Y0139100D01*
X0055600Y0142138D01*
X0055494Y0142807D01*
X0055285Y0143451D01*
X0054978Y0144054D01*
X0054580Y0144601D01*
X0054101Y0145080D01*
X0053554Y0145478D01*
X0052951Y0145785D01*
X0052307Y0145994D01*
X0051638Y0146100D01*
X0051600Y0146100D01*
X0051600Y0139100D01*
X0051600Y0138500D01*
X0055600Y0138500D01*
X0055600Y0135462D01*
X0055494Y0134793D01*
X0055285Y0134149D01*
X0054978Y0133546D01*
X0054580Y0132999D01*
X0054101Y0132520D01*
X0053554Y0132122D01*
X0052951Y0131815D01*
X0052307Y0131606D01*
X0051638Y0131500D01*
X0051600Y0131500D01*
X0051600Y0138500D01*
X0051000Y0138500D01*
X0051000Y0131500D01*
X0050962Y0131500D01*
X0050293Y0131606D01*
X0049649Y0131815D01*
X0049046Y0132122D01*
X0048499Y0132520D01*
X0048020Y0132999D01*
X0047622Y0133546D01*
X0047315Y0134149D01*
X0047106Y0134793D01*
X0047000Y0135462D01*
X0047000Y0138500D01*
X0051000Y0138500D01*
X0051000Y0139100D01*
X0047000Y0139100D01*
X0047000Y0142138D01*
X0047106Y0142807D01*
X0047315Y0143451D01*
X0047622Y0144054D01*
X0048020Y0144601D01*
X0048499Y0145080D01*
X0049046Y0145478D01*
X0049649Y0145785D01*
X0048767Y0145275D02*
X0044202Y0145275D01*
X0044548Y0144677D02*
X0048095Y0144677D01*
X0047640Y0144078D02*
X0044893Y0144078D01*
X0045238Y0143479D02*
X0047330Y0143479D01*
X0047130Y0142881D02*
X0045399Y0142881D01*
X0045559Y0142282D02*
X0047023Y0142282D01*
X0047000Y0141684D02*
X0045720Y0141684D01*
X0045880Y0141085D02*
X0047000Y0141085D01*
X0047000Y0140487D02*
X0046040Y0140487D01*
X0046065Y0139888D02*
X0047000Y0139888D01*
X0047000Y0139290D02*
X0046065Y0139290D01*
X0046065Y0138691D02*
X0051000Y0138691D01*
X0051000Y0138093D02*
X0051600Y0138093D01*
X0051600Y0138691D02*
X0057000Y0138691D01*
X0057000Y0138093D02*
X0055600Y0138093D01*
X0055600Y0137494D02*
X0057000Y0137494D01*
X0057000Y0136896D02*
X0055600Y0136896D01*
X0055600Y0136297D02*
X0057000Y0136297D01*
X0057000Y0135699D02*
X0055600Y0135699D01*
X0055543Y0135100D02*
X0057000Y0135100D01*
X0057183Y0134502D02*
X0055399Y0134502D01*
X0055160Y0133903D02*
X0057431Y0133903D01*
X0057714Y0133305D02*
X0054802Y0133305D01*
X0054287Y0132706D02*
X0058313Y0132706D01*
X0058977Y0132108D02*
X0053525Y0132108D01*
X0051697Y0131509D02*
X0060422Y0131509D01*
X0062178Y0131509D02*
X0064148Y0131509D01*
X0064738Y0130911D02*
X0043198Y0130911D01*
X0043731Y0131509D02*
X0050903Y0131509D01*
X0051000Y0131509D02*
X0051600Y0131509D01*
X0051600Y0132108D02*
X0051000Y0132108D01*
X0051000Y0132706D02*
X0051600Y0132706D01*
X0051600Y0133305D02*
X0051000Y0133305D01*
X0051000Y0133903D02*
X0051600Y0133903D01*
X0051600Y0134502D02*
X0051000Y0134502D01*
X0051000Y0135100D02*
X0051600Y0135100D01*
X0051600Y0135699D02*
X0051000Y0135699D01*
X0051000Y0136297D02*
X0051600Y0136297D01*
X0051600Y0136896D02*
X0051000Y0136896D01*
X0051000Y0137494D02*
X0051600Y0137494D01*
X0051600Y0139290D02*
X0051000Y0139290D01*
X0051000Y0139888D02*
X0051600Y0139888D01*
X0051600Y0140487D02*
X0051000Y0140487D01*
X0051000Y0141085D02*
X0051600Y0141085D01*
X0051600Y0141684D02*
X0051000Y0141684D01*
X0051000Y0142282D02*
X0051600Y0142282D01*
X0051600Y0142881D02*
X0051000Y0142881D01*
X0051000Y0143479D02*
X0051600Y0143479D01*
X0051600Y0144078D02*
X0051000Y0144078D01*
X0051000Y0144677D02*
X0051600Y0144677D01*
X0051600Y0145275D02*
X0051000Y0145275D01*
X0051000Y0145874D02*
X0051600Y0145874D01*
X0052678Y0145874D02*
X0059898Y0145874D01*
X0058694Y0145275D02*
X0053833Y0145275D01*
X0054505Y0144677D02*
X0058095Y0144677D01*
X0057589Y0144078D02*
X0054960Y0144078D01*
X0055270Y0143479D02*
X0057341Y0143479D01*
X0057093Y0142881D02*
X0055470Y0142881D01*
X0055577Y0142282D02*
X0057000Y0142282D01*
X0057000Y0141684D02*
X0055600Y0141684D01*
X0055600Y0141085D02*
X0057000Y0141085D01*
X0057000Y0140487D02*
X0055600Y0140487D01*
X0055600Y0139888D02*
X0057000Y0139888D01*
X0057000Y0139290D02*
X0055600Y0139290D01*
X0047000Y0138093D02*
X0046065Y0138093D01*
X0046065Y0137494D02*
X0047000Y0137494D01*
X0047000Y0136896D02*
X0045982Y0136896D01*
X0045822Y0136297D02*
X0047000Y0136297D01*
X0047000Y0135699D02*
X0045661Y0135699D01*
X0045501Y0135100D02*
X0047057Y0135100D01*
X0047201Y0134502D02*
X0045341Y0134502D01*
X0045113Y0133903D02*
X0047440Y0133903D01*
X0047798Y0133305D02*
X0044768Y0133305D01*
X0044422Y0132706D02*
X0048313Y0132706D01*
X0049075Y0132108D02*
X0044077Y0132108D01*
X0042600Y0130312D02*
X0065336Y0130312D01*
X0066545Y0133903D02*
X0069940Y0133903D01*
X0069701Y0134502D02*
X0065946Y0134502D01*
X0065600Y0135100D02*
X0069557Y0135100D01*
X0069500Y0135699D02*
X0065600Y0135699D01*
X0065600Y0136297D02*
X0069500Y0136297D01*
X0069500Y0136896D02*
X0065600Y0136896D01*
X0065600Y0137494D02*
X0069500Y0137494D01*
X0069500Y0138093D02*
X0065600Y0138093D01*
X0065600Y0138691D02*
X0073500Y0138691D01*
X0073500Y0139290D02*
X0074100Y0139290D01*
X0074100Y0139100D02*
X0074100Y0146100D01*
X0074138Y0146100D01*
X0074807Y0145994D01*
X0075451Y0145785D01*
X0076054Y0145478D01*
X0076601Y0145080D01*
X0077080Y0144601D01*
X0077478Y0144054D01*
X0077785Y0143451D01*
X0077994Y0142807D01*
X0078100Y0142138D01*
X0078100Y0139100D01*
X0074100Y0139100D01*
X0074100Y0138691D02*
X0079500Y0138691D01*
X0079500Y0138093D02*
X0078100Y0138093D01*
X0078100Y0137494D02*
X0079500Y0137494D01*
X0079500Y0136896D02*
X0078100Y0136896D01*
X0078100Y0136297D02*
X0079500Y0136297D01*
X0079500Y0135699D02*
X0078100Y0135699D01*
X0078043Y0135100D02*
X0079500Y0135100D01*
X0079683Y0134502D02*
X0077899Y0134502D01*
X0077660Y0133903D02*
X0079931Y0133903D01*
X0087716Y0130312D02*
X0122106Y0130312D01*
X0122106Y0129714D02*
X0042001Y0129714D01*
X0041403Y0129115D02*
X0122106Y0129115D01*
X0122106Y0128517D02*
X0040380Y0128517D01*
X0039343Y0127918D02*
X0122106Y0127918D01*
X0122106Y0127320D02*
X0037947Y0127320D01*
X0035713Y0126721D02*
X0122106Y0126721D01*
X0122106Y0130911D02*
X0088315Y0130911D01*
X0088913Y0131509D02*
X0122106Y0131509D01*
X0122106Y0132108D02*
X0089512Y0132108D01*
X0090110Y0132706D02*
X0122106Y0132706D01*
X0121900Y0133305D02*
X0090709Y0133305D01*
X0091307Y0133903D02*
X0121301Y0133903D01*
X0120703Y0134502D02*
X0091906Y0134502D01*
X0092504Y0135100D02*
X0120104Y0135100D01*
X0119506Y0135699D02*
X0093103Y0135699D01*
X0093702Y0136297D02*
X0118907Y0136297D01*
X0118309Y0136896D02*
X0094300Y0136896D01*
X0094899Y0137494D02*
X0117710Y0137494D01*
X0117112Y0138093D02*
X0095497Y0138093D01*
X0096096Y0138691D02*
X0116513Y0138691D01*
X0115915Y0139290D02*
X0096694Y0139290D01*
X0085978Y0145874D02*
X0085202Y0145874D01*
X0082398Y0145874D02*
X0075178Y0145874D01*
X0074100Y0145874D02*
X0073500Y0145874D01*
X0073500Y0145275D02*
X0074100Y0145275D01*
X0074100Y0144677D02*
X0073500Y0144677D01*
X0073500Y0144078D02*
X0074100Y0144078D01*
X0074100Y0143479D02*
X0073500Y0143479D01*
X0073500Y0142881D02*
X0074100Y0142881D01*
X0074100Y0142282D02*
X0073500Y0142282D01*
X0073500Y0141684D02*
X0074100Y0141684D01*
X0074100Y0141085D02*
X0073500Y0141085D01*
X0073500Y0140487D02*
X0074100Y0140487D01*
X0074100Y0139888D02*
X0073500Y0139888D01*
X0069500Y0139888D02*
X0065600Y0139888D01*
X0065600Y0139290D02*
X0069500Y0139290D01*
X0069500Y0140487D02*
X0065600Y0140487D01*
X0065600Y0141085D02*
X0069500Y0141085D01*
X0069500Y0141684D02*
X0065600Y0141684D01*
X0065600Y0142282D02*
X0069523Y0142282D01*
X0069630Y0142881D02*
X0065507Y0142881D01*
X0065259Y0143479D02*
X0069830Y0143479D01*
X0070140Y0144078D02*
X0065011Y0144078D01*
X0064505Y0144677D02*
X0070595Y0144677D01*
X0071267Y0145275D02*
X0063906Y0145275D01*
X0062702Y0145874D02*
X0072422Y0145874D01*
X0076333Y0145275D02*
X0081194Y0145275D01*
X0080595Y0144677D02*
X0077005Y0144677D01*
X0077460Y0144078D02*
X0080089Y0144078D01*
X0079841Y0143479D02*
X0077770Y0143479D01*
X0077970Y0142881D02*
X0079593Y0142881D01*
X0079500Y0142282D02*
X0078077Y0142282D01*
X0078100Y0141684D02*
X0079500Y0141684D01*
X0079500Y0141085D02*
X0078100Y0141085D01*
X0078100Y0140487D02*
X0079500Y0140487D01*
X0079500Y0139888D02*
X0078100Y0139888D01*
X0078100Y0139290D02*
X0079500Y0139290D01*
X0099219Y0125524D02*
X0021600Y0125524D01*
X0021600Y0124926D02*
X0098854Y0124926D01*
X0098609Y0124327D02*
X0021600Y0124327D01*
X0021600Y0123729D02*
X0098609Y0123729D01*
X0098665Y0123130D02*
X0021600Y0123130D01*
X0021600Y0115349D02*
X0032747Y0115349D01*
X0032149Y0114751D02*
X0021600Y0114751D01*
X0021600Y0114152D02*
X0032000Y0114152D01*
X0032000Y0113554D02*
X0021600Y0113554D01*
X0021600Y0112955D02*
X0032000Y0112955D01*
X0032000Y0112357D02*
X0021600Y0112357D01*
X0021600Y0111758D02*
X0032000Y0111758D01*
X0032000Y0111160D02*
X0021600Y0111160D01*
X0021600Y0110561D02*
X0032000Y0110561D01*
X0032000Y0109963D02*
X0021600Y0109963D01*
X0021600Y0109364D02*
X0032000Y0109364D01*
X0032000Y0108766D02*
X0021600Y0108766D01*
X0021600Y0108167D02*
X0032000Y0108167D01*
X0032000Y0107569D02*
X0021600Y0107569D01*
X0021600Y0096197D02*
X0068802Y0096197D01*
X0068203Y0095599D02*
X0062349Y0095599D01*
X0063760Y0095000D02*
X0067605Y0095000D01*
X0067006Y0094402D02*
X0064358Y0094402D01*
X0064950Y0093803D02*
X0066408Y0093803D01*
X0065809Y0093205D02*
X0065198Y0093205D01*
X0074191Y0096796D02*
X0074499Y0096796D01*
X0078518Y0100387D02*
X0083650Y0100387D01*
X0083650Y0100985D02*
X0077920Y0100985D01*
X0057555Y0106970D02*
X0040045Y0106970D01*
X0040600Y0107569D02*
X0057000Y0107569D01*
X0057000Y0108167D02*
X0040600Y0108167D01*
X0040600Y0114152D02*
X0057000Y0114152D01*
X0057149Y0114751D02*
X0040451Y0114751D01*
X0039853Y0115349D02*
X0057747Y0115349D01*
X0035251Y0095599D02*
X0021600Y0095599D01*
X0021600Y0095000D02*
X0033840Y0095000D01*
X0033242Y0094402D02*
X0021600Y0094402D01*
X0021600Y0093803D02*
X0032650Y0093803D01*
X0032402Y0093205D02*
X0021600Y0093205D01*
X0021600Y0092606D02*
X0030211Y0092606D01*
X0029612Y0092008D02*
X0021600Y0092008D01*
X0021600Y0091409D02*
X0029014Y0091409D01*
X0028415Y0090810D02*
X0021600Y0090810D01*
X0021600Y0090212D02*
X0027817Y0090212D01*
X0027218Y0089613D02*
X0021600Y0089613D01*
X0021600Y0089015D02*
X0026620Y0089015D01*
X0026021Y0088416D02*
X0021600Y0088416D01*
X0021600Y0087818D02*
X0025787Y0087818D01*
X0025787Y0087219D02*
X0021600Y0087219D01*
X0021600Y0086621D02*
X0025787Y0086621D01*
X0025787Y0086022D02*
X0021600Y0086022D01*
X0021600Y0085424D02*
X0025787Y0085424D01*
X0025787Y0084825D02*
X0021600Y0084825D01*
X0021600Y0084227D02*
X0025787Y0084227D01*
X0025787Y0083628D02*
X0021600Y0083628D01*
X0021600Y0083030D02*
X0025787Y0083030D01*
X0025787Y0082431D02*
X0021600Y0082431D01*
X0021600Y0081833D02*
X0025787Y0081833D01*
X0025787Y0081234D02*
X0021600Y0081234D01*
X0021600Y0080636D02*
X0025787Y0080636D01*
X0025787Y0080037D02*
X0021600Y0080037D01*
X0021600Y0079439D02*
X0025787Y0079439D01*
X0025787Y0078840D02*
X0021600Y0078840D01*
X0021600Y0078242D02*
X0025787Y0078242D01*
X0025787Y0077643D02*
X0021600Y0077643D01*
X0021600Y0077045D02*
X0025787Y0077045D01*
X0025787Y0076446D02*
X0021600Y0076446D01*
X0021600Y0075848D02*
X0025787Y0075848D01*
X0025787Y0075249D02*
X0021600Y0075249D01*
X0021600Y0074651D02*
X0025787Y0074651D01*
X0025787Y0074052D02*
X0021600Y0074052D01*
X0021600Y0073454D02*
X0025787Y0073454D01*
X0025787Y0072855D02*
X0021600Y0072855D01*
X0021600Y0072257D02*
X0025787Y0072257D01*
X0025787Y0071658D02*
X0021600Y0071658D01*
X0021600Y0071060D02*
X0025787Y0071060D01*
X0025787Y0070461D02*
X0021600Y0070461D01*
X0021600Y0069863D02*
X0025787Y0069863D01*
X0025787Y0069264D02*
X0021600Y0069264D01*
X0021600Y0068666D02*
X0025787Y0068666D01*
X0025787Y0068067D02*
X0021600Y0068067D01*
X0021600Y0067469D02*
X0025787Y0067469D01*
X0025787Y0066870D02*
X0021600Y0066870D01*
X0021600Y0066272D02*
X0025787Y0066272D01*
X0023869Y0065673D02*
X0021600Y0065673D01*
X0021600Y0065074D02*
X0022569Y0065074D01*
X0021971Y0064476D02*
X0021600Y0064476D01*
X0021600Y0059089D02*
X0022147Y0059089D01*
X0021600Y0058491D02*
X0022850Y0058491D01*
X0032112Y0058491D02*
X0052850Y0058491D01*
X0052147Y0059089D02*
X0032815Y0059089D01*
X0033398Y0059688D02*
X0051564Y0059688D01*
X0051316Y0060286D02*
X0033646Y0060286D01*
X0033894Y0060885D02*
X0051068Y0060885D01*
X0050981Y0061483D02*
X0033981Y0061483D01*
X0033981Y0062082D02*
X0050981Y0062082D01*
X0050995Y0062680D02*
X0033967Y0062680D01*
X0033719Y0063279D02*
X0051243Y0063279D01*
X0051491Y0063877D02*
X0033471Y0063877D01*
X0032991Y0064476D02*
X0051971Y0064476D01*
X0051893Y0065074D02*
X0052569Y0065074D01*
X0052265Y0065673D02*
X0053869Y0065673D01*
X0045707Y0065074D02*
X0032393Y0065074D01*
X0031093Y0065673D02*
X0045335Y0065673D01*
X0045335Y0066272D02*
X0029175Y0066272D01*
X0029175Y0066870D02*
X0045335Y0066870D01*
X0045335Y0067469D02*
X0029175Y0067469D01*
X0029175Y0068067D02*
X0045335Y0068067D01*
X0045335Y0068666D02*
X0029175Y0068666D01*
X0029175Y0069264D02*
X0045335Y0069264D01*
X0045934Y0071060D02*
X0029175Y0071060D01*
X0029175Y0071658D02*
X0045816Y0071658D01*
X0045335Y0072257D02*
X0029175Y0072257D01*
X0029175Y0072855D02*
X0045335Y0072855D01*
X0045335Y0073454D02*
X0029175Y0073454D01*
X0029175Y0074052D02*
X0045335Y0074052D01*
X0045335Y0074651D02*
X0029175Y0074651D01*
X0029175Y0075249D02*
X0045335Y0075249D01*
X0045335Y0075848D02*
X0029175Y0075848D01*
X0029175Y0076446D02*
X0045335Y0076446D01*
X0045335Y0077045D02*
X0029175Y0077045D01*
X0029175Y0077643D02*
X0034462Y0077643D01*
X0033513Y0078242D02*
X0029175Y0078242D01*
X0029175Y0078840D02*
X0032915Y0078840D01*
X0032514Y0079439D02*
X0029175Y0079439D01*
X0029175Y0080037D02*
X0032267Y0080037D01*
X0032019Y0080636D02*
X0029175Y0080636D01*
X0029175Y0081234D02*
X0032000Y0081234D01*
X0032000Y0081833D02*
X0029175Y0081833D01*
X0029175Y0082431D02*
X0032016Y0082431D01*
X0032264Y0083030D02*
X0029175Y0083030D01*
X0029175Y0083628D02*
X0032512Y0083628D01*
X0032910Y0084227D02*
X0029175Y0084227D01*
X0029175Y0084825D02*
X0033508Y0084825D01*
X0034449Y0085424D02*
X0029175Y0085424D01*
X0029615Y0087219D02*
X0035105Y0087219D01*
X0033780Y0087818D02*
X0030213Y0087818D01*
X0030812Y0088416D02*
X0033181Y0088416D01*
X0032625Y0089015D02*
X0031410Y0089015D01*
X0032009Y0089613D02*
X0032377Y0089613D01*
X0039685Y0078840D02*
X0047106Y0078840D01*
X0047106Y0078242D02*
X0039087Y0078242D01*
X0038138Y0077643D02*
X0045824Y0077643D01*
X0074016Y0086621D02*
X0074674Y0086621D01*
X0115238Y0061483D02*
X0135748Y0061483D01*
X0143800Y0058800D02*
X0143800Y0056300D01*
X0141300Y0053800D01*
X0139925Y0051907D02*
X0134170Y0051907D01*
X0133571Y0051309D02*
X0135326Y0051309D01*
X0134405Y0050710D02*
X0132973Y0050710D01*
X0132374Y0050112D02*
X0133931Y0050112D01*
X0133683Y0049513D02*
X0131776Y0049513D01*
X0131491Y0048915D02*
X0133609Y0048915D01*
X0133421Y0048316D02*
X0131491Y0048316D01*
X0134620Y0044725D02*
X0138583Y0044725D01*
X0138583Y0044127D02*
X0134022Y0044127D01*
X0133423Y0043528D02*
X0138583Y0043528D01*
X0138583Y0042930D02*
X0132825Y0042930D01*
X0132226Y0042331D02*
X0138583Y0042331D01*
X0141970Y0042331D02*
X0171733Y0042331D01*
X0171135Y0042930D02*
X0141970Y0042930D01*
X0141970Y0043528D02*
X0170536Y0043528D01*
X0169938Y0044127D02*
X0141970Y0044127D01*
X0141970Y0044725D02*
X0169339Y0044725D01*
X0168741Y0045324D02*
X0141970Y0045324D01*
X0141970Y0045922D02*
X0168142Y0045922D01*
X0167544Y0046521D02*
X0164830Y0046521D01*
X0165655Y0047119D02*
X0166945Y0047119D01*
X0166347Y0047718D02*
X0166253Y0047718D01*
X0169827Y0051309D02*
X0189728Y0051309D01*
X0189655Y0051236D02*
X0189000Y0049655D01*
X0189000Y0047945D01*
X0189655Y0046364D01*
X0190864Y0045155D01*
X0192445Y0044500D01*
X0200155Y0044500D01*
X0201736Y0045155D01*
X0202945Y0046364D01*
X0203600Y0047945D01*
X0203600Y0049655D01*
X0202945Y0051236D01*
X0201736Y0052445D01*
X0200155Y0053100D01*
X0192445Y0053100D01*
X0190864Y0052445D01*
X0189655Y0051236D01*
X0189437Y0050710D02*
X0170425Y0050710D01*
X0171024Y0050112D02*
X0189189Y0050112D01*
X0189000Y0049513D02*
X0171622Y0049513D01*
X0172221Y0048915D02*
X0189000Y0048915D01*
X0189000Y0048316D02*
X0172819Y0048316D01*
X0173418Y0047718D02*
X0189094Y0047718D01*
X0189342Y0047119D02*
X0174016Y0047119D01*
X0174615Y0046521D02*
X0189590Y0046521D01*
X0190097Y0045922D02*
X0175213Y0045922D01*
X0175812Y0045324D02*
X0190695Y0045324D01*
X0191901Y0044725D02*
X0176410Y0044725D01*
X0177009Y0044127D02*
X0204701Y0044127D01*
X0204701Y0044725D02*
X0200699Y0044725D01*
X0201905Y0045324D02*
X0204701Y0045324D01*
X0204701Y0045922D02*
X0202503Y0045922D01*
X0203010Y0046521D02*
X0204701Y0046521D01*
X0204701Y0047119D02*
X0203258Y0047119D01*
X0203506Y0047718D02*
X0204701Y0047718D01*
X0204701Y0048316D02*
X0203600Y0048316D01*
X0203600Y0048915D02*
X0204701Y0048915D01*
X0204701Y0049513D02*
X0203600Y0049513D01*
X0203411Y0050112D02*
X0204701Y0050112D01*
X0204701Y0050710D02*
X0203163Y0050710D01*
X0202872Y0051309D02*
X0204701Y0051309D01*
X0204701Y0051907D02*
X0202274Y0051907D01*
X0201590Y0052506D02*
X0204701Y0052506D01*
X0204701Y0053104D02*
X0168800Y0053104D01*
X0168800Y0052506D02*
X0191010Y0052506D01*
X0190326Y0051907D02*
X0169228Y0051907D01*
X0168800Y0053703D02*
X0204701Y0053703D01*
X0204701Y0054301D02*
X0168800Y0054301D01*
X0168800Y0054900D02*
X0191483Y0054900D01*
X0191649Y0054815D02*
X0192293Y0054606D01*
X0192962Y0054500D01*
X0196000Y0054500D01*
X0196000Y0058500D01*
X0196600Y0058500D01*
X0196600Y0059100D01*
X0196000Y0059100D01*
X0196000Y0063100D01*
X0192962Y0063100D01*
X0192293Y0062994D01*
X0191649Y0062785D01*
X0191046Y0062478D01*
X0190499Y0062080D01*
X0190020Y0061601D01*
X0189622Y0061054D01*
X0189315Y0060451D01*
X0189106Y0059807D01*
X0189000Y0059138D01*
X0189000Y0059100D01*
X0196000Y0059100D01*
X0196000Y0058500D01*
X0189000Y0058500D01*
X0189000Y0058462D01*
X0189106Y0057793D01*
X0189315Y0057149D01*
X0189622Y0056546D01*
X0190020Y0055999D01*
X0190499Y0055520D01*
X0191046Y0055122D01*
X0191649Y0054815D01*
X0190529Y0055498D02*
X0168800Y0055498D01*
X0168800Y0056097D02*
X0189949Y0056097D01*
X0189546Y0056695D02*
X0168800Y0056695D01*
X0168800Y0057294D02*
X0189268Y0057294D01*
X0189090Y0057892D02*
X0168800Y0057892D01*
X0168800Y0058491D02*
X0189000Y0058491D01*
X0189087Y0059688D02*
X0168800Y0059688D01*
X0168800Y0060286D02*
X0189262Y0060286D01*
X0189536Y0060885D02*
X0168991Y0060885D01*
X0168991Y0061483D02*
X0189935Y0061483D01*
X0190502Y0062082D02*
X0168888Y0062082D01*
X0168640Y0062680D02*
X0191444Y0062680D01*
X0196000Y0062680D02*
X0196600Y0062680D01*
X0196600Y0063100D02*
X0196600Y0059100D01*
X0203600Y0059100D01*
X0203600Y0059138D01*
X0203494Y0059807D01*
X0203285Y0060451D01*
X0202978Y0061054D01*
X0202580Y0061601D01*
X0202101Y0062080D01*
X0201554Y0062478D01*
X0200951Y0062785D01*
X0200307Y0062994D01*
X0199638Y0063100D01*
X0196600Y0063100D01*
X0196600Y0062082D02*
X0196000Y0062082D01*
X0196000Y0061483D02*
X0196600Y0061483D01*
X0196600Y0060885D02*
X0196000Y0060885D01*
X0196000Y0060286D02*
X0196600Y0060286D01*
X0196600Y0059688D02*
X0196000Y0059688D01*
X0196000Y0059089D02*
X0168800Y0059089D01*
X0168126Y0063279D02*
X0204701Y0063279D01*
X0204701Y0063877D02*
X0167108Y0063877D01*
X0148903Y0060885D02*
X0145520Y0060885D01*
X0146097Y0060286D02*
X0148305Y0060286D01*
X0147706Y0059688D02*
X0146344Y0059688D01*
X0146491Y0059089D02*
X0147108Y0059089D01*
X0146509Y0058491D02*
X0146491Y0058491D01*
X0139327Y0051309D02*
X0137274Y0051309D01*
X0138195Y0050710D02*
X0138728Y0050710D01*
X0138583Y0047119D02*
X0138424Y0047119D01*
X0138583Y0046521D02*
X0137826Y0046521D01*
X0138583Y0045922D02*
X0135817Y0045922D01*
X0135219Y0045324D02*
X0138583Y0045324D01*
X0141970Y0046521D02*
X0142274Y0046521D01*
X0141970Y0041733D02*
X0172332Y0041733D01*
X0172930Y0041134D02*
X0141970Y0041134D01*
X0141970Y0040536D02*
X0173529Y0040536D01*
X0174127Y0039937D02*
X0141970Y0039937D01*
X0141970Y0039339D02*
X0174726Y0039339D01*
X0175324Y0038740D02*
X0141970Y0038740D01*
X0141970Y0038141D02*
X0175923Y0038141D01*
X0176521Y0037543D02*
X0141970Y0037543D01*
X0141970Y0036944D02*
X0177120Y0036944D01*
X0178192Y0036346D02*
X0141970Y0036346D01*
X0141970Y0035747D02*
X0190271Y0035747D01*
X0190878Y0035149D02*
X0141970Y0035149D01*
X0141970Y0034550D02*
X0192323Y0034550D01*
X0192862Y0032755D02*
X0204701Y0032755D01*
X0204701Y0033353D02*
X0141970Y0033353D01*
X0141970Y0032755D02*
X0189502Y0032755D01*
X0187269Y0032156D02*
X0141970Y0032156D01*
X0141970Y0031558D02*
X0185821Y0031558D01*
X0184784Y0030959D02*
X0141970Y0030959D01*
X0141970Y0030361D02*
X0183747Y0030361D01*
X0183144Y0029762D02*
X0141970Y0029762D01*
X0141970Y0029164D02*
X0182545Y0029164D01*
X0181947Y0028565D02*
X0141970Y0028565D01*
X0141970Y0027967D02*
X0181403Y0027967D01*
X0181058Y0027368D02*
X0141970Y0027368D01*
X0141970Y0026770D02*
X0180712Y0026770D01*
X0180367Y0026171D02*
X0141970Y0026171D01*
X0141970Y0025573D02*
X0180021Y0025573D01*
X0179786Y0024974D02*
X0141970Y0024974D01*
X0141970Y0024376D02*
X0179626Y0024376D01*
X0179465Y0023777D02*
X0141970Y0023777D01*
X0141970Y0023179D02*
X0179305Y0023179D01*
X0179144Y0022580D02*
X0141970Y0022580D01*
X0141877Y0021982D02*
X0179055Y0021982D01*
X0179055Y0021383D02*
X0141491Y0021383D01*
X0141491Y0020785D02*
X0179055Y0020785D01*
X0179055Y0020186D02*
X0141251Y0020186D01*
X0140893Y0019588D02*
X0179055Y0019588D01*
X0179072Y0018989D02*
X0140252Y0018989D01*
X0141970Y0033952D02*
X0204701Y0033952D01*
X0204701Y0034550D02*
X0200277Y0034550D01*
X0201722Y0035149D02*
X0204701Y0035149D01*
X0204701Y0035747D02*
X0202329Y0035747D01*
X0202927Y0036346D02*
X0204701Y0036346D01*
X0204701Y0036944D02*
X0203186Y0036944D01*
X0203434Y0037543D02*
X0204701Y0037543D01*
X0204701Y0038141D02*
X0203600Y0038141D01*
X0203600Y0038740D02*
X0204701Y0038740D01*
X0204701Y0039339D02*
X0203600Y0039339D01*
X0203483Y0039937D02*
X0204701Y0039937D01*
X0204701Y0040536D02*
X0203235Y0040536D01*
X0202987Y0041134D02*
X0204701Y0041134D01*
X0204701Y0041733D02*
X0202449Y0041733D01*
X0201850Y0042331D02*
X0204701Y0042331D01*
X0204701Y0042930D02*
X0200567Y0042930D01*
X0204701Y0043528D02*
X0177607Y0043528D01*
X0178206Y0042930D02*
X0192033Y0042930D01*
X0190750Y0042331D02*
X0178804Y0042331D01*
X0179403Y0041733D02*
X0190151Y0041733D01*
X0195095Y0032156D02*
X0204701Y0032156D01*
X0204701Y0031558D02*
X0196543Y0031558D01*
X0197580Y0030959D02*
X0204701Y0030959D01*
X0204701Y0030361D02*
X0198616Y0030361D01*
X0199220Y0029762D02*
X0204701Y0029762D01*
X0204701Y0029164D02*
X0199818Y0029164D01*
X0200417Y0028565D02*
X0204701Y0028565D01*
X0204701Y0027967D02*
X0200961Y0027967D01*
X0201306Y0027368D02*
X0204701Y0027368D01*
X0204701Y0026770D02*
X0201652Y0026770D01*
X0201997Y0026171D02*
X0204701Y0026171D01*
X0204701Y0025573D02*
X0202343Y0025573D01*
X0202578Y0024974D02*
X0204701Y0024974D01*
X0204701Y0024376D02*
X0202738Y0024376D01*
X0202899Y0023777D02*
X0204701Y0023777D01*
X0204701Y0023179D02*
X0203059Y0023179D01*
X0203219Y0022580D02*
X0204701Y0022580D01*
X0204701Y0021982D02*
X0203309Y0021982D01*
X0203309Y0021383D02*
X0204701Y0021383D01*
X0204701Y0020785D02*
X0203309Y0020785D01*
X0203309Y0020186D02*
X0204701Y0020186D01*
X0204701Y0019588D02*
X0203309Y0019588D01*
X0203291Y0018989D02*
X0204701Y0018989D01*
X0204701Y0018391D02*
X0203131Y0018391D01*
X0202971Y0017792D02*
X0204701Y0017792D01*
X0204701Y0017194D02*
X0202810Y0017194D01*
X0202650Y0016595D02*
X0204701Y0016595D01*
X0204701Y0015997D02*
X0202489Y0015997D01*
X0202152Y0015398D02*
X0204701Y0015398D01*
X0204701Y0014800D02*
X0201807Y0014800D01*
X0201461Y0014201D02*
X0204701Y0014201D01*
X0204701Y0013603D02*
X0201116Y0013603D01*
X0200685Y0013004D02*
X0204701Y0013004D01*
X0204701Y0012405D02*
X0200087Y0012405D01*
X0199488Y0011807D02*
X0204701Y0011807D01*
X0182875Y0011807D02*
X0042165Y0011807D01*
X0042764Y0012405D02*
X0182277Y0012405D01*
X0181678Y0013004D02*
X0043362Y0013004D01*
X0043826Y0013603D02*
X0181248Y0013603D01*
X0180903Y0014201D02*
X0044172Y0014201D01*
X0044517Y0014800D02*
X0180557Y0014800D01*
X0180212Y0015398D02*
X0044863Y0015398D01*
X0045208Y0015997D02*
X0179874Y0015997D01*
X0179714Y0016595D02*
X0045385Y0016595D01*
X0045545Y0017194D02*
X0179554Y0017194D01*
X0179393Y0017792D02*
X0045705Y0017792D01*
X0045866Y0018391D02*
X0179233Y0018391D01*
X0196600Y0054500D02*
X0199638Y0054500D01*
X0200307Y0054606D01*
X0200951Y0054815D01*
X0201554Y0055122D01*
X0202101Y0055520D01*
X0202580Y0055999D01*
X0202978Y0056546D01*
X0203285Y0057149D01*
X0203494Y0057793D01*
X0203600Y0058462D01*
X0203600Y0058500D01*
X0196600Y0058500D01*
X0196600Y0054500D01*
X0196600Y0054900D02*
X0196000Y0054900D01*
X0196000Y0055498D02*
X0196600Y0055498D01*
X0196600Y0056097D02*
X0196000Y0056097D01*
X0196000Y0056695D02*
X0196600Y0056695D01*
X0196600Y0057294D02*
X0196000Y0057294D01*
X0196000Y0057892D02*
X0196600Y0057892D01*
X0196600Y0058491D02*
X0196000Y0058491D01*
X0196600Y0059089D02*
X0204701Y0059089D01*
X0204701Y0058491D02*
X0203600Y0058491D01*
X0203510Y0057892D02*
X0204701Y0057892D01*
X0204701Y0057294D02*
X0203332Y0057294D01*
X0203054Y0056695D02*
X0204701Y0056695D01*
X0204701Y0056097D02*
X0202651Y0056097D01*
X0202071Y0055498D02*
X0204701Y0055498D01*
X0204701Y0054900D02*
X0201117Y0054900D01*
X0203513Y0059688D02*
X0204701Y0059688D01*
X0204701Y0060286D02*
X0203338Y0060286D01*
X0203064Y0060885D02*
X0204701Y0060885D01*
X0204701Y0061483D02*
X0202665Y0061483D01*
X0202098Y0062082D02*
X0204701Y0062082D01*
X0204701Y0062680D02*
X0201156Y0062680D01*
X0204701Y0103978D02*
X0147724Y0103978D01*
X0148381Y0104576D02*
X0204701Y0104576D01*
X0204701Y0105175D02*
X0148746Y0105175D01*
X0148991Y0105773D02*
X0204701Y0105773D01*
X0204701Y0106372D02*
X0148991Y0106372D01*
X0148935Y0106970D02*
X0204701Y0106970D01*
X0204701Y0107569D02*
X0148687Y0107569D01*
X0148238Y0108167D02*
X0204701Y0108167D01*
X0204701Y0108766D02*
X0147378Y0108766D01*
X0145631Y0109364D02*
X0204701Y0109364D01*
X0204701Y0109963D02*
X0145032Y0109963D01*
X0144434Y0110561D02*
X0204701Y0110561D01*
X0204701Y0111160D02*
X0143835Y0111160D01*
X0143237Y0111758D02*
X0204701Y0111758D01*
X0204701Y0112357D02*
X0142638Y0112357D01*
X0142040Y0112955D02*
X0204701Y0112955D01*
X0204701Y0113554D02*
X0141441Y0113554D01*
X0140843Y0114152D02*
X0204701Y0114152D01*
X0204701Y0114751D02*
X0140244Y0114751D01*
X0139646Y0115349D02*
X0204701Y0115349D01*
X0204701Y0115948D02*
X0139047Y0115948D01*
X0138449Y0116546D02*
X0204701Y0116546D01*
X0204701Y0117145D02*
X0137850Y0117145D01*
X0137252Y0117743D02*
X0204701Y0117743D01*
X0204701Y0118342D02*
X0136653Y0118342D01*
X0136055Y0118941D02*
X0204701Y0118941D01*
X0204701Y0119539D02*
X0135456Y0119539D01*
X0134858Y0120138D02*
X0204701Y0120138D01*
X0204701Y0120736D02*
X0134259Y0120736D01*
X0133661Y0121335D02*
X0204701Y0121335D01*
X0204701Y0121933D02*
X0133062Y0121933D01*
X0132464Y0122532D02*
X0204701Y0122532D01*
X0204701Y0123130D02*
X0131865Y0123130D01*
X0131267Y0123729D02*
X0135477Y0123729D01*
X0134468Y0124327D02*
X0130668Y0124327D01*
X0130494Y0124926D02*
X0133957Y0124926D01*
X0133709Y0125524D02*
X0130494Y0125524D01*
X0130494Y0126123D02*
X0133609Y0126123D01*
X0133609Y0126721D02*
X0130494Y0126721D01*
X0130494Y0127320D02*
X0133810Y0127320D01*
X0134113Y0127918D02*
X0130494Y0127918D01*
X0130494Y0128517D02*
X0134500Y0128517D01*
X0134500Y0129115D02*
X0130494Y0129115D01*
X0130494Y0129714D02*
X0134500Y0129714D01*
X0134500Y0130312D02*
X0130494Y0130312D01*
X0130494Y0130911D02*
X0134144Y0130911D01*
X0132922Y0131509D02*
X0130494Y0131509D01*
X0130494Y0132108D02*
X0131477Y0132108D01*
X0130813Y0132706D02*
X0130494Y0132706D01*
X0129500Y0135699D02*
X0129296Y0135699D01*
X0129500Y0136297D02*
X0128698Y0136297D01*
X0128099Y0136896D02*
X0129500Y0136896D01*
X0129500Y0137494D02*
X0127501Y0137494D01*
X0126902Y0138093D02*
X0129500Y0138093D01*
X0129500Y0138691D02*
X0126304Y0138691D01*
X0125705Y0139290D02*
X0129500Y0139290D01*
X0129500Y0139888D02*
X0125107Y0139888D01*
X0124508Y0140487D02*
X0129500Y0140487D01*
X0129500Y0141085D02*
X0123910Y0141085D01*
X0123311Y0141684D02*
X0129500Y0141684D01*
X0129500Y0142282D02*
X0122713Y0142282D01*
X0122114Y0142881D02*
X0129593Y0142881D01*
X0129841Y0143479D02*
X0121516Y0143479D01*
X0120917Y0144078D02*
X0130089Y0144078D01*
X0130595Y0144677D02*
X0120319Y0144677D01*
X0119720Y0145275D02*
X0131194Y0145275D01*
X0132398Y0145874D02*
X0119122Y0145874D01*
X0118523Y0146472D02*
X0181852Y0146472D01*
X0181448Y0145874D02*
X0155178Y0145874D01*
X0155451Y0145785D02*
X0154807Y0145994D01*
X0154138Y0146100D01*
X0154100Y0146100D01*
X0154100Y0139100D01*
X0153500Y0139100D01*
X0153500Y0146100D01*
X0153462Y0146100D01*
X0152793Y0145994D01*
X0152149Y0145785D01*
X0151546Y0145478D01*
X0150999Y0145080D01*
X0150520Y0144601D01*
X0150122Y0144054D01*
X0149815Y0143451D01*
X0149606Y0142807D01*
X0149500Y0142138D01*
X0149500Y0139100D01*
X0153500Y0139100D01*
X0153500Y0138500D01*
X0149500Y0138500D01*
X0149500Y0135462D01*
X0149606Y0134793D01*
X0149815Y0134149D01*
X0150122Y0133546D01*
X0150520Y0132999D01*
X0150999Y0132520D01*
X0151546Y0132122D01*
X0152149Y0131815D01*
X0152793Y0131606D01*
X0153462Y0131500D01*
X0153500Y0131500D01*
X0153500Y0138500D01*
X0154100Y0138500D01*
X0154100Y0139100D01*
X0158100Y0139100D01*
X0158100Y0142138D01*
X0157994Y0142807D01*
X0157785Y0143451D01*
X0157478Y0144054D01*
X0157080Y0144601D01*
X0156601Y0145080D01*
X0156054Y0145478D01*
X0155451Y0145785D01*
X0156333Y0145275D02*
X0181103Y0145275D01*
X0180757Y0144677D02*
X0157005Y0144677D01*
X0157460Y0144078D02*
X0180411Y0144078D01*
X0180094Y0143479D02*
X0157770Y0143479D01*
X0157970Y0142881D02*
X0179933Y0142881D01*
X0179773Y0142282D02*
X0158077Y0142282D01*
X0158100Y0141684D02*
X0179613Y0141684D01*
X0179452Y0141085D02*
X0158100Y0141085D01*
X0158100Y0140487D02*
X0179292Y0140487D01*
X0179291Y0139888D02*
X0158100Y0139888D01*
X0158100Y0139290D02*
X0179291Y0139290D01*
X0179291Y0138691D02*
X0154100Y0138691D01*
X0154100Y0138500D02*
X0158100Y0138500D01*
X0158100Y0135462D01*
X0157994Y0134793D01*
X0157785Y0134149D01*
X0157478Y0133546D01*
X0157080Y0132999D01*
X0156601Y0132520D01*
X0156054Y0132122D01*
X0155451Y0131815D01*
X0154807Y0131606D01*
X0154138Y0131500D01*
X0154100Y0131500D01*
X0154100Y0138500D01*
X0154100Y0138093D02*
X0153500Y0138093D01*
X0153500Y0138691D02*
X0148100Y0138691D01*
X0148100Y0138093D02*
X0149500Y0138093D01*
X0149500Y0137494D02*
X0148100Y0137494D01*
X0148100Y0136896D02*
X0149500Y0136896D01*
X0149500Y0136297D02*
X0148100Y0136297D01*
X0148100Y0135699D02*
X0149500Y0135699D01*
X0149557Y0135100D02*
X0148100Y0135100D01*
X0148100Y0134945D02*
X0148100Y0142655D01*
X0147445Y0144236D01*
X0146236Y0145445D01*
X0144655Y0146100D01*
X0142945Y0146100D01*
X0141364Y0145445D01*
X0140155Y0144236D01*
X0139500Y0142655D01*
X0139500Y0134945D01*
X0140155Y0133364D01*
X0141364Y0132155D01*
X0142000Y0131891D01*
X0142000Y0128305D01*
X0141519Y0127824D01*
X0141109Y0126835D01*
X0141109Y0125765D01*
X0141519Y0124776D01*
X0142276Y0124019D01*
X0143265Y0123609D01*
X0144335Y0123609D01*
X0145324Y0124019D01*
X0146081Y0124776D01*
X0146491Y0125765D01*
X0146491Y0126835D01*
X0146081Y0127824D01*
X0145600Y0128305D01*
X0145600Y0131891D01*
X0146236Y0132155D01*
X0147445Y0133364D01*
X0148100Y0134945D01*
X0147917Y0134502D02*
X0149701Y0134502D01*
X0149940Y0133903D02*
X0147669Y0133903D01*
X0147386Y0133305D02*
X0150298Y0133305D01*
X0150813Y0132706D02*
X0146787Y0132706D01*
X0146123Y0132108D02*
X0151575Y0132108D01*
X0153403Y0131509D02*
X0145600Y0131509D01*
X0145600Y0130911D02*
X0182246Y0130911D01*
X0181676Y0131509D02*
X0154197Y0131509D01*
X0154100Y0131509D02*
X0153500Y0131509D01*
X0153500Y0132108D02*
X0154100Y0132108D01*
X0154100Y0132706D02*
X0153500Y0132706D01*
X0153500Y0133305D02*
X0154100Y0133305D01*
X0154100Y0133903D02*
X0153500Y0133903D01*
X0153500Y0134502D02*
X0154100Y0134502D01*
X0154100Y0135100D02*
X0153500Y0135100D01*
X0153500Y0135699D02*
X0154100Y0135699D01*
X0154100Y0136297D02*
X0153500Y0136297D01*
X0153500Y0136896D02*
X0154100Y0136896D01*
X0154100Y0137494D02*
X0153500Y0137494D01*
X0153500Y0139290D02*
X0154100Y0139290D01*
X0154100Y0139888D02*
X0153500Y0139888D01*
X0153500Y0140487D02*
X0154100Y0140487D01*
X0154100Y0141085D02*
X0153500Y0141085D01*
X0153500Y0141684D02*
X0154100Y0141684D01*
X0154100Y0142282D02*
X0153500Y0142282D01*
X0153500Y0142881D02*
X0154100Y0142881D01*
X0154100Y0143479D02*
X0153500Y0143479D01*
X0153500Y0144078D02*
X0154100Y0144078D01*
X0154100Y0144677D02*
X0153500Y0144677D01*
X0153500Y0145275D02*
X0154100Y0145275D01*
X0154100Y0145874D02*
X0153500Y0145874D01*
X0152422Y0145874D02*
X0145202Y0145874D01*
X0146406Y0145275D02*
X0151267Y0145275D01*
X0150595Y0144677D02*
X0147005Y0144677D01*
X0147511Y0144078D02*
X0150140Y0144078D01*
X0149830Y0143479D02*
X0147759Y0143479D01*
X0148007Y0142881D02*
X0149630Y0142881D01*
X0149523Y0142282D02*
X0148100Y0142282D01*
X0148100Y0141684D02*
X0149500Y0141684D01*
X0149500Y0141085D02*
X0148100Y0141085D01*
X0148100Y0140487D02*
X0149500Y0140487D01*
X0149500Y0139888D02*
X0148100Y0139888D01*
X0148100Y0139290D02*
X0149500Y0139290D01*
X0158100Y0138093D02*
X0179291Y0138093D01*
X0179291Y0137494D02*
X0158100Y0137494D01*
X0158100Y0136896D02*
X0179397Y0136896D01*
X0179558Y0136297D02*
X0158100Y0136297D01*
X0158100Y0135699D02*
X0179718Y0135699D01*
X0179879Y0135100D02*
X0158043Y0135100D01*
X0157899Y0134502D02*
X0180039Y0134502D01*
X0180294Y0133903D02*
X0157660Y0133903D01*
X0157302Y0133305D02*
X0180639Y0133305D01*
X0180985Y0132706D02*
X0156787Y0132706D01*
X0156025Y0132108D02*
X0181330Y0132108D01*
X0182845Y0130312D02*
X0145600Y0130312D01*
X0145600Y0129714D02*
X0183443Y0129714D01*
X0184093Y0129115D02*
X0145600Y0129115D01*
X0145600Y0128517D02*
X0185129Y0128517D01*
X0186166Y0127918D02*
X0145987Y0127918D01*
X0146290Y0127320D02*
X0187740Y0127320D01*
X0195097Y0127320D02*
X0204701Y0127320D01*
X0204701Y0127918D02*
X0196670Y0127918D01*
X0197707Y0128517D02*
X0204701Y0128517D01*
X0204701Y0129115D02*
X0198744Y0129115D01*
X0199393Y0129714D02*
X0204701Y0129714D01*
X0204701Y0130312D02*
X0199992Y0130312D01*
X0200590Y0130911D02*
X0204701Y0130911D01*
X0204701Y0131509D02*
X0201160Y0131509D01*
X0201506Y0132108D02*
X0204701Y0132108D01*
X0204701Y0132706D02*
X0201852Y0132706D01*
X0202197Y0133305D02*
X0204701Y0133305D01*
X0204701Y0133903D02*
X0202543Y0133903D01*
X0202797Y0134502D02*
X0204701Y0134502D01*
X0204701Y0135100D02*
X0202958Y0135100D01*
X0203118Y0135699D02*
X0204701Y0135699D01*
X0204701Y0136297D02*
X0203278Y0136297D01*
X0203439Y0136896D02*
X0204701Y0136896D01*
X0204701Y0137494D02*
X0203545Y0137494D01*
X0203545Y0138093D02*
X0204701Y0138093D01*
X0204701Y0138691D02*
X0203545Y0138691D01*
X0203545Y0139290D02*
X0204701Y0139290D01*
X0204701Y0139888D02*
X0203545Y0139888D01*
X0203544Y0140487D02*
X0204701Y0140487D01*
X0204701Y0141085D02*
X0203384Y0141085D01*
X0203224Y0141684D02*
X0204701Y0141684D01*
X0204701Y0142282D02*
X0203063Y0142282D01*
X0202903Y0142881D02*
X0204701Y0142881D01*
X0204701Y0143479D02*
X0202743Y0143479D01*
X0202425Y0144078D02*
X0204701Y0144078D01*
X0204701Y0144677D02*
X0202079Y0144677D01*
X0201734Y0145275D02*
X0204701Y0145275D01*
X0204701Y0145874D02*
X0201388Y0145874D01*
X0200984Y0146472D02*
X0204701Y0146472D01*
X0204701Y0147071D02*
X0200386Y0147071D01*
X0199787Y0147669D02*
X0204701Y0147669D01*
X0204701Y0148268D02*
X0199189Y0148268D01*
X0182450Y0147071D02*
X0117925Y0147071D01*
X0135202Y0145874D02*
X0142398Y0145874D01*
X0141194Y0145275D02*
X0136406Y0145275D01*
X0137005Y0144677D02*
X0140595Y0144677D01*
X0140089Y0144078D02*
X0137511Y0144078D01*
X0137759Y0143479D02*
X0139841Y0143479D01*
X0139593Y0142881D02*
X0138007Y0142881D01*
X0138100Y0142282D02*
X0139500Y0142282D01*
X0139500Y0141684D02*
X0138100Y0141684D01*
X0138100Y0141085D02*
X0139500Y0141085D01*
X0139500Y0140487D02*
X0138100Y0140487D01*
X0138100Y0139888D02*
X0139500Y0139888D01*
X0139500Y0139290D02*
X0138100Y0139290D01*
X0138100Y0138691D02*
X0139500Y0138691D01*
X0139500Y0138093D02*
X0138100Y0138093D01*
X0138100Y0137494D02*
X0139500Y0137494D01*
X0139500Y0136896D02*
X0138100Y0136896D01*
X0138100Y0136297D02*
X0139500Y0136297D01*
X0139500Y0135699D02*
X0138100Y0135699D01*
X0138100Y0135100D02*
X0139500Y0135100D01*
X0139683Y0134502D02*
X0137917Y0134502D01*
X0137669Y0133903D02*
X0139931Y0133903D01*
X0140214Y0133305D02*
X0137386Y0133305D01*
X0137439Y0132706D02*
X0140813Y0132706D01*
X0141477Y0132108D02*
X0138038Y0132108D01*
X0138100Y0131509D02*
X0142000Y0131509D01*
X0142000Y0130911D02*
X0138100Y0130911D01*
X0138100Y0130312D02*
X0142000Y0130312D01*
X0142000Y0129714D02*
X0138100Y0129714D01*
X0138100Y0129115D02*
X0142000Y0129115D01*
X0142000Y0128517D02*
X0138100Y0128517D01*
X0138487Y0127918D02*
X0141613Y0127918D01*
X0141310Y0127320D02*
X0138790Y0127320D01*
X0138991Y0126721D02*
X0141109Y0126721D01*
X0141109Y0126123D02*
X0138991Y0126123D01*
X0138891Y0125524D02*
X0141209Y0125524D01*
X0141457Y0124926D02*
X0138643Y0124926D01*
X0138132Y0124327D02*
X0141968Y0124327D01*
X0142977Y0123729D02*
X0137123Y0123729D01*
X0144623Y0123729D02*
X0204701Y0123729D01*
X0204701Y0124327D02*
X0145632Y0124327D01*
X0146143Y0124926D02*
X0204701Y0124926D01*
X0204701Y0125524D02*
X0146391Y0125524D01*
X0146491Y0126123D02*
X0204701Y0126123D01*
X0204701Y0126721D02*
X0146491Y0126721D01*
X0143854Y0105175D02*
X0143746Y0105175D01*
X0143381Y0104576D02*
X0144219Y0104576D01*
X0144876Y0103978D02*
X0142724Y0103978D01*
X0031964Y0032755D02*
X0021600Y0032755D01*
X0021600Y0032156D02*
X0029731Y0032156D01*
X0028440Y0031558D02*
X0021600Y0031558D01*
X0021600Y0030959D02*
X0027404Y0030959D01*
X0026420Y0030361D02*
X0021600Y0030361D01*
X0021600Y0029762D02*
X0025821Y0029762D01*
X0025223Y0029164D02*
X0021600Y0029164D01*
X0021600Y0028565D02*
X0024624Y0028565D01*
X0024114Y0027967D02*
X0021600Y0027967D01*
X0021600Y0027368D02*
X0023768Y0027368D01*
X0023423Y0026770D02*
X0021600Y0026770D01*
X0021600Y0026171D02*
X0023077Y0026171D01*
X0022731Y0025573D02*
X0021600Y0025573D01*
X0021600Y0024974D02*
X0022521Y0024974D01*
X0022360Y0024376D02*
X0021600Y0024376D01*
X0021600Y0023777D02*
X0022200Y0023777D01*
X0022040Y0023179D02*
X0021600Y0023179D01*
X0021600Y0022580D02*
X0021879Y0022580D01*
X0021811Y0021982D02*
X0021600Y0021982D01*
X0021600Y0021383D02*
X0021811Y0021383D01*
X0021811Y0020785D02*
X0021600Y0020785D01*
X0021600Y0020186D02*
X0021811Y0020186D01*
X0021811Y0019588D02*
X0021600Y0019588D01*
X0021600Y0018989D02*
X0021849Y0018989D01*
X0022010Y0018391D02*
X0021600Y0018391D01*
X0021600Y0017792D02*
X0022170Y0017792D01*
X0022331Y0017194D02*
X0021600Y0017194D01*
X0021600Y0016595D02*
X0022491Y0016595D01*
X0022667Y0015997D02*
X0021600Y0015997D01*
X0021600Y0015398D02*
X0023013Y0015398D01*
X0023358Y0014800D02*
X0021600Y0014800D01*
X0021600Y0014201D02*
X0023704Y0014201D01*
X0024050Y0013603D02*
X0021600Y0013603D01*
X0021600Y0013004D02*
X0024513Y0013004D01*
X0025112Y0012405D02*
X0021600Y0012405D01*
X0021600Y0011807D02*
X0025710Y0011807D01*
D26*
X0036300Y0046300D03*
X0121300Y0048800D03*
X0183800Y0035050D03*
X0171300Y0121300D03*
X0171300Y0138800D03*
D27*
X0143800Y0138800D02*
X0143800Y0126300D01*
X0136300Y0126300D02*
X0136300Y0131300D01*
X0133800Y0133800D01*
X0133800Y0138800D01*
X0088900Y0108900D02*
X0086400Y0108900D01*
X0088800Y0108800D02*
X0088900Y0108900D01*
D28*
X0089000Y0108800D01*
X0096300Y0108800D01*
X0101300Y0113800D01*
X0101300Y0123800D01*
X0096300Y0108800D02*
X0098898Y0106202D01*
X0098898Y0083800D01*
D29*
X0131300Y0058800D02*
X0136300Y0058800D01*
X0086753Y0131753D02*
X0066300Y0131753D01*
X0086753Y0131753D02*
X0096300Y0141300D01*
D30*
X0116300Y0141300D01*
X0123800Y0133800D01*
X0123800Y0123800D01*
X0141300Y0106300D01*
X0146300Y0106300D02*
X0128800Y0123800D01*
X0128800Y0133800D01*
X0116733Y0145867D01*
X0088367Y0145867D01*
X0083800Y0141300D01*
X0083800Y0138800D01*
X0066300Y0131753D02*
X0061300Y0136753D01*
X0061300Y0138800D01*
X0073800Y0098800D02*
X0076300Y0098800D01*
X0073800Y0098800D02*
X0066379Y0091379D01*
X0061300Y0091379D01*
X0066536Y0081536D02*
X0073800Y0088800D01*
X0076300Y0088800D01*
X0066536Y0081536D02*
X0061300Y0081536D01*
X0048800Y0081536D02*
X0048800Y0074646D01*
X0048800Y0067954D02*
X0054646Y0067954D01*
X0057481Y0065119D01*
X0057481Y0061871D01*
X0027481Y0061871D02*
X0027481Y0087481D01*
X0031379Y0091379D01*
X0036300Y0091379D01*
X0121300Y0048800D02*
X0126300Y0043800D01*
X0131300Y0043800D01*
X0136300Y0048800D01*
X0140276Y0049863D02*
X0159213Y0068800D01*
X0166300Y0068800D01*
X0140276Y0049863D02*
X0140276Y0022776D01*
X0138800Y0021300D01*
X0121300Y0048800D02*
X0131300Y0058800D01*
D31*
X0088900Y0117900D02*
X0088000Y0118800D01*
D32*
X0033938Y0138800D03*
X0191418Y0138889D03*
X0191182Y0020650D03*
X0033938Y0020729D03*
M02*
