G75*
%MOIN*%
%OFA0B0*%
%FSLAX25Y25*%
%IPPOS*%
%LPD*%
%AMOC8*
5,1,8,0,0,1.08239X$1,22.5*
%
%ADD10C,0.00000*%
%ADD11R,0.04331X0.03937*%
%ADD12R,0.04134X0.04252*%
%ADD13R,0.04252X0.04134*%
%ADD14R,0.06299X0.02362*%
%ADD15R,0.04724X0.01181*%
%ADD16R,0.01181X0.04724*%
%ADD17R,0.04331X0.05118*%
%ADD18R,0.04724X0.04724*%
%ADD19C,0.06000*%
%ADD20C,0.05200*%
%ADD21R,0.06000X0.06000*%
%ADD22C,0.06000*%
%ADD23C,0.00787*%
%ADD24C,0.00630*%
%ADD25R,0.06299X0.07874*%
%ADD26R,0.03937X0.04331*%
%ADD27C,0.00800*%
%ADD28C,0.01600*%
%ADD29C,0.02781*%
%ADD30C,0.03937*%
%ADD31C,0.00900*%
%ADD32C,0.03543*%
%ADD33C,0.00600*%
%ADD34C,0.02978*%
%ADD35C,0.00591*%
%ADD36C,0.00500*%
%ADD37C,0.02400*%
%ADD38C,0.01000*%
%ADD39C,0.21654*%
D10*
X0018800Y0008800D02*
X0018800Y0151261D01*
X0207501Y0151261D01*
X0207501Y0008800D01*
X0018800Y0008800D01*
D11*
X0076300Y0075454D03*
X0076300Y0082146D03*
X0096704Y0103800D03*
X0103396Y0103800D03*
X0108800Y0135454D03*
X0108800Y0142146D03*
X0096300Y0142146D03*
X0096300Y0135454D03*
X0198800Y0114646D03*
X0198800Y0107954D03*
X0183800Y0057146D03*
X0183800Y0050454D03*
X0173800Y0050454D03*
X0173800Y0057146D03*
X0148800Y0037146D03*
X0148800Y0030454D03*
X0118800Y0030454D03*
X0118800Y0037146D03*
D12*
X0114745Y0073800D03*
X0107855Y0073800D03*
X0122855Y0123800D03*
X0129745Y0123800D03*
X0152855Y0123800D03*
X0159745Y0123800D03*
X0195355Y0088800D03*
X0202245Y0088800D03*
X0202245Y0078800D03*
X0195355Y0078800D03*
D13*
X0198800Y0095355D03*
X0198800Y0102245D03*
X0176300Y0105355D03*
X0176300Y0112245D03*
X0158800Y0062245D03*
X0158800Y0055355D03*
X0148800Y0024745D03*
X0148800Y0017855D03*
X0133800Y0019745D03*
X0133800Y0012855D03*
D14*
X0106536Y0081300D03*
X0106536Y0086300D03*
X0106536Y0091300D03*
X0106536Y0096300D03*
X0086064Y0096300D03*
X0086064Y0091300D03*
X0086064Y0086300D03*
X0086064Y0081300D03*
D15*
X0123662Y0081005D03*
X0123662Y0082973D03*
X0123662Y0084942D03*
X0123662Y0086910D03*
X0123662Y0088879D03*
X0123662Y0090847D03*
X0123662Y0092816D03*
X0123662Y0094784D03*
X0123662Y0096753D03*
X0123662Y0098721D03*
X0123662Y0100690D03*
X0123662Y0102658D03*
X0123662Y0104627D03*
X0123662Y0106595D03*
X0123662Y0108564D03*
X0123662Y0079036D03*
X0168938Y0079036D03*
X0168938Y0081005D03*
X0168938Y0082973D03*
X0168938Y0084942D03*
X0168938Y0086910D03*
X0168938Y0088879D03*
X0168938Y0090847D03*
X0168938Y0092816D03*
X0168938Y0094784D03*
X0168938Y0096753D03*
X0168938Y0098721D03*
X0168938Y0100690D03*
X0168938Y0102658D03*
X0168938Y0104627D03*
X0168938Y0106595D03*
X0168938Y0108564D03*
D16*
X0161064Y0116438D03*
X0159095Y0116438D03*
X0157127Y0116438D03*
X0155158Y0116438D03*
X0153190Y0116438D03*
X0151221Y0116438D03*
X0149253Y0116438D03*
X0147284Y0116438D03*
X0145316Y0116438D03*
X0143347Y0116438D03*
X0141379Y0116438D03*
X0139410Y0116438D03*
X0137442Y0116438D03*
X0135473Y0116438D03*
X0133505Y0116438D03*
X0131536Y0116438D03*
X0131536Y0071162D03*
X0133505Y0071162D03*
X0135473Y0071162D03*
X0137442Y0071162D03*
X0139410Y0071162D03*
X0141379Y0071162D03*
X0143347Y0071162D03*
X0145316Y0071162D03*
X0147284Y0071162D03*
X0149253Y0071162D03*
X0151221Y0071162D03*
X0153190Y0071162D03*
X0155158Y0071162D03*
X0157127Y0071162D03*
X0159095Y0071162D03*
X0161064Y0071162D03*
D17*
X0182757Y0079272D03*
X0189843Y0079272D03*
X0189843Y0088328D03*
X0182757Y0088328D03*
D18*
X0183800Y0071684D03*
X0183800Y0063416D03*
X0173800Y0063416D03*
X0173800Y0071684D03*
X0030434Y0037550D03*
X0022166Y0037550D03*
D19*
X0056635Y0037394D02*
X0056635Y0043394D01*
X0066635Y0043394D02*
X0066635Y0037394D01*
X0076635Y0037394D02*
X0076635Y0043394D01*
X0086635Y0043394D02*
X0086635Y0037394D01*
X0193300Y0038800D02*
X0199300Y0038800D01*
X0199300Y0048800D02*
X0193300Y0048800D01*
X0193300Y0058800D02*
X0199300Y0058800D01*
X0153800Y0135800D02*
X0153800Y0141800D01*
X0143800Y0141800D02*
X0143800Y0135800D01*
X0133800Y0135800D02*
X0133800Y0141800D01*
X0083800Y0141800D02*
X0083800Y0135800D01*
X0073800Y0135800D02*
X0073800Y0141800D01*
X0061300Y0141800D02*
X0061300Y0135800D01*
X0051300Y0135800D02*
X0051300Y0141800D01*
D20*
X0054881Y0061871D02*
X0060081Y0061871D01*
X0030081Y0061871D02*
X0024881Y0061871D01*
D21*
X0036300Y0111064D03*
X0061300Y0111064D03*
D22*
X0061300Y0101221D03*
X0061300Y0091379D03*
X0061300Y0081536D03*
X0036300Y0081536D03*
X0036300Y0091379D03*
X0036300Y0101221D03*
D23*
X0053800Y0128800D02*
X0051300Y0131300D01*
X0051300Y0138800D01*
X0061300Y0138800D02*
X0061300Y0140867D01*
X0066300Y0145867D01*
X0095483Y0145867D01*
X0096300Y0145050D01*
X0096300Y0142146D01*
X0101300Y0138800D02*
X0083800Y0138800D01*
X0073800Y0138800D02*
X0073800Y0131300D01*
X0071300Y0128800D01*
X0053800Y0128800D01*
X0073800Y0131300D02*
X0076300Y0128800D01*
X0081300Y0128800D01*
X0096300Y0128800D02*
X0096300Y0135454D01*
X0108800Y0135454D01*
X0104646Y0142146D02*
X0101300Y0138800D01*
X0104646Y0142146D02*
X0108800Y0142146D01*
X0096300Y0128800D02*
X0101300Y0123800D01*
X0111300Y0113800D02*
X0103396Y0105896D01*
X0103396Y0103800D01*
X0103396Y0100896D01*
X0101300Y0098800D01*
X0101300Y0092550D01*
X0102550Y0091300D01*
X0106536Y0091300D01*
X0103800Y0091300D01*
X0106536Y0096300D02*
X0113800Y0096300D01*
X0116300Y0093800D01*
X0116300Y0088800D01*
X0118190Y0086910D01*
X0123662Y0086910D01*
X0123662Y0084942D02*
X0114942Y0084942D01*
X0111300Y0081300D01*
X0106536Y0081300D01*
X0091300Y0087550D02*
X0091300Y0098800D01*
X0088800Y0101300D01*
X0078800Y0101300D01*
X0076300Y0098800D01*
X0078800Y0091300D02*
X0076300Y0088800D01*
X0078800Y0091300D02*
X0086064Y0091300D01*
X0090050Y0086300D02*
X0091300Y0087550D01*
X0090050Y0086300D02*
X0086064Y0086300D01*
X0088800Y0086300D01*
X0086064Y0081300D02*
X0077146Y0081300D01*
X0076300Y0075454D02*
X0076300Y0066300D01*
X0066635Y0056635D01*
X0066635Y0040394D01*
X0076635Y0040394D02*
X0076635Y0056635D01*
X0083800Y0063800D01*
X0106300Y0063800D01*
X0111300Y0068800D01*
X0130050Y0060050D02*
X0092550Y0060050D01*
X0086635Y0054135D01*
X0086635Y0040394D01*
X0056635Y0040394D02*
X0053790Y0037550D01*
X0045896Y0037550D01*
X0039204Y0037550D02*
X0030434Y0037550D01*
X0118800Y0037146D02*
X0121300Y0039646D01*
X0121300Y0048800D01*
X0129863Y0040887D02*
X0129863Y0038917D01*
X0129863Y0040887D02*
X0129863Y0040887D01*
X0129863Y0038917D01*
X0129863Y0038917D01*
X0129863Y0039703D02*
X0129863Y0039703D01*
X0129863Y0040489D02*
X0129863Y0040489D01*
X0131438Y0040887D02*
X0131438Y0038917D01*
X0131438Y0040887D02*
X0131438Y0040887D01*
X0131438Y0038917D01*
X0131438Y0038917D01*
X0131438Y0039703D02*
X0131438Y0039703D01*
X0131438Y0040489D02*
X0131438Y0040489D01*
X0133013Y0040887D02*
X0133013Y0038917D01*
X0133013Y0040887D02*
X0133013Y0040887D01*
X0133013Y0038917D01*
X0133013Y0038917D01*
X0133013Y0039703D02*
X0133013Y0039703D01*
X0133013Y0040489D02*
X0133013Y0040489D01*
X0134587Y0040887D02*
X0134587Y0038917D01*
X0134587Y0040887D02*
X0134587Y0040887D01*
X0134587Y0038917D01*
X0134587Y0038917D01*
X0134587Y0039703D02*
X0134587Y0039703D01*
X0134587Y0040489D02*
X0134587Y0040489D01*
X0136162Y0040887D02*
X0136162Y0038917D01*
X0136162Y0040887D02*
X0136162Y0040887D01*
X0136162Y0038917D01*
X0136162Y0038917D01*
X0136162Y0039703D02*
X0136162Y0039703D01*
X0136162Y0040489D02*
X0136162Y0040489D01*
X0137737Y0040887D02*
X0137737Y0038917D01*
X0137737Y0040887D02*
X0137737Y0040887D01*
X0137737Y0038917D01*
X0137737Y0038917D01*
X0137737Y0039703D02*
X0137737Y0039703D01*
X0137737Y0040489D02*
X0137737Y0040489D01*
X0138917Y0037737D02*
X0140887Y0037737D01*
X0140887Y0037737D01*
X0138917Y0037737D01*
X0138917Y0037737D01*
X0138917Y0036162D02*
X0140887Y0036162D01*
X0140887Y0036162D01*
X0138917Y0036162D01*
X0138917Y0036162D01*
X0138917Y0034587D02*
X0140887Y0034587D01*
X0140887Y0034587D01*
X0138917Y0034587D01*
X0138917Y0034587D01*
X0138917Y0033013D02*
X0140887Y0033013D01*
X0140887Y0033013D01*
X0138917Y0033013D01*
X0138917Y0033013D01*
X0138917Y0031438D02*
X0140887Y0031438D01*
X0140887Y0031438D01*
X0138917Y0031438D01*
X0138917Y0031438D01*
X0138917Y0029863D02*
X0140887Y0029863D01*
X0140887Y0029863D01*
X0138917Y0029863D01*
X0138917Y0029863D01*
X0137737Y0028683D02*
X0137737Y0026713D01*
X0137737Y0026713D01*
X0137737Y0028683D01*
X0137737Y0028683D01*
X0137737Y0027499D02*
X0137737Y0027499D01*
X0137737Y0028285D02*
X0137737Y0028285D01*
X0136162Y0028683D02*
X0136162Y0026713D01*
X0136162Y0026713D01*
X0136162Y0028683D01*
X0136162Y0028683D01*
X0136162Y0027499D02*
X0136162Y0027499D01*
X0136162Y0028285D02*
X0136162Y0028285D01*
X0134587Y0028683D02*
X0134587Y0026713D01*
X0134587Y0026713D01*
X0134587Y0028683D01*
X0134587Y0028683D01*
X0134587Y0027499D02*
X0134587Y0027499D01*
X0134587Y0028285D02*
X0134587Y0028285D01*
X0133013Y0028683D02*
X0133013Y0026713D01*
X0133013Y0026713D01*
X0133013Y0028683D01*
X0133013Y0028683D01*
X0133013Y0027499D02*
X0133013Y0027499D01*
X0133013Y0028285D02*
X0133013Y0028285D01*
X0131438Y0028683D02*
X0131438Y0026713D01*
X0131438Y0026713D01*
X0131438Y0028683D01*
X0131438Y0028683D01*
X0131438Y0027499D02*
X0131438Y0027499D01*
X0131438Y0028285D02*
X0131438Y0028285D01*
X0129863Y0028683D02*
X0129863Y0026713D01*
X0129863Y0026713D01*
X0129863Y0028683D01*
X0129863Y0028683D01*
X0129863Y0027499D02*
X0129863Y0027499D01*
X0129863Y0028285D02*
X0129863Y0028285D01*
X0128683Y0029863D02*
X0126713Y0029863D01*
X0126713Y0029863D01*
X0128683Y0029863D01*
X0128683Y0029863D01*
X0128683Y0031438D02*
X0126713Y0031438D01*
X0126713Y0031438D01*
X0128683Y0031438D01*
X0128683Y0031438D01*
X0128683Y0033013D02*
X0126713Y0033013D01*
X0126713Y0033013D01*
X0128683Y0033013D01*
X0128683Y0033013D01*
X0128683Y0034587D02*
X0126713Y0034587D01*
X0126713Y0034587D01*
X0128683Y0034587D01*
X0128683Y0034587D01*
X0128683Y0036162D02*
X0126713Y0036162D01*
X0126713Y0036162D01*
X0128683Y0036162D01*
X0128683Y0036162D01*
X0128683Y0037737D02*
X0126713Y0037737D01*
X0126713Y0037737D01*
X0128683Y0037737D01*
X0128683Y0037737D01*
X0148800Y0037146D02*
X0148800Y0053800D01*
X0143800Y0058800D01*
X0148800Y0058800D01*
X0151221Y0061221D01*
X0151221Y0071083D01*
X0151300Y0071162D01*
X0153190Y0071162D02*
X0153190Y0045660D01*
X0157550Y0041300D01*
X0185050Y0041300D01*
X0192550Y0048800D01*
X0196300Y0048800D01*
X0183800Y0057146D02*
X0183800Y0063416D01*
X0183800Y0071684D02*
X0180916Y0071684D01*
X0178800Y0073800D01*
X0178800Y0076300D01*
X0172127Y0082973D01*
X0168938Y0082973D01*
X0168938Y0081005D02*
X0171595Y0081005D01*
X0173800Y0078800D01*
X0173800Y0071684D01*
X0161064Y0071162D02*
X0161064Y0064509D01*
X0158800Y0062245D01*
X0149253Y0066753D02*
X0146300Y0063800D01*
X0141300Y0063800D01*
X0136300Y0058800D01*
X0131536Y0061536D02*
X0131536Y0071162D01*
X0131536Y0061536D02*
X0130050Y0060050D01*
X0149253Y0066753D02*
X0149253Y0071162D01*
X0168938Y0086910D02*
X0175690Y0086910D01*
X0178800Y0083800D01*
X0185316Y0083800D01*
X0189843Y0079272D01*
X0194883Y0079272D01*
X0195355Y0078800D01*
X0201300Y0077855D02*
X0202245Y0078800D01*
X0202245Y0072245D01*
X0196300Y0066300D01*
X0196300Y0058800D01*
X0195050Y0058800D01*
X0202245Y0078800D02*
X0202245Y0088800D01*
X0202245Y0091910D01*
X0198800Y0095355D01*
X0195355Y0088800D02*
X0191182Y0092973D01*
X0185847Y0092973D01*
X0182757Y0089883D01*
X0182757Y0088328D01*
X0176772Y0088328D01*
X0176221Y0088879D01*
X0168938Y0088879D01*
X0168938Y0090847D02*
X0173347Y0090847D01*
X0180670Y0098170D01*
X0186300Y0098170D01*
X0190670Y0098170D01*
X0194745Y0102245D01*
X0198800Y0102245D01*
X0198800Y0107954D01*
X0186300Y0113800D02*
X0184745Y0112245D01*
X0176300Y0112245D01*
X0171930Y0119430D02*
X0159095Y0106595D01*
X0153190Y0100690D01*
X0168938Y0100690D01*
X0168938Y0102658D02*
X0175158Y0102658D01*
X0176300Y0103800D01*
X0176300Y0105355D01*
X0186300Y0113800D02*
X0186300Y0119430D01*
X0171930Y0119430D01*
X0159095Y0116438D02*
X0159095Y0106595D01*
X0153190Y0100690D02*
X0146300Y0093800D01*
X0146300Y0106300D02*
X0147284Y0107284D01*
X0147284Y0116438D01*
X0145316Y0116438D02*
X0145316Y0110316D01*
X0141300Y0106300D01*
X0137442Y0116438D02*
X0137442Y0119942D01*
X0143800Y0126300D01*
X0136300Y0126300D02*
X0135473Y0125473D01*
X0135473Y0116438D01*
X0131536Y0116438D02*
X0131536Y0119814D01*
X0129745Y0121605D01*
X0129745Y0123800D01*
X0130522Y0123022D01*
X0121300Y0113800D01*
X0111300Y0113800D01*
X0103396Y0103800D02*
X0102550Y0102954D01*
D24*
X0130670Y0030966D02*
X0136930Y0030966D01*
X0130670Y0030966D02*
X0130670Y0036634D01*
X0136930Y0036634D01*
X0136930Y0030966D01*
X0136930Y0031595D02*
X0130670Y0031595D01*
X0130670Y0032224D02*
X0136930Y0032224D01*
X0136930Y0032853D02*
X0130670Y0032853D01*
X0130670Y0033482D02*
X0136930Y0033482D01*
X0136930Y0034111D02*
X0130670Y0034111D01*
X0130670Y0034740D02*
X0136930Y0034740D01*
X0136930Y0035369D02*
X0130670Y0035369D01*
X0130670Y0035998D02*
X0136930Y0035998D01*
X0136930Y0036627D02*
X0130670Y0036627D01*
D25*
X0186300Y0098170D03*
X0186300Y0119430D03*
D26*
X0045896Y0037550D03*
X0039204Y0037550D03*
D27*
X0157127Y0116438D02*
X0157127Y0119528D01*
X0152855Y0123800D01*
X0159095Y0123150D02*
X0159745Y0123800D01*
X0159095Y0123150D02*
X0159095Y0116438D01*
D28*
X0152855Y0123800D02*
X0152855Y0127855D01*
X0155050Y0130050D01*
X0176300Y0130050D01*
X0181300Y0125050D01*
X0196300Y0125050D01*
X0198800Y0122550D01*
X0198800Y0114646D01*
X0194646Y0114646D01*
X0185355Y0105355D01*
X0176300Y0105355D01*
X0186300Y0116300D02*
X0186300Y0119430D01*
X0152855Y0127855D02*
X0150660Y0130050D01*
X0131300Y0130050D01*
X0129745Y0128495D01*
X0128190Y0130050D01*
X0107550Y0130050D01*
X0101300Y0123800D01*
X0109607Y0123800D02*
X0096704Y0110896D01*
X0081300Y0126300D01*
X0081300Y0128800D01*
X0096704Y0110896D02*
X0096704Y0103800D01*
X0096704Y0086300D01*
X0106536Y0086300D01*
X0096704Y0086300D02*
X0096704Y0078396D01*
X0093761Y0075454D01*
X0076300Y0075454D01*
X0077146Y0081300D02*
X0076300Y0082146D01*
X0096704Y0078396D02*
X0101300Y0073800D01*
X0107855Y0073800D01*
X0114745Y0073800D02*
X0114745Y0064745D01*
X0113800Y0063800D01*
X0158800Y0062245D02*
X0165355Y0062245D01*
X0166300Y0061300D01*
X0201300Y0089745D02*
X0202245Y0088800D01*
X0129745Y0123800D02*
X0129745Y0128495D01*
X0122855Y0123800D02*
X0116300Y0123800D01*
X0109607Y0123800D01*
X0096704Y0103800D02*
X0096300Y0103396D01*
D29*
X0076300Y0098800D03*
X0076300Y0088800D03*
X0076300Y0066300D03*
X0101300Y0056300D03*
X0113800Y0063800D03*
X0123800Y0068800D03*
X0136300Y0058800D03*
X0143800Y0058800D03*
X0143800Y0048800D03*
X0136300Y0048800D03*
X0128800Y0048800D03*
X0133800Y0033800D03*
X0138800Y0021300D03*
X0166300Y0061300D03*
X0166300Y0068800D03*
X0196300Y0068800D03*
X0146300Y0093800D03*
X0133800Y0098800D03*
X0141300Y0106300D03*
X0146300Y0106300D03*
X0143800Y0126300D03*
X0136300Y0126300D03*
X0101300Y0123800D03*
X0081300Y0128800D03*
X0051300Y0126300D03*
D30*
X0116300Y0123800D03*
D31*
X0157127Y0116438D02*
X0157127Y0114627D01*
X0146300Y0093800D02*
X0159095Y0081005D01*
X0159095Y0071162D01*
X0166300Y0073800D02*
X0161300Y0078800D01*
X0161300Y0083800D01*
X0162442Y0084942D01*
X0168938Y0084942D01*
X0123662Y0082973D02*
X0117127Y0082973D01*
X0111300Y0077146D01*
X0111300Y0068800D01*
X0114745Y0073800D02*
X0119981Y0079036D01*
X0123662Y0079036D01*
X0121536Y0079036D01*
D32*
X0103800Y0040050D03*
D33*
X0115335Y0039653D02*
X0115335Y0034639D01*
X0116096Y0033878D01*
X0121504Y0033878D01*
X0122205Y0034579D01*
X0122205Y0034461D01*
X0121466Y0033722D01*
X0116096Y0033722D01*
X0115335Y0032961D01*
X0115335Y0027947D01*
X0116096Y0027185D01*
X0118223Y0027185D01*
X0123158Y0022250D01*
X0130374Y0022250D01*
X0130374Y0017139D01*
X0131136Y0016378D01*
X0136464Y0016378D01*
X0137226Y0017139D01*
X0137226Y0019069D01*
X0137276Y0019019D01*
X0138265Y0018609D01*
X0139335Y0018609D01*
X0140324Y0019019D01*
X0141081Y0019776D01*
X0141491Y0020765D01*
X0141491Y0021835D01*
X0141081Y0022824D01*
X0140324Y0023581D01*
X0139335Y0023991D01*
X0139332Y0023991D01*
X0139332Y0025913D01*
X0139431Y0026012D01*
X0139431Y0028169D01*
X0141588Y0028169D01*
X0141682Y0028263D01*
X0142200Y0028263D01*
X0142200Y0025637D01*
X0143137Y0024700D01*
X0144692Y0023145D01*
X0145374Y0023145D01*
X0145374Y0022139D01*
X0146136Y0021378D01*
X0151464Y0021378D01*
X0152226Y0022139D01*
X0152226Y0027350D01*
X0151948Y0027629D01*
X0152265Y0027947D01*
X0152265Y0032961D01*
X0151504Y0033722D01*
X0146096Y0033722D01*
X0145400Y0033026D01*
X0145400Y0034574D01*
X0146096Y0033878D01*
X0151504Y0033878D01*
X0152265Y0034639D01*
X0152265Y0039653D01*
X0151504Y0040415D01*
X0150494Y0040415D01*
X0150494Y0054502D01*
X0147889Y0057106D01*
X0149502Y0057106D01*
X0150494Y0058098D01*
X0151496Y0059101D01*
X0151496Y0044959D01*
X0155856Y0040598D01*
X0156848Y0039606D01*
X0185752Y0039606D01*
X0191172Y0045027D01*
X0192445Y0044500D01*
X0200155Y0044500D01*
X0201736Y0045155D01*
X0202945Y0046364D01*
X0203600Y0047945D01*
X0203600Y0049655D01*
X0202945Y0051236D01*
X0201736Y0052445D01*
X0200155Y0053100D01*
X0192445Y0053100D01*
X0190864Y0052445D01*
X0189655Y0051236D01*
X0189000Y0049655D01*
X0189000Y0047945D01*
X0189088Y0047733D01*
X0184348Y0042994D01*
X0158252Y0042994D01*
X0154883Y0046362D01*
X0154883Y0067500D01*
X0158256Y0067500D01*
X0158272Y0067516D01*
X0158334Y0067500D01*
X0159095Y0067500D01*
X0159095Y0071162D01*
X0159095Y0071162D01*
X0159095Y0067500D01*
X0159370Y0067500D01*
X0159370Y0065612D01*
X0156136Y0065612D01*
X0155374Y0064850D01*
X0155374Y0059639D01*
X0156136Y0058878D01*
X0161464Y0058878D01*
X0162226Y0059639D01*
X0162226Y0060145D01*
X0163866Y0060145D01*
X0164019Y0059776D01*
X0164776Y0059019D01*
X0165765Y0058609D01*
X0166835Y0058609D01*
X0167824Y0059019D01*
X0168581Y0059776D01*
X0168991Y0060765D01*
X0168991Y0061835D01*
X0168581Y0062824D01*
X0167824Y0063581D01*
X0166835Y0063991D01*
X0166579Y0063991D01*
X0166225Y0064345D01*
X0162757Y0064345D01*
X0162757Y0068065D01*
X0162954Y0068262D01*
X0162954Y0074063D01*
X0162193Y0074824D01*
X0159935Y0074824D01*
X0159918Y0074808D01*
X0159857Y0074824D01*
X0159095Y0074824D01*
X0158334Y0074824D01*
X0158272Y0074808D01*
X0158256Y0074824D01*
X0130407Y0074824D01*
X0129646Y0074063D01*
X0129646Y0068262D01*
X0129843Y0068065D01*
X0129843Y0062238D01*
X0129348Y0061744D01*
X0115549Y0061744D01*
X0116081Y0062276D01*
X0116491Y0063265D01*
X0116491Y0063521D01*
X0116845Y0063875D01*
X0116845Y0070374D01*
X0117350Y0070374D01*
X0118112Y0071136D01*
X0118112Y0074692D01*
X0120663Y0077244D01*
X0120762Y0077146D01*
X0126563Y0077146D01*
X0127324Y0077907D01*
X0127324Y0109693D01*
X0126563Y0110454D01*
X0120762Y0110454D01*
X0120000Y0109693D01*
X0120000Y0088604D01*
X0118891Y0088604D01*
X0117994Y0089502D01*
X0117994Y0094502D01*
X0117002Y0095494D01*
X0114502Y0097994D01*
X0110986Y0097994D01*
X0110986Y0098020D01*
X0110224Y0098781D01*
X0103676Y0098781D01*
X0105090Y0100195D01*
X0105090Y0100531D01*
X0106100Y0100531D01*
X0106862Y0101293D01*
X0106862Y0106307D01*
X0106532Y0106637D01*
X0112002Y0112106D01*
X0122002Y0112106D01*
X0129425Y0119530D01*
X0129646Y0119309D01*
X0129646Y0113537D01*
X0130407Y0112776D01*
X0143622Y0112776D01*
X0143622Y0111017D01*
X0141595Y0108991D01*
X0140765Y0108991D01*
X0139776Y0108581D01*
X0139019Y0107824D01*
X0138609Y0106835D01*
X0138609Y0105765D01*
X0139019Y0104776D01*
X0139776Y0104019D01*
X0140765Y0103609D01*
X0141835Y0103609D01*
X0142824Y0104019D01*
X0143581Y0104776D01*
X0143800Y0105305D01*
X0144019Y0104776D01*
X0144776Y0104019D01*
X0145765Y0103609D01*
X0146835Y0103609D01*
X0147824Y0104019D01*
X0148581Y0104776D01*
X0148991Y0105765D01*
X0148991Y0106835D01*
X0148978Y0106866D01*
X0148978Y0112776D01*
X0158256Y0112776D01*
X0158272Y0112792D01*
X0158334Y0112776D01*
X0159095Y0112776D01*
X0159095Y0116438D01*
X0159095Y0120100D01*
X0158827Y0120100D01*
X0158827Y0120233D01*
X0158685Y0120374D01*
X0159445Y0120374D01*
X0159445Y0123500D01*
X0160045Y0123500D01*
X0160045Y0124100D01*
X0163112Y0124100D01*
X0163112Y0126097D01*
X0163023Y0126428D01*
X0162852Y0126724D01*
X0162610Y0126966D01*
X0162314Y0127137D01*
X0161983Y0127226D01*
X0160045Y0127226D01*
X0160045Y0124100D01*
X0159445Y0124100D01*
X0159445Y0127226D01*
X0157507Y0127226D01*
X0157176Y0127137D01*
X0156880Y0126966D01*
X0156638Y0126724D01*
X0156467Y0126428D01*
X0156378Y0126097D01*
X0156378Y0124100D01*
X0159445Y0124100D01*
X0159445Y0123500D01*
X0156378Y0123500D01*
X0156378Y0122681D01*
X0156222Y0122837D01*
X0156222Y0126464D01*
X0155461Y0127226D01*
X0155196Y0127226D01*
X0155920Y0127950D01*
X0175430Y0127950D01*
X0180430Y0122950D01*
X0181850Y0122950D01*
X0181850Y0119730D01*
X0186000Y0119730D01*
X0186000Y0119130D01*
X0181850Y0119130D01*
X0181850Y0115322D01*
X0181939Y0114991D01*
X0182110Y0114695D01*
X0182352Y0114453D01*
X0182649Y0114282D01*
X0182979Y0114193D01*
X0186000Y0114193D01*
X0186000Y0119130D01*
X0186600Y0119130D01*
X0186600Y0119730D01*
X0190750Y0119730D01*
X0190750Y0122950D01*
X0195430Y0122950D01*
X0196700Y0121680D01*
X0196700Y0117915D01*
X0196096Y0117915D01*
X0195335Y0117153D01*
X0195335Y0116746D01*
X0193777Y0116746D01*
X0184485Y0107455D01*
X0179726Y0107455D01*
X0179726Y0107961D01*
X0178964Y0108722D01*
X0173636Y0108722D01*
X0172874Y0107961D01*
X0172874Y0104352D01*
X0172600Y0104352D01*
X0172600Y0109693D01*
X0171838Y0110454D01*
X0166037Y0110454D01*
X0165276Y0109693D01*
X0165276Y0101529D01*
X0165292Y0101513D01*
X0165276Y0101451D01*
X0165276Y0100690D01*
X0168938Y0100690D01*
X0172600Y0100690D01*
X0172600Y0100965D01*
X0175860Y0100965D01*
X0176883Y0101988D01*
X0178964Y0101988D01*
X0179726Y0102750D01*
X0179726Y0103255D01*
X0182460Y0103255D01*
X0181850Y0102646D01*
X0181850Y0099864D01*
X0179969Y0099864D01*
X0172646Y0092541D01*
X0172600Y0092541D01*
X0172600Y0099850D01*
X0172584Y0099867D01*
X0172600Y0099928D01*
X0172600Y0100690D01*
X0168938Y0100690D01*
X0168938Y0100690D01*
X0168938Y0100690D01*
X0165276Y0100690D01*
X0165276Y0099928D01*
X0165292Y0099867D01*
X0165276Y0099850D01*
X0165276Y0086692D01*
X0161717Y0086692D01*
X0160575Y0085550D01*
X0159550Y0084525D01*
X0159550Y0078075D01*
X0164500Y0073125D01*
X0164500Y0070805D01*
X0164019Y0070324D01*
X0163609Y0069335D01*
X0163609Y0068265D01*
X0164019Y0067276D01*
X0164776Y0066519D01*
X0165765Y0066109D01*
X0166835Y0066109D01*
X0167824Y0066519D01*
X0168581Y0067276D01*
X0168991Y0068265D01*
X0168991Y0069335D01*
X0168581Y0070324D01*
X0168100Y0070805D01*
X0168100Y0074546D01*
X0167046Y0075600D01*
X0166975Y0075600D01*
X0163050Y0079525D01*
X0163050Y0083075D01*
X0163167Y0083192D01*
X0165276Y0083192D01*
X0165276Y0077907D01*
X0166037Y0077146D01*
X0171838Y0077146D01*
X0172106Y0077414D01*
X0172106Y0075346D01*
X0170899Y0075346D01*
X0170138Y0074585D01*
X0170138Y0068783D01*
X0170899Y0068022D01*
X0176701Y0068022D01*
X0177462Y0068783D01*
X0177462Y0072743D01*
X0178098Y0072106D01*
X0180138Y0070067D01*
X0180138Y0068783D01*
X0180899Y0068022D01*
X0186701Y0068022D01*
X0187462Y0068783D01*
X0187462Y0074585D01*
X0186701Y0075346D01*
X0180899Y0075346D01*
X0180494Y0074940D01*
X0180494Y0075413D01*
X0185461Y0075413D01*
X0186222Y0076175D01*
X0186222Y0080498D01*
X0186378Y0080343D01*
X0186378Y0076175D01*
X0187139Y0075413D01*
X0192547Y0075413D01*
X0192629Y0075495D01*
X0192750Y0075374D01*
X0197961Y0075374D01*
X0198722Y0076136D01*
X0198722Y0081464D01*
X0197961Y0082226D01*
X0193309Y0082226D01*
X0193309Y0082370D01*
X0192547Y0083131D01*
X0188379Y0083131D01*
X0186222Y0085289D01*
X0186222Y0090953D01*
X0186378Y0091109D01*
X0186378Y0085230D01*
X0187139Y0084469D01*
X0192547Y0084469D01*
X0193309Y0085230D01*
X0193309Y0085374D01*
X0197961Y0085374D01*
X0198722Y0086136D01*
X0198722Y0091464D01*
X0198198Y0091988D01*
X0198500Y0091988D01*
X0198500Y0095055D01*
X0199100Y0095055D01*
X0199100Y0091988D01*
X0199418Y0091988D01*
X0199380Y0091966D01*
X0199138Y0091724D01*
X0198967Y0091428D01*
X0198878Y0091097D01*
X0198878Y0089100D01*
X0201945Y0089100D01*
X0201945Y0092226D01*
X0201686Y0092226D01*
X0201724Y0092248D01*
X0201966Y0092490D01*
X0202137Y0092786D01*
X0202226Y0093117D01*
X0202226Y0095055D01*
X0199100Y0095055D01*
X0199100Y0095655D01*
X0202226Y0095655D01*
X0202226Y0097593D01*
X0202137Y0097924D01*
X0201966Y0098220D01*
X0201724Y0098462D01*
X0201428Y0098633D01*
X0201097Y0098722D01*
X0199100Y0098722D01*
X0199100Y0095655D01*
X0198500Y0095655D01*
X0198500Y0095055D01*
X0195374Y0095055D01*
X0195374Y0093117D01*
X0195463Y0092786D01*
X0195634Y0092490D01*
X0195876Y0092248D01*
X0195914Y0092226D01*
X0194324Y0092226D01*
X0191883Y0094667D01*
X0190750Y0094667D01*
X0190750Y0096476D01*
X0191372Y0096476D01*
X0195374Y0100479D01*
X0195374Y0099639D01*
X0196136Y0098878D01*
X0201464Y0098878D01*
X0202226Y0099639D01*
X0202226Y0104850D01*
X0201948Y0105129D01*
X0202265Y0105447D01*
X0202265Y0110461D01*
X0201504Y0111222D01*
X0196096Y0111222D01*
X0195335Y0110461D01*
X0195335Y0105447D01*
X0195652Y0105129D01*
X0195374Y0104850D01*
X0195374Y0103939D01*
X0194043Y0103939D01*
X0190750Y0100645D01*
X0190750Y0102646D01*
X0189988Y0103407D01*
X0186377Y0103407D01*
X0195335Y0112365D01*
X0195335Y0112139D01*
X0196096Y0111378D01*
X0201504Y0111378D01*
X0202265Y0112139D01*
X0202265Y0117153D01*
X0201504Y0117915D01*
X0200900Y0117915D01*
X0200900Y0123420D01*
X0197170Y0127150D01*
X0194463Y0127150D01*
X0196099Y0127588D01*
X0198864Y0129185D01*
X0201122Y0131443D01*
X0202718Y0134208D01*
X0203545Y0137292D01*
X0203545Y0140485D01*
X0202718Y0143569D01*
X0201122Y0146335D01*
X0198996Y0148461D01*
X0204701Y0148461D01*
X0204701Y0092168D01*
X0204483Y0092226D01*
X0202545Y0092226D01*
X0202545Y0089100D01*
X0201945Y0089100D01*
X0201945Y0088500D01*
X0202545Y0088500D01*
X0202545Y0085374D01*
X0204483Y0085374D01*
X0204701Y0085432D01*
X0204701Y0082168D01*
X0204483Y0082226D01*
X0202545Y0082226D01*
X0202545Y0079100D01*
X0201945Y0079100D01*
X0201945Y0082226D01*
X0200007Y0082226D01*
X0199676Y0082137D01*
X0199380Y0081966D01*
X0199138Y0081724D01*
X0198967Y0081428D01*
X0198878Y0081097D01*
X0198878Y0079100D01*
X0201945Y0079100D01*
X0201945Y0078500D01*
X0202545Y0078500D01*
X0202545Y0075374D01*
X0204483Y0075374D01*
X0204701Y0075432D01*
X0204701Y0011600D01*
X0199281Y0011600D01*
X0200886Y0013204D01*
X0202482Y0015970D01*
X0203309Y0019054D01*
X0203309Y0022247D01*
X0202482Y0025331D01*
X0200886Y0028096D01*
X0198628Y0030354D01*
X0195863Y0031951D01*
X0192778Y0032777D01*
X0189585Y0032777D01*
X0186501Y0031951D01*
X0183736Y0030354D01*
X0181478Y0028096D01*
X0179882Y0025331D01*
X0179055Y0022247D01*
X0179055Y0019054D01*
X0179882Y0015970D01*
X0181478Y0013204D01*
X0183082Y0011600D01*
X0137226Y0011600D01*
X0137226Y0012555D01*
X0134100Y0012555D01*
X0134100Y0013155D01*
X0137226Y0013155D01*
X0137226Y0015093D01*
X0137137Y0015424D01*
X0136966Y0015720D01*
X0136724Y0015962D01*
X0136428Y0016133D01*
X0136097Y0016222D01*
X0134100Y0016222D01*
X0134100Y0013155D01*
X0133500Y0013155D01*
X0133500Y0012555D01*
X0130374Y0012555D01*
X0130374Y0011600D01*
X0041958Y0011600D01*
X0043642Y0013283D01*
X0045238Y0016048D01*
X0046065Y0019133D01*
X0046065Y0022326D01*
X0045238Y0025410D01*
X0043642Y0028175D01*
X0041384Y0030433D01*
X0038619Y0032029D01*
X0035534Y0032856D01*
X0032341Y0032856D01*
X0029257Y0032029D01*
X0026492Y0030433D01*
X0024234Y0028175D01*
X0022637Y0025410D01*
X0021811Y0022326D01*
X0021811Y0019133D01*
X0022637Y0016048D01*
X0024234Y0013283D01*
X0025917Y0011600D01*
X0021600Y0011600D01*
X0021600Y0033888D01*
X0021866Y0033888D01*
X0021866Y0037250D01*
X0022466Y0037250D01*
X0022466Y0033888D01*
X0024699Y0033888D01*
X0025030Y0033976D01*
X0025327Y0034148D01*
X0025569Y0034390D01*
X0025740Y0034686D01*
X0025828Y0035017D01*
X0025828Y0037250D01*
X0022466Y0037250D01*
X0022466Y0037850D01*
X0021866Y0037850D01*
X0021866Y0041212D01*
X0021600Y0041212D01*
X0021600Y0059637D01*
X0022672Y0058565D01*
X0024105Y0057971D01*
X0030857Y0057971D01*
X0032290Y0058565D01*
X0033387Y0059662D01*
X0033981Y0061095D01*
X0033981Y0062647D01*
X0033387Y0064080D01*
X0032290Y0065177D01*
X0030857Y0065771D01*
X0024105Y0065771D01*
X0022672Y0065177D01*
X0021600Y0064105D01*
X0021600Y0148461D01*
X0026449Y0148461D01*
X0024234Y0146246D01*
X0022637Y0143481D01*
X0021811Y0140397D01*
X0021811Y0137203D01*
X0022637Y0134119D01*
X0024234Y0131354D01*
X0026492Y0129096D01*
X0029257Y0127500D01*
X0032341Y0126673D01*
X0035534Y0126673D01*
X0038619Y0127500D01*
X0041384Y0129096D01*
X0043642Y0131354D01*
X0045238Y0134119D01*
X0046065Y0137203D01*
X0046065Y0140397D01*
X0045238Y0143481D01*
X0043642Y0146246D01*
X0041427Y0148461D01*
X0183840Y0148461D01*
X0181714Y0146335D01*
X0180118Y0143569D01*
X0179291Y0140485D01*
X0179291Y0137292D01*
X0180118Y0134208D01*
X0181714Y0131443D01*
X0183972Y0129185D01*
X0186737Y0127588D01*
X0188373Y0127150D01*
X0182170Y0127150D01*
X0177170Y0132150D01*
X0156092Y0132150D01*
X0156601Y0132520D01*
X0157080Y0132999D01*
X0157478Y0133546D01*
X0157785Y0134149D01*
X0157994Y0134793D01*
X0158100Y0135462D01*
X0158100Y0138500D01*
X0154100Y0138500D01*
X0154100Y0139100D01*
X0153500Y0139100D01*
X0153500Y0146100D01*
X0153462Y0146100D01*
X0152793Y0145994D01*
X0152149Y0145785D01*
X0151546Y0145478D01*
X0150999Y0145080D01*
X0150520Y0144601D01*
X0150122Y0144054D01*
X0149815Y0143451D01*
X0149606Y0142807D01*
X0149500Y0142138D01*
X0149500Y0139100D01*
X0153500Y0139100D01*
X0153500Y0138500D01*
X0154100Y0138500D01*
X0154100Y0132070D01*
X0152855Y0130825D01*
X0151570Y0132110D01*
X0152149Y0131815D01*
X0152793Y0131606D01*
X0153462Y0131500D01*
X0153500Y0131500D01*
X0153500Y0138500D01*
X0149500Y0138500D01*
X0149500Y0135462D01*
X0149606Y0134793D01*
X0149815Y0134149D01*
X0150122Y0133546D01*
X0150520Y0132999D01*
X0150999Y0132520D01*
X0151508Y0132150D01*
X0146224Y0132150D01*
X0146236Y0132155D01*
X0147445Y0133364D01*
X0148100Y0134945D01*
X0148100Y0142655D01*
X0147445Y0144236D01*
X0146236Y0145445D01*
X0144655Y0146100D01*
X0142945Y0146100D01*
X0141364Y0145445D01*
X0140155Y0144236D01*
X0139500Y0142655D01*
X0139500Y0134945D01*
X0140155Y0133364D01*
X0141364Y0132155D01*
X0141375Y0132150D01*
X0136225Y0132150D01*
X0136236Y0132155D01*
X0137445Y0133364D01*
X0138100Y0134945D01*
X0138100Y0142655D01*
X0137445Y0144236D01*
X0136236Y0145445D01*
X0134655Y0146100D01*
X0132945Y0146100D01*
X0131364Y0145445D01*
X0130155Y0144236D01*
X0129500Y0142655D01*
X0129500Y0134945D01*
X0130155Y0133364D01*
X0131364Y0132155D01*
X0131375Y0132150D01*
X0130430Y0132150D01*
X0129745Y0131465D01*
X0129060Y0132150D01*
X0106680Y0132150D01*
X0101021Y0126491D01*
X0101005Y0126491D01*
X0097994Y0129502D01*
X0097994Y0132185D01*
X0099004Y0132185D01*
X0099765Y0132947D01*
X0099765Y0133760D01*
X0105335Y0133760D01*
X0105335Y0132947D01*
X0106096Y0132185D01*
X0111504Y0132185D01*
X0112265Y0132947D01*
X0112265Y0137961D01*
X0111504Y0138722D01*
X0106096Y0138722D01*
X0105335Y0137961D01*
X0105335Y0137147D01*
X0102042Y0137147D01*
X0102994Y0138098D01*
X0102994Y0138098D01*
X0105335Y0140439D01*
X0105335Y0139639D01*
X0106096Y0138878D01*
X0111504Y0138878D01*
X0112265Y0139639D01*
X0112265Y0144653D01*
X0111504Y0145415D01*
X0106096Y0145415D01*
X0105335Y0144653D01*
X0105335Y0143840D01*
X0103945Y0143840D01*
X0100598Y0140494D01*
X0099765Y0140494D01*
X0099765Y0144653D01*
X0099004Y0145415D01*
X0097994Y0145415D01*
X0097994Y0145752D01*
X0097177Y0146568D01*
X0096185Y0147561D01*
X0065598Y0147561D01*
X0064606Y0146568D01*
X0063557Y0145519D01*
X0062155Y0146100D01*
X0060445Y0146100D01*
X0058864Y0145445D01*
X0057655Y0144236D01*
X0057000Y0142655D01*
X0057000Y0134945D01*
X0057655Y0133364D01*
X0058864Y0132155D01*
X0060445Y0131500D01*
X0062155Y0131500D01*
X0063736Y0132155D01*
X0064945Y0133364D01*
X0065600Y0134945D01*
X0065600Y0142655D01*
X0065566Y0142738D01*
X0067002Y0144173D01*
X0070209Y0144173D01*
X0070122Y0144054D01*
X0069815Y0143451D01*
X0069606Y0142807D01*
X0069500Y0142138D01*
X0069500Y0139100D01*
X0073500Y0139100D01*
X0073500Y0138500D01*
X0074100Y0138500D01*
X0074100Y0139100D01*
X0078100Y0139100D01*
X0078100Y0142138D01*
X0077994Y0142807D01*
X0077785Y0143451D01*
X0077478Y0144054D01*
X0077391Y0144173D01*
X0080129Y0144173D01*
X0079500Y0142655D01*
X0079500Y0134945D01*
X0080155Y0133364D01*
X0081364Y0132155D01*
X0082945Y0131500D01*
X0084655Y0131500D01*
X0086236Y0132155D01*
X0087445Y0133364D01*
X0088100Y0134945D01*
X0088100Y0137106D01*
X0092835Y0137106D01*
X0092835Y0132947D01*
X0093596Y0132185D01*
X0094606Y0132185D01*
X0094606Y0128098D01*
X0095598Y0127106D01*
X0098609Y0124095D01*
X0098609Y0123265D01*
X0099019Y0122276D01*
X0099776Y0121519D01*
X0100765Y0121109D01*
X0101835Y0121109D01*
X0102824Y0121519D01*
X0103581Y0122276D01*
X0103991Y0123265D01*
X0103991Y0123521D01*
X0108420Y0127950D01*
X0127320Y0127950D01*
X0127645Y0127625D01*
X0127645Y0127226D01*
X0127139Y0127226D01*
X0126378Y0126464D01*
X0126378Y0121273D01*
X0120598Y0115494D01*
X0110598Y0115494D01*
X0109606Y0114502D01*
X0102173Y0107068D01*
X0100693Y0107068D01*
X0100012Y0106388D01*
X0099909Y0106567D01*
X0099667Y0106809D01*
X0099371Y0106980D01*
X0099040Y0107068D01*
X0097004Y0107068D01*
X0097004Y0104100D01*
X0096404Y0104100D01*
X0096404Y0107068D01*
X0094367Y0107068D01*
X0094036Y0106980D01*
X0093740Y0106809D01*
X0093498Y0106567D01*
X0093327Y0106270D01*
X0093238Y0105940D01*
X0093238Y0104100D01*
X0096403Y0104100D01*
X0096403Y0103500D01*
X0093238Y0103500D01*
X0093238Y0101660D01*
X0093327Y0101330D01*
X0093498Y0101033D01*
X0093740Y0100791D01*
X0094036Y0100620D01*
X0094367Y0100531D01*
X0096404Y0100531D01*
X0096404Y0103500D01*
X0097004Y0103500D01*
X0097004Y0100531D01*
X0099040Y0100531D01*
X0099371Y0100620D01*
X0099667Y0100791D01*
X0099909Y0101033D01*
X0100012Y0101212D01*
X0100664Y0100560D01*
X0100598Y0100494D01*
X0099606Y0099502D01*
X0099606Y0091848D01*
X0100598Y0090856D01*
X0101848Y0089606D01*
X0102087Y0089606D01*
X0102087Y0089580D01*
X0102848Y0088819D01*
X0110224Y0088819D01*
X0110986Y0089580D01*
X0110986Y0093020D01*
X0110224Y0093781D01*
X0102994Y0093781D01*
X0102994Y0093819D01*
X0110224Y0093819D01*
X0110986Y0094580D01*
X0110986Y0094606D01*
X0113098Y0094606D01*
X0114606Y0093098D01*
X0114606Y0088098D01*
X0116069Y0086635D01*
X0114240Y0086635D01*
X0110805Y0083200D01*
X0110224Y0083781D01*
X0102848Y0083781D01*
X0102087Y0083020D01*
X0102087Y0079580D01*
X0102848Y0078819D01*
X0110224Y0078819D01*
X0110986Y0079580D01*
X0110986Y0079606D01*
X0111285Y0079606D01*
X0109550Y0077871D01*
X0109550Y0077226D01*
X0108155Y0077226D01*
X0108155Y0074100D01*
X0107555Y0074100D01*
X0107555Y0073500D01*
X0104488Y0073500D01*
X0104488Y0071503D01*
X0104577Y0071172D01*
X0104748Y0070876D01*
X0104990Y0070634D01*
X0105286Y0070463D01*
X0105617Y0070374D01*
X0107555Y0070374D01*
X0107555Y0073500D01*
X0108155Y0073500D01*
X0108155Y0070374D01*
X0109550Y0070374D01*
X0109550Y0069445D01*
X0105598Y0065494D01*
X0083098Y0065494D01*
X0074941Y0057336D01*
X0074941Y0047347D01*
X0074199Y0047040D01*
X0072989Y0045830D01*
X0072335Y0044250D01*
X0072335Y0036539D01*
X0072989Y0034959D01*
X0074199Y0033749D01*
X0075779Y0033094D01*
X0077490Y0033094D01*
X0079070Y0033749D01*
X0080280Y0034959D01*
X0080935Y0036539D01*
X0080935Y0044250D01*
X0080280Y0045830D01*
X0079070Y0047040D01*
X0078328Y0047347D01*
X0078328Y0055933D01*
X0084502Y0062106D01*
X0107002Y0062106D01*
X0107994Y0063098D01*
X0111945Y0067050D01*
X0112025Y0067050D01*
X0112645Y0067670D01*
X0112645Y0066234D01*
X0112276Y0066081D01*
X0111519Y0065324D01*
X0111109Y0064335D01*
X0111109Y0063265D01*
X0111519Y0062276D01*
X0112051Y0061744D01*
X0091848Y0061744D01*
X0084941Y0054836D01*
X0084941Y0047347D01*
X0084199Y0047040D01*
X0082989Y0045830D01*
X0082335Y0044250D01*
X0082335Y0036539D01*
X0082989Y0034959D01*
X0084199Y0033749D01*
X0085779Y0033094D01*
X0087490Y0033094D01*
X0089070Y0033749D01*
X0090280Y0034959D01*
X0090935Y0036539D01*
X0090935Y0044250D01*
X0090280Y0045830D01*
X0089070Y0047040D01*
X0088328Y0047347D01*
X0088328Y0053433D01*
X0093252Y0058356D01*
X0099551Y0058356D01*
X0099019Y0057824D01*
X0098609Y0056835D01*
X0098609Y0055765D01*
X0099019Y0054776D01*
X0099776Y0054019D01*
X0100236Y0053829D01*
X0102384Y0051681D01*
X0103303Y0051300D01*
X0120048Y0051300D01*
X0119720Y0051164D01*
X0118936Y0050380D01*
X0118511Y0049355D01*
X0118511Y0048245D01*
X0118936Y0047220D01*
X0119606Y0046549D01*
X0119606Y0040415D01*
X0116096Y0040415D01*
X0115335Y0039653D01*
X0115335Y0039339D02*
X0090935Y0039339D01*
X0090935Y0039937D02*
X0115618Y0039937D01*
X0115335Y0038740D02*
X0090935Y0038740D01*
X0090935Y0038141D02*
X0115335Y0038141D01*
X0115335Y0037543D02*
X0090935Y0037543D01*
X0090935Y0036944D02*
X0115335Y0036944D01*
X0115335Y0036346D02*
X0090855Y0036346D01*
X0090607Y0035747D02*
X0115335Y0035747D01*
X0115335Y0035149D02*
X0090359Y0035149D01*
X0089872Y0034550D02*
X0115424Y0034550D01*
X0116022Y0033952D02*
X0089273Y0033952D01*
X0088115Y0033353D02*
X0115728Y0033353D01*
X0115335Y0032755D02*
X0035911Y0032755D01*
X0036697Y0034085D02*
X0041711Y0034085D01*
X0042472Y0034846D01*
X0042472Y0040254D01*
X0041711Y0041015D01*
X0036697Y0041015D01*
X0035935Y0040254D01*
X0035935Y0039244D01*
X0034096Y0039244D01*
X0034096Y0040451D01*
X0033335Y0041212D01*
X0027533Y0041212D01*
X0026772Y0040451D01*
X0026772Y0034649D01*
X0027533Y0033888D01*
X0033335Y0033888D01*
X0034096Y0034649D01*
X0034096Y0035856D01*
X0035935Y0035856D01*
X0035935Y0034846D01*
X0036697Y0034085D01*
X0036231Y0034550D02*
X0033997Y0034550D01*
X0034096Y0035149D02*
X0035935Y0035149D01*
X0035935Y0035747D02*
X0034096Y0035747D01*
X0033399Y0033952D02*
X0053996Y0033952D01*
X0054199Y0033749D02*
X0055779Y0033094D01*
X0057490Y0033094D01*
X0059070Y0033749D01*
X0060280Y0034959D01*
X0060935Y0036539D01*
X0060935Y0044250D01*
X0060280Y0045830D01*
X0059070Y0047040D01*
X0057490Y0047694D01*
X0055779Y0047694D01*
X0054199Y0047040D01*
X0052989Y0045830D01*
X0052335Y0044250D01*
X0052335Y0039244D01*
X0049165Y0039244D01*
X0049165Y0040254D01*
X0048403Y0041015D01*
X0043389Y0041015D01*
X0042628Y0040254D01*
X0042628Y0034846D01*
X0043389Y0034085D01*
X0048403Y0034085D01*
X0049165Y0034846D01*
X0049165Y0035856D01*
X0052617Y0035856D01*
X0052989Y0034959D01*
X0054199Y0033749D01*
X0055154Y0033353D02*
X0021600Y0033353D01*
X0021600Y0032755D02*
X0031964Y0032755D01*
X0029731Y0032156D02*
X0021600Y0032156D01*
X0021600Y0031558D02*
X0028440Y0031558D01*
X0027404Y0030959D02*
X0021600Y0030959D01*
X0021600Y0030361D02*
X0026420Y0030361D01*
X0025821Y0029762D02*
X0021600Y0029762D01*
X0021600Y0029164D02*
X0025223Y0029164D01*
X0024624Y0028565D02*
X0021600Y0028565D01*
X0021600Y0027967D02*
X0024114Y0027967D01*
X0023768Y0027368D02*
X0021600Y0027368D01*
X0021600Y0026770D02*
X0023423Y0026770D01*
X0023077Y0026171D02*
X0021600Y0026171D01*
X0021600Y0025573D02*
X0022731Y0025573D01*
X0022521Y0024974D02*
X0021600Y0024974D01*
X0021600Y0024376D02*
X0022360Y0024376D01*
X0022200Y0023777D02*
X0021600Y0023777D01*
X0021600Y0023179D02*
X0022040Y0023179D01*
X0021879Y0022580D02*
X0021600Y0022580D01*
X0021600Y0021982D02*
X0021811Y0021982D01*
X0021811Y0021383D02*
X0021600Y0021383D01*
X0021600Y0020785D02*
X0021811Y0020785D01*
X0021811Y0020186D02*
X0021600Y0020186D01*
X0021600Y0019588D02*
X0021811Y0019588D01*
X0021849Y0018989D02*
X0021600Y0018989D01*
X0021600Y0018391D02*
X0022010Y0018391D01*
X0022170Y0017792D02*
X0021600Y0017792D01*
X0021600Y0017194D02*
X0022331Y0017194D01*
X0022491Y0016595D02*
X0021600Y0016595D01*
X0021600Y0015997D02*
X0022667Y0015997D01*
X0023013Y0015398D02*
X0021600Y0015398D01*
X0021600Y0014800D02*
X0023358Y0014800D01*
X0023704Y0014201D02*
X0021600Y0014201D01*
X0021600Y0013603D02*
X0024050Y0013603D01*
X0024513Y0013004D02*
X0021600Y0013004D01*
X0021600Y0012405D02*
X0025112Y0012405D01*
X0025710Y0011807D02*
X0021600Y0011807D01*
X0042165Y0011807D02*
X0130374Y0011807D01*
X0130374Y0012405D02*
X0042764Y0012405D01*
X0043362Y0013004D02*
X0133500Y0013004D01*
X0133500Y0013155D02*
X0130374Y0013155D01*
X0130374Y0015093D01*
X0130463Y0015424D01*
X0130634Y0015720D01*
X0130876Y0015962D01*
X0131172Y0016133D01*
X0131503Y0016222D01*
X0133500Y0016222D01*
X0133500Y0013155D01*
X0133500Y0013603D02*
X0134100Y0013603D01*
X0134100Y0014201D02*
X0133500Y0014201D01*
X0133500Y0014800D02*
X0134100Y0014800D01*
X0134100Y0015398D02*
X0133500Y0015398D01*
X0133500Y0015997D02*
X0134100Y0015997D01*
X0136665Y0015997D02*
X0145374Y0015997D01*
X0145374Y0015617D02*
X0145463Y0015286D01*
X0145634Y0014990D01*
X0145876Y0014748D01*
X0146172Y0014577D01*
X0146503Y0014488D01*
X0148500Y0014488D01*
X0148500Y0017555D01*
X0149100Y0017555D01*
X0149100Y0014488D01*
X0151097Y0014488D01*
X0151428Y0014577D01*
X0151724Y0014748D01*
X0151966Y0014990D01*
X0152137Y0015286D01*
X0152226Y0015617D01*
X0152226Y0017555D01*
X0149100Y0017555D01*
X0149100Y0018155D01*
X0152226Y0018155D01*
X0152226Y0020093D01*
X0152137Y0020424D01*
X0151966Y0020720D01*
X0151724Y0020962D01*
X0151428Y0021133D01*
X0151097Y0021222D01*
X0149100Y0021222D01*
X0149100Y0018155D01*
X0148500Y0018155D01*
X0148500Y0017555D01*
X0145374Y0017555D01*
X0145374Y0015617D01*
X0145433Y0015398D02*
X0137144Y0015398D01*
X0137226Y0014800D02*
X0145824Y0014800D01*
X0145374Y0016595D02*
X0136682Y0016595D01*
X0137226Y0017194D02*
X0145374Y0017194D01*
X0145374Y0018155D02*
X0148500Y0018155D01*
X0148500Y0021222D01*
X0146503Y0021222D01*
X0146172Y0021133D01*
X0145876Y0020962D01*
X0145634Y0020720D01*
X0145463Y0020424D01*
X0145374Y0020093D01*
X0145374Y0018155D01*
X0145374Y0018391D02*
X0137226Y0018391D01*
X0137226Y0018989D02*
X0137348Y0018989D01*
X0137226Y0017792D02*
X0148500Y0017792D01*
X0148500Y0017194D02*
X0149100Y0017194D01*
X0149100Y0017792D02*
X0179393Y0017792D01*
X0179554Y0017194D02*
X0152226Y0017194D01*
X0152226Y0016595D02*
X0179714Y0016595D01*
X0179874Y0015997D02*
X0152226Y0015997D01*
X0152167Y0015398D02*
X0180212Y0015398D01*
X0180557Y0014800D02*
X0151776Y0014800D01*
X0149100Y0014800D02*
X0148500Y0014800D01*
X0148500Y0015398D02*
X0149100Y0015398D01*
X0149100Y0015997D02*
X0148500Y0015997D01*
X0148500Y0016595D02*
X0149100Y0016595D01*
X0149100Y0018391D02*
X0148500Y0018391D01*
X0148500Y0018989D02*
X0149100Y0018989D01*
X0149100Y0019588D02*
X0148500Y0019588D01*
X0148500Y0020186D02*
X0149100Y0020186D01*
X0149100Y0020785D02*
X0148500Y0020785D01*
X0146130Y0021383D02*
X0141491Y0021383D01*
X0141491Y0020785D02*
X0145698Y0020785D01*
X0145399Y0020186D02*
X0141251Y0020186D01*
X0140893Y0019588D02*
X0145374Y0019588D01*
X0145374Y0018989D02*
X0140252Y0018989D01*
X0141430Y0021982D02*
X0145532Y0021982D01*
X0145374Y0022580D02*
X0141182Y0022580D01*
X0140726Y0023179D02*
X0144659Y0023179D01*
X0144060Y0023777D02*
X0139850Y0023777D01*
X0139332Y0024376D02*
X0143462Y0024376D01*
X0142863Y0024974D02*
X0139332Y0024974D01*
X0139332Y0025573D02*
X0142265Y0025573D01*
X0142200Y0026171D02*
X0139431Y0026171D01*
X0139431Y0026770D02*
X0142200Y0026770D01*
X0142200Y0027368D02*
X0139431Y0027368D01*
X0139431Y0027967D02*
X0142200Y0027967D01*
X0143800Y0026300D02*
X0143800Y0029863D01*
X0143800Y0048800D01*
X0138800Y0043800D01*
X0133800Y0043800D01*
X0133013Y0043013D01*
X0133013Y0039902D01*
X0133013Y0040576D01*
X0131438Y0039902D02*
X0131438Y0043938D01*
X0136300Y0048800D01*
X0140400Y0043137D02*
X0142200Y0044937D01*
X0142200Y0038819D01*
X0141927Y0039092D01*
X0141540Y0039315D01*
X0141110Y0039431D01*
X0139902Y0039431D01*
X0139431Y0039431D01*
X0139431Y0041588D01*
X0138819Y0042200D01*
X0139463Y0042200D01*
X0140400Y0043137D01*
X0140192Y0042930D02*
X0142200Y0042930D01*
X0142200Y0043528D02*
X0140791Y0043528D01*
X0141389Y0044127D02*
X0142200Y0044127D01*
X0142200Y0044725D02*
X0141988Y0044725D01*
X0142200Y0042331D02*
X0139594Y0042331D01*
X0139286Y0041733D02*
X0142200Y0041733D01*
X0142200Y0041134D02*
X0139431Y0041134D01*
X0139431Y0040536D02*
X0142200Y0040536D01*
X0142200Y0039937D02*
X0139431Y0039937D01*
X0139902Y0039431D02*
X0139902Y0037856D01*
X0139902Y0037856D01*
X0139902Y0039431D01*
X0139902Y0039339D02*
X0139902Y0039339D01*
X0139902Y0038740D02*
X0139902Y0038740D01*
X0139902Y0038141D02*
X0139902Y0038141D01*
X0139902Y0037737D02*
X0137737Y0037737D01*
X0133800Y0033800D01*
X0136162Y0036162D01*
X0136162Y0039902D01*
X0134100Y0037224D02*
X0134100Y0034100D01*
X0133500Y0034100D01*
X0133500Y0037224D01*
X0133714Y0037224D01*
X0133800Y0037310D01*
X0133886Y0037224D01*
X0134100Y0037224D01*
X0134100Y0036944D02*
X0133500Y0036944D01*
X0133500Y0036346D02*
X0134100Y0036346D01*
X0134100Y0035747D02*
X0133500Y0035747D01*
X0133500Y0035149D02*
X0134100Y0035149D01*
X0134100Y0034550D02*
X0133500Y0034550D01*
X0133500Y0034100D02*
X0133500Y0033500D01*
X0133500Y0031413D01*
X0134100Y0031413D01*
X0134100Y0033500D01*
X0134100Y0034100D01*
X0137224Y0034100D01*
X0137224Y0033886D01*
X0137310Y0033800D01*
X0137224Y0033714D01*
X0137224Y0033500D01*
X0134100Y0033500D01*
X0133500Y0033500D01*
X0130376Y0033500D01*
X0130376Y0033714D01*
X0130290Y0033800D01*
X0130376Y0033886D01*
X0130376Y0034100D01*
X0133500Y0034100D01*
X0133500Y0033952D02*
X0130376Y0033952D01*
X0133500Y0033353D02*
X0134100Y0033353D01*
X0134100Y0032755D02*
X0133500Y0032755D01*
X0133500Y0032156D02*
X0134100Y0032156D01*
X0134100Y0031558D02*
X0133500Y0031558D01*
X0134100Y0033952D02*
X0137224Y0033952D01*
X0139902Y0029863D02*
X0143800Y0029863D01*
X0148209Y0029863D01*
X0148800Y0030454D01*
X0152265Y0030361D02*
X0183747Y0030361D01*
X0183144Y0029762D02*
X0152265Y0029762D01*
X0152265Y0029164D02*
X0182545Y0029164D01*
X0181947Y0028565D02*
X0152265Y0028565D01*
X0152265Y0027967D02*
X0181403Y0027967D01*
X0181058Y0027368D02*
X0152208Y0027368D01*
X0152226Y0026770D02*
X0180712Y0026770D01*
X0180367Y0026171D02*
X0152226Y0026171D01*
X0152226Y0025573D02*
X0180021Y0025573D01*
X0179786Y0024974D02*
X0152226Y0024974D01*
X0152226Y0024376D02*
X0179626Y0024376D01*
X0179465Y0023777D02*
X0152226Y0023777D01*
X0152226Y0023179D02*
X0179305Y0023179D01*
X0179144Y0022580D02*
X0152226Y0022580D01*
X0152068Y0021982D02*
X0179055Y0021982D01*
X0179055Y0021383D02*
X0151470Y0021383D01*
X0151902Y0020785D02*
X0179055Y0020785D01*
X0179055Y0020186D02*
X0152201Y0020186D01*
X0152226Y0019588D02*
X0179055Y0019588D01*
X0179072Y0018989D02*
X0152226Y0018989D01*
X0152226Y0018391D02*
X0179233Y0018391D01*
X0180903Y0014201D02*
X0137226Y0014201D01*
X0137226Y0013603D02*
X0181248Y0013603D01*
X0181678Y0013004D02*
X0134100Y0013004D01*
X0137226Y0012405D02*
X0182277Y0012405D01*
X0182875Y0011807D02*
X0137226Y0011807D01*
X0130374Y0013603D02*
X0043826Y0013603D01*
X0044172Y0014201D02*
X0130374Y0014201D01*
X0130374Y0014800D02*
X0044517Y0014800D01*
X0044863Y0015398D02*
X0130456Y0015398D01*
X0130935Y0015997D02*
X0045208Y0015997D01*
X0045385Y0016595D02*
X0130918Y0016595D01*
X0130374Y0017194D02*
X0045545Y0017194D01*
X0045705Y0017792D02*
X0130374Y0017792D01*
X0130374Y0018391D02*
X0045866Y0018391D01*
X0046026Y0018989D02*
X0130374Y0018989D01*
X0130374Y0019588D02*
X0046065Y0019588D01*
X0046065Y0020186D02*
X0130374Y0020186D01*
X0130374Y0020785D02*
X0046065Y0020785D01*
X0046065Y0021383D02*
X0130374Y0021383D01*
X0130374Y0021982D02*
X0046065Y0021982D01*
X0045996Y0022580D02*
X0122828Y0022580D01*
X0122229Y0023179D02*
X0045836Y0023179D01*
X0045676Y0023777D02*
X0121631Y0023777D01*
X0121032Y0024376D02*
X0045515Y0024376D01*
X0045355Y0024974D02*
X0120434Y0024974D01*
X0119835Y0025573D02*
X0045144Y0025573D01*
X0044799Y0026171D02*
X0119237Y0026171D01*
X0118638Y0026770D02*
X0044453Y0026770D01*
X0044107Y0027368D02*
X0115913Y0027368D01*
X0115335Y0027967D02*
X0043762Y0027967D01*
X0043251Y0028565D02*
X0115335Y0028565D01*
X0115335Y0029164D02*
X0042653Y0029164D01*
X0042054Y0029762D02*
X0115335Y0029762D01*
X0115335Y0030361D02*
X0041456Y0030361D01*
X0040472Y0030959D02*
X0115335Y0030959D01*
X0115335Y0031558D02*
X0039435Y0031558D01*
X0038145Y0032156D02*
X0115335Y0032156D01*
X0121578Y0033952D02*
X0121696Y0033952D01*
X0122176Y0034550D02*
X0122205Y0034550D01*
X0119606Y0040536D02*
X0090935Y0040536D01*
X0090935Y0041134D02*
X0119606Y0041134D01*
X0119606Y0041733D02*
X0090935Y0041733D01*
X0090935Y0042331D02*
X0119606Y0042331D01*
X0119606Y0042930D02*
X0090935Y0042930D01*
X0090935Y0043528D02*
X0119606Y0043528D01*
X0119606Y0044127D02*
X0090935Y0044127D01*
X0090738Y0044725D02*
X0119606Y0044725D01*
X0119606Y0045324D02*
X0090490Y0045324D01*
X0090188Y0045922D02*
X0119606Y0045922D01*
X0119606Y0046521D02*
X0089590Y0046521D01*
X0088879Y0047119D02*
X0119037Y0047119D01*
X0118730Y0047718D02*
X0088328Y0047718D01*
X0088328Y0048316D02*
X0118511Y0048316D01*
X0118511Y0048915D02*
X0088328Y0048915D01*
X0088328Y0049513D02*
X0118577Y0049513D01*
X0118825Y0050112D02*
X0088328Y0050112D01*
X0088328Y0050710D02*
X0119266Y0050710D01*
X0128800Y0048800D02*
X0129863Y0047737D01*
X0129863Y0039902D01*
X0141454Y0039339D02*
X0142200Y0039339D01*
X0145400Y0034550D02*
X0145424Y0034550D01*
X0145400Y0033952D02*
X0146022Y0033952D01*
X0145728Y0033353D02*
X0145400Y0033353D01*
X0151578Y0033952D02*
X0204701Y0033952D01*
X0204701Y0034550D02*
X0200277Y0034550D01*
X0200155Y0034500D02*
X0201736Y0035155D01*
X0202945Y0036364D01*
X0203600Y0037945D01*
X0203600Y0039655D01*
X0202945Y0041236D01*
X0201736Y0042445D01*
X0200155Y0043100D01*
X0192445Y0043100D01*
X0190864Y0042445D01*
X0189655Y0041236D01*
X0189000Y0039655D01*
X0189000Y0037945D01*
X0189655Y0036364D01*
X0190864Y0035155D01*
X0192445Y0034500D01*
X0200155Y0034500D01*
X0201722Y0035149D02*
X0204701Y0035149D01*
X0204701Y0035747D02*
X0202329Y0035747D01*
X0202927Y0036346D02*
X0204701Y0036346D01*
X0204701Y0036944D02*
X0203186Y0036944D01*
X0203434Y0037543D02*
X0204701Y0037543D01*
X0204701Y0038141D02*
X0203600Y0038141D01*
X0203600Y0038740D02*
X0204701Y0038740D01*
X0204701Y0039339D02*
X0203600Y0039339D01*
X0203483Y0039937D02*
X0204701Y0039937D01*
X0204701Y0040536D02*
X0203235Y0040536D01*
X0202987Y0041134D02*
X0204701Y0041134D01*
X0204701Y0041733D02*
X0202449Y0041733D01*
X0201850Y0042331D02*
X0204701Y0042331D01*
X0204701Y0042930D02*
X0200567Y0042930D01*
X0200699Y0044725D02*
X0204701Y0044725D01*
X0204701Y0044127D02*
X0190272Y0044127D01*
X0190870Y0044725D02*
X0191901Y0044725D01*
X0192033Y0042930D02*
X0189075Y0042930D01*
X0189673Y0043528D02*
X0204701Y0043528D01*
X0204701Y0045324D02*
X0201905Y0045324D01*
X0202503Y0045922D02*
X0204701Y0045922D01*
X0204701Y0046521D02*
X0203010Y0046521D01*
X0203258Y0047119D02*
X0204701Y0047119D01*
X0204701Y0047718D02*
X0203506Y0047718D01*
X0203600Y0048316D02*
X0204701Y0048316D01*
X0204701Y0048915D02*
X0203600Y0048915D01*
X0203600Y0049513D02*
X0204701Y0049513D01*
X0204701Y0050112D02*
X0203411Y0050112D01*
X0203163Y0050710D02*
X0204701Y0050710D01*
X0204701Y0051309D02*
X0202872Y0051309D01*
X0202274Y0051907D02*
X0204701Y0051907D01*
X0204701Y0052506D02*
X0201590Y0052506D01*
X0200951Y0054815D02*
X0201554Y0055122D01*
X0202101Y0055520D01*
X0202580Y0055999D01*
X0202978Y0056546D01*
X0203285Y0057149D01*
X0203494Y0057793D01*
X0203600Y0058462D01*
X0203600Y0058500D01*
X0196600Y0058500D01*
X0196600Y0059100D01*
X0196000Y0059100D01*
X0196000Y0063100D01*
X0192962Y0063100D01*
X0192293Y0062994D01*
X0191649Y0062785D01*
X0191046Y0062478D01*
X0190499Y0062080D01*
X0190020Y0061601D01*
X0189622Y0061054D01*
X0189315Y0060451D01*
X0189106Y0059807D01*
X0189000Y0059138D01*
X0189000Y0059100D01*
X0196000Y0059100D01*
X0196000Y0058500D01*
X0196600Y0058500D01*
X0196600Y0054500D01*
X0199638Y0054500D01*
X0200307Y0054606D01*
X0200951Y0054815D01*
X0201117Y0054900D02*
X0204701Y0054900D01*
X0204701Y0055498D02*
X0202071Y0055498D01*
X0202651Y0056097D02*
X0204701Y0056097D01*
X0204701Y0056695D02*
X0203054Y0056695D01*
X0203332Y0057294D02*
X0204701Y0057294D01*
X0204701Y0057892D02*
X0203510Y0057892D01*
X0203600Y0058491D02*
X0204701Y0058491D01*
X0204701Y0059089D02*
X0196600Y0059089D01*
X0196600Y0059100D02*
X0203600Y0059100D01*
X0203600Y0059138D01*
X0203494Y0059807D01*
X0203285Y0060451D01*
X0202978Y0061054D01*
X0202580Y0061601D01*
X0202101Y0062080D01*
X0201554Y0062478D01*
X0200951Y0062785D01*
X0200307Y0062994D01*
X0199638Y0063100D01*
X0196600Y0063100D01*
X0196600Y0059100D01*
X0196600Y0059688D02*
X0196000Y0059688D01*
X0196000Y0060286D02*
X0196600Y0060286D01*
X0196600Y0060885D02*
X0196000Y0060885D01*
X0196000Y0061483D02*
X0196600Y0061483D01*
X0196600Y0062082D02*
X0196000Y0062082D01*
X0196000Y0062680D02*
X0196600Y0062680D01*
X0196000Y0059089D02*
X0187265Y0059089D01*
X0187265Y0059653D02*
X0186933Y0059986D01*
X0187462Y0060515D01*
X0187462Y0066317D01*
X0186701Y0067078D01*
X0180899Y0067078D01*
X0180138Y0066317D01*
X0180138Y0060515D01*
X0180667Y0059986D01*
X0180335Y0059653D01*
X0180335Y0054639D01*
X0181096Y0053878D01*
X0186504Y0053878D01*
X0187265Y0054639D01*
X0187265Y0059653D01*
X0187231Y0059688D02*
X0189087Y0059688D01*
X0189262Y0060286D02*
X0187233Y0060286D01*
X0187462Y0060885D02*
X0189536Y0060885D01*
X0189935Y0061483D02*
X0187462Y0061483D01*
X0187462Y0062082D02*
X0190502Y0062082D01*
X0191444Y0062680D02*
X0187462Y0062680D01*
X0187462Y0063279D02*
X0204701Y0063279D01*
X0204701Y0063877D02*
X0187462Y0063877D01*
X0187462Y0064476D02*
X0204701Y0064476D01*
X0204701Y0065074D02*
X0187462Y0065074D01*
X0187462Y0065673D02*
X0204701Y0065673D01*
X0204701Y0066272D02*
X0187462Y0066272D01*
X0186909Y0066870D02*
X0204701Y0066870D01*
X0204701Y0067469D02*
X0168661Y0067469D01*
X0168909Y0068067D02*
X0170854Y0068067D01*
X0170255Y0068666D02*
X0168991Y0068666D01*
X0168991Y0069264D02*
X0170138Y0069264D01*
X0170138Y0069863D02*
X0168772Y0069863D01*
X0168444Y0070461D02*
X0170138Y0070461D01*
X0170138Y0071060D02*
X0168100Y0071060D01*
X0168100Y0071658D02*
X0170138Y0071658D01*
X0170138Y0072257D02*
X0168100Y0072257D01*
X0168100Y0072855D02*
X0170138Y0072855D01*
X0170138Y0073454D02*
X0168100Y0073454D01*
X0168100Y0074052D02*
X0170138Y0074052D01*
X0170204Y0074651D02*
X0167995Y0074651D01*
X0167396Y0075249D02*
X0170802Y0075249D01*
X0172106Y0075848D02*
X0166727Y0075848D01*
X0166129Y0076446D02*
X0172106Y0076446D01*
X0172106Y0077045D02*
X0165530Y0077045D01*
X0165540Y0077643D02*
X0164932Y0077643D01*
X0165276Y0078242D02*
X0164333Y0078242D01*
X0163735Y0078840D02*
X0165276Y0078840D01*
X0165276Y0079439D02*
X0163136Y0079439D01*
X0163050Y0080037D02*
X0165276Y0080037D01*
X0165276Y0080636D02*
X0163050Y0080636D01*
X0163050Y0081234D02*
X0165276Y0081234D01*
X0165276Y0081833D02*
X0163050Y0081833D01*
X0163050Y0082431D02*
X0165276Y0082431D01*
X0165276Y0083030D02*
X0163050Y0083030D01*
X0159550Y0083030D02*
X0127324Y0083030D01*
X0127324Y0083628D02*
X0159550Y0083628D01*
X0159550Y0084227D02*
X0127324Y0084227D01*
X0127324Y0084825D02*
X0159851Y0084825D01*
X0160449Y0085424D02*
X0127324Y0085424D01*
X0127324Y0086022D02*
X0161048Y0086022D01*
X0161646Y0086621D02*
X0127324Y0086621D01*
X0127324Y0087219D02*
X0165276Y0087219D01*
X0165276Y0087818D02*
X0127324Y0087818D01*
X0127324Y0088416D02*
X0165276Y0088416D01*
X0165276Y0089015D02*
X0127324Y0089015D01*
X0127324Y0089613D02*
X0165276Y0089613D01*
X0165276Y0090212D02*
X0127324Y0090212D01*
X0127324Y0090810D02*
X0165276Y0090810D01*
X0165276Y0091409D02*
X0127324Y0091409D01*
X0127324Y0092008D02*
X0165276Y0092008D01*
X0165276Y0092606D02*
X0127324Y0092606D01*
X0127324Y0093205D02*
X0165276Y0093205D01*
X0165276Y0093803D02*
X0127324Y0093803D01*
X0127324Y0094402D02*
X0165276Y0094402D01*
X0165276Y0095000D02*
X0127324Y0095000D01*
X0127324Y0095599D02*
X0165276Y0095599D01*
X0165276Y0096197D02*
X0127324Y0096197D01*
X0127324Y0096796D02*
X0165276Y0096796D01*
X0165276Y0097394D02*
X0127324Y0097394D01*
X0127324Y0097993D02*
X0165276Y0097993D01*
X0165276Y0098591D02*
X0127324Y0098591D01*
X0127324Y0099190D02*
X0165276Y0099190D01*
X0165276Y0099788D02*
X0127324Y0099788D01*
X0127324Y0100387D02*
X0165276Y0100387D01*
X0165276Y0100985D02*
X0127324Y0100985D01*
X0127324Y0101584D02*
X0165276Y0101584D01*
X0165276Y0102182D02*
X0127324Y0102182D01*
X0127324Y0102781D02*
X0165276Y0102781D01*
X0165276Y0103379D02*
X0127324Y0103379D01*
X0127324Y0103978D02*
X0139876Y0103978D01*
X0139219Y0104576D02*
X0127324Y0104576D01*
X0127324Y0105175D02*
X0138854Y0105175D01*
X0138609Y0105773D02*
X0127324Y0105773D01*
X0127324Y0106372D02*
X0138609Y0106372D01*
X0138665Y0106970D02*
X0127324Y0106970D01*
X0127324Y0107569D02*
X0138913Y0107569D01*
X0139362Y0108167D02*
X0127324Y0108167D01*
X0127324Y0108766D02*
X0140222Y0108766D01*
X0141969Y0109364D02*
X0127324Y0109364D01*
X0127054Y0109963D02*
X0142568Y0109963D01*
X0143166Y0110561D02*
X0110457Y0110561D01*
X0111055Y0111160D02*
X0143622Y0111160D01*
X0143622Y0111758D02*
X0111654Y0111758D01*
X0109858Y0109963D02*
X0120270Y0109963D01*
X0120000Y0109364D02*
X0109260Y0109364D01*
X0108661Y0108766D02*
X0120000Y0108766D01*
X0120000Y0108167D02*
X0108063Y0108167D01*
X0107464Y0107569D02*
X0120000Y0107569D01*
X0120000Y0106970D02*
X0106866Y0106970D01*
X0106797Y0106372D02*
X0120000Y0106372D01*
X0120000Y0105773D02*
X0106862Y0105773D01*
X0106862Y0105175D02*
X0120000Y0105175D01*
X0120000Y0104576D02*
X0106862Y0104576D01*
X0106862Y0103978D02*
X0120000Y0103978D01*
X0120000Y0103379D02*
X0106862Y0103379D01*
X0106862Y0102781D02*
X0120000Y0102781D01*
X0120000Y0102182D02*
X0106862Y0102182D01*
X0106862Y0101584D02*
X0120000Y0101584D01*
X0120000Y0100985D02*
X0106554Y0100985D01*
X0105090Y0100387D02*
X0120000Y0100387D01*
X0120000Y0099788D02*
X0104683Y0099788D01*
X0104085Y0099190D02*
X0120000Y0099190D01*
X0120000Y0098591D02*
X0110414Y0098591D01*
X0114503Y0097993D02*
X0120000Y0097993D01*
X0120000Y0097394D02*
X0115101Y0097394D01*
X0115700Y0096796D02*
X0120000Y0096796D01*
X0120000Y0096197D02*
X0116298Y0096197D01*
X0116897Y0095599D02*
X0120000Y0095599D01*
X0120000Y0095000D02*
X0117495Y0095000D01*
X0117994Y0094402D02*
X0120000Y0094402D01*
X0120000Y0093803D02*
X0117994Y0093803D01*
X0117994Y0093205D02*
X0120000Y0093205D01*
X0120000Y0092606D02*
X0117994Y0092606D01*
X0117994Y0092008D02*
X0120000Y0092008D01*
X0120000Y0091409D02*
X0117994Y0091409D01*
X0117994Y0090810D02*
X0120000Y0090810D01*
X0120000Y0090212D02*
X0117994Y0090212D01*
X0117994Y0089613D02*
X0120000Y0089613D01*
X0120000Y0089015D02*
X0118480Y0089015D01*
X0115485Y0087219D02*
X0110986Y0087219D01*
X0110986Y0087652D02*
X0110897Y0087983D01*
X0110726Y0088279D01*
X0110484Y0088521D01*
X0110188Y0088692D01*
X0109857Y0088781D01*
X0106827Y0088781D01*
X0106827Y0086591D01*
X0106246Y0086591D01*
X0106246Y0088781D01*
X0103215Y0088781D01*
X0102885Y0088692D01*
X0102588Y0088521D01*
X0102346Y0088279D01*
X0102175Y0087983D01*
X0102087Y0087652D01*
X0102087Y0086591D01*
X0106246Y0086591D01*
X0106246Y0086009D01*
X0106827Y0086009D01*
X0106827Y0083819D01*
X0109857Y0083819D01*
X0110188Y0083907D01*
X0110484Y0084079D01*
X0110726Y0084321D01*
X0110897Y0084617D01*
X0110986Y0084948D01*
X0110986Y0086009D01*
X0106827Y0086009D01*
X0106827Y0086591D01*
X0110986Y0086591D01*
X0110986Y0087652D01*
X0110941Y0087818D02*
X0114887Y0087818D01*
X0114606Y0088416D02*
X0110589Y0088416D01*
X0110420Y0089015D02*
X0114606Y0089015D01*
X0114606Y0089613D02*
X0110986Y0089613D01*
X0110986Y0090212D02*
X0114606Y0090212D01*
X0114606Y0090810D02*
X0110986Y0090810D01*
X0110986Y0091409D02*
X0114606Y0091409D01*
X0114606Y0092008D02*
X0110986Y0092008D01*
X0110986Y0092606D02*
X0114606Y0092606D01*
X0114500Y0093205D02*
X0110801Y0093205D01*
X0110807Y0094402D02*
X0113303Y0094402D01*
X0113902Y0093803D02*
X0102994Y0093803D01*
X0099606Y0093803D02*
X0092994Y0093803D01*
X0092994Y0093205D02*
X0099606Y0093205D01*
X0099606Y0092606D02*
X0092994Y0092606D01*
X0092994Y0092008D02*
X0099606Y0092008D01*
X0100046Y0091409D02*
X0092994Y0091409D01*
X0092994Y0090810D02*
X0100644Y0090810D01*
X0101243Y0090212D02*
X0092994Y0090212D01*
X0092994Y0089613D02*
X0101841Y0089613D01*
X0102652Y0089015D02*
X0092994Y0089015D01*
X0092994Y0088416D02*
X0102483Y0088416D01*
X0102131Y0087818D02*
X0092994Y0087818D01*
X0092994Y0087219D02*
X0102087Y0087219D01*
X0102087Y0086621D02*
X0092766Y0086621D01*
X0092994Y0086848D02*
X0090752Y0084606D01*
X0090513Y0084606D01*
X0090513Y0084580D01*
X0089752Y0083819D01*
X0082376Y0083819D01*
X0081614Y0084580D01*
X0081614Y0088020D01*
X0082376Y0088781D01*
X0089606Y0088781D01*
X0089606Y0088819D01*
X0082376Y0088819D01*
X0081614Y0089580D01*
X0081614Y0089606D01*
X0079502Y0089606D01*
X0078991Y0089095D01*
X0078991Y0088265D01*
X0078581Y0087276D01*
X0077824Y0086519D01*
X0076835Y0086109D01*
X0075765Y0086109D01*
X0074776Y0086519D01*
X0074019Y0087276D01*
X0073609Y0088265D01*
X0073609Y0089335D01*
X0074019Y0090324D01*
X0074776Y0091081D01*
X0075765Y0091491D01*
X0076595Y0091491D01*
X0078098Y0092994D01*
X0081614Y0092994D01*
X0081614Y0093020D01*
X0082376Y0093781D01*
X0089606Y0093781D01*
X0089606Y0093819D01*
X0082376Y0093819D01*
X0081614Y0094580D01*
X0081614Y0098020D01*
X0082376Y0098781D01*
X0088924Y0098781D01*
X0088098Y0099606D01*
X0079502Y0099606D01*
X0078991Y0099095D01*
X0078991Y0098265D01*
X0078581Y0097276D01*
X0077824Y0096519D01*
X0076835Y0096109D01*
X0075765Y0096109D01*
X0074776Y0096519D01*
X0074019Y0097276D01*
X0073609Y0098265D01*
X0073609Y0099335D01*
X0074019Y0100324D01*
X0074776Y0101081D01*
X0075765Y0101491D01*
X0076595Y0101491D01*
X0077106Y0102002D01*
X0077106Y0102002D01*
X0078098Y0102994D01*
X0089502Y0102994D01*
X0092994Y0099502D01*
X0092994Y0086848D01*
X0092168Y0086022D02*
X0106246Y0086022D01*
X0106246Y0086009D02*
X0102087Y0086009D01*
X0102087Y0084948D01*
X0102175Y0084617D01*
X0102346Y0084321D01*
X0102588Y0084079D01*
X0102885Y0083907D01*
X0103215Y0083819D01*
X0106246Y0083819D01*
X0106246Y0086009D01*
X0106827Y0086022D02*
X0113627Y0086022D01*
X0113029Y0085424D02*
X0110986Y0085424D01*
X0110953Y0084825D02*
X0112430Y0084825D01*
X0111832Y0084227D02*
X0110632Y0084227D01*
X0110377Y0083628D02*
X0111233Y0083628D01*
X0110986Y0086621D02*
X0114226Y0086621D01*
X0106827Y0086621D02*
X0106246Y0086621D01*
X0106246Y0087219D02*
X0106827Y0087219D01*
X0106827Y0087818D02*
X0106246Y0087818D01*
X0106246Y0088416D02*
X0106827Y0088416D01*
X0106827Y0085424D02*
X0106246Y0085424D01*
X0106246Y0084825D02*
X0106827Y0084825D01*
X0106827Y0084227D02*
X0106246Y0084227D01*
X0102695Y0083628D02*
X0089905Y0083628D01*
X0089752Y0083781D02*
X0090513Y0083020D01*
X0090513Y0079580D01*
X0089752Y0078819D01*
X0082376Y0078819D01*
X0081614Y0079580D01*
X0081614Y0079606D01*
X0079732Y0079606D01*
X0079004Y0078878D01*
X0073596Y0078878D01*
X0072835Y0079639D01*
X0072835Y0084653D01*
X0073596Y0085415D01*
X0079004Y0085415D01*
X0079765Y0084653D01*
X0079765Y0082994D01*
X0081614Y0082994D01*
X0081614Y0083020D01*
X0082376Y0083781D01*
X0089752Y0083781D01*
X0090160Y0084227D02*
X0102440Y0084227D01*
X0102119Y0084825D02*
X0090971Y0084825D01*
X0091569Y0085424D02*
X0102087Y0085424D01*
X0102097Y0083030D02*
X0090503Y0083030D01*
X0090513Y0082431D02*
X0102087Y0082431D01*
X0102087Y0081833D02*
X0090513Y0081833D01*
X0090513Y0081234D02*
X0102087Y0081234D01*
X0102087Y0080636D02*
X0090513Y0080636D01*
X0090513Y0080037D02*
X0102087Y0080037D01*
X0102228Y0079439D02*
X0090372Y0079439D01*
X0089773Y0078840D02*
X0102827Y0078840D01*
X0105286Y0077137D02*
X0105617Y0077226D01*
X0107555Y0077226D01*
X0107555Y0074100D01*
X0104488Y0074100D01*
X0104488Y0076097D01*
X0104577Y0076428D01*
X0104748Y0076724D01*
X0104990Y0076966D01*
X0105286Y0077137D01*
X0105126Y0077045D02*
X0079765Y0077045D01*
X0079765Y0077593D02*
X0079765Y0075754D01*
X0076600Y0075754D01*
X0076000Y0075754D01*
X0076000Y0078722D01*
X0073963Y0078722D01*
X0073633Y0078633D01*
X0073336Y0078462D01*
X0073094Y0078220D01*
X0072923Y0077924D01*
X0072835Y0077593D01*
X0072835Y0075754D01*
X0076000Y0075754D01*
X0076000Y0075154D01*
X0072835Y0075154D01*
X0072835Y0073314D01*
X0072923Y0072983D01*
X0073094Y0072687D01*
X0073336Y0072445D01*
X0073633Y0072274D01*
X0073963Y0072185D01*
X0076000Y0072185D01*
X0076000Y0075153D01*
X0076600Y0075153D01*
X0076600Y0072185D01*
X0078637Y0072185D01*
X0078967Y0072274D01*
X0079264Y0072445D01*
X0079506Y0072687D01*
X0079677Y0072983D01*
X0079765Y0073314D01*
X0079765Y0075154D01*
X0076600Y0075154D01*
X0076600Y0075754D01*
X0076600Y0078722D01*
X0078637Y0078722D01*
X0078967Y0078633D01*
X0079264Y0078462D01*
X0079506Y0078220D01*
X0079677Y0077924D01*
X0079765Y0077593D01*
X0079752Y0077643D02*
X0109550Y0077643D01*
X0109920Y0078242D02*
X0079484Y0078242D01*
X0079565Y0079439D02*
X0081756Y0079439D01*
X0082354Y0078840D02*
X0064685Y0078840D01*
X0064945Y0079100D02*
X0065600Y0080681D01*
X0065600Y0082392D01*
X0064945Y0083972D01*
X0063736Y0085182D01*
X0062155Y0085836D01*
X0060445Y0085836D01*
X0058864Y0085182D01*
X0057655Y0083972D01*
X0057000Y0082392D01*
X0057000Y0080681D01*
X0057655Y0079100D01*
X0058864Y0077891D01*
X0060445Y0077236D01*
X0062155Y0077236D01*
X0063736Y0077891D01*
X0064945Y0079100D01*
X0065085Y0079439D02*
X0073035Y0079439D01*
X0072835Y0080037D02*
X0065333Y0080037D01*
X0065581Y0080636D02*
X0072835Y0080636D01*
X0072835Y0081234D02*
X0065600Y0081234D01*
X0065600Y0081833D02*
X0072835Y0081833D01*
X0072835Y0082431D02*
X0065584Y0082431D01*
X0065336Y0083030D02*
X0072835Y0083030D01*
X0072835Y0083628D02*
X0065088Y0083628D01*
X0064690Y0084227D02*
X0072835Y0084227D01*
X0073007Y0084825D02*
X0064092Y0084825D01*
X0063151Y0085424D02*
X0081614Y0085424D01*
X0081614Y0086022D02*
X0021600Y0086022D01*
X0021600Y0085424D02*
X0034449Y0085424D01*
X0033864Y0085182D02*
X0035445Y0085836D01*
X0037155Y0085836D01*
X0038736Y0085182D01*
X0039945Y0083972D01*
X0040600Y0082392D01*
X0040600Y0080681D01*
X0039945Y0079100D01*
X0038736Y0077891D01*
X0037155Y0077236D01*
X0035445Y0077236D01*
X0033864Y0077891D01*
X0032655Y0079100D01*
X0032000Y0080681D01*
X0032000Y0082392D01*
X0032655Y0083972D01*
X0033864Y0085182D01*
X0033508Y0084825D02*
X0021600Y0084825D01*
X0021600Y0084227D02*
X0032910Y0084227D01*
X0032512Y0083628D02*
X0021600Y0083628D01*
X0021600Y0083030D02*
X0032264Y0083030D01*
X0032016Y0082431D02*
X0021600Y0082431D01*
X0021600Y0081833D02*
X0032000Y0081833D01*
X0032000Y0081234D02*
X0021600Y0081234D01*
X0021600Y0080636D02*
X0032019Y0080636D01*
X0032267Y0080037D02*
X0021600Y0080037D01*
X0021600Y0079439D02*
X0032514Y0079439D01*
X0032915Y0078840D02*
X0021600Y0078840D01*
X0021600Y0078242D02*
X0033513Y0078242D01*
X0034462Y0077643D02*
X0021600Y0077643D01*
X0021600Y0077045D02*
X0072835Y0077045D01*
X0072848Y0077643D02*
X0063138Y0077643D01*
X0064087Y0078242D02*
X0073116Y0078242D01*
X0072835Y0076446D02*
X0021600Y0076446D01*
X0021600Y0075848D02*
X0072835Y0075848D01*
X0072835Y0074651D02*
X0021600Y0074651D01*
X0021600Y0075249D02*
X0076000Y0075249D01*
X0076000Y0074651D02*
X0076600Y0074651D01*
X0076600Y0075249D02*
X0104488Y0075249D01*
X0104488Y0074651D02*
X0079765Y0074651D01*
X0079765Y0074052D02*
X0107555Y0074052D01*
X0107555Y0073454D02*
X0108155Y0073454D01*
X0108155Y0072855D02*
X0107555Y0072855D01*
X0107555Y0072257D02*
X0108155Y0072257D01*
X0108155Y0071658D02*
X0107555Y0071658D01*
X0107555Y0071060D02*
X0108155Y0071060D01*
X0108155Y0070461D02*
X0107555Y0070461D01*
X0109550Y0069863D02*
X0021600Y0069863D01*
X0021600Y0070461D02*
X0105292Y0070461D01*
X0104642Y0071060D02*
X0021600Y0071060D01*
X0021600Y0071658D02*
X0104488Y0071658D01*
X0104488Y0072257D02*
X0078904Y0072257D01*
X0079603Y0072855D02*
X0104488Y0072855D01*
X0104488Y0073454D02*
X0079765Y0073454D01*
X0079765Y0075848D02*
X0104488Y0075848D01*
X0104587Y0076446D02*
X0079765Y0076446D01*
X0076600Y0076446D02*
X0076000Y0076446D01*
X0076000Y0075848D02*
X0076600Y0075848D01*
X0076600Y0077045D02*
X0076000Y0077045D01*
X0076000Y0077643D02*
X0076600Y0077643D01*
X0076600Y0078242D02*
X0076000Y0078242D01*
X0076000Y0074052D02*
X0076600Y0074052D01*
X0076600Y0073454D02*
X0076000Y0073454D01*
X0076000Y0072855D02*
X0076600Y0072855D01*
X0076600Y0072257D02*
X0076000Y0072257D01*
X0073696Y0072257D02*
X0021600Y0072257D01*
X0021600Y0072855D02*
X0072997Y0072855D01*
X0072835Y0073454D02*
X0021600Y0073454D01*
X0021600Y0074052D02*
X0072835Y0074052D01*
X0082679Y0065074D02*
X0062393Y0065074D01*
X0062290Y0065177D02*
X0060857Y0065771D01*
X0054105Y0065771D01*
X0052672Y0065177D01*
X0051575Y0064080D01*
X0050981Y0062647D01*
X0050981Y0061095D01*
X0051575Y0059662D01*
X0052672Y0058565D01*
X0054105Y0057971D01*
X0060857Y0057971D01*
X0062290Y0058565D01*
X0063387Y0059662D01*
X0063981Y0061095D01*
X0063981Y0062647D01*
X0063387Y0064080D01*
X0062290Y0065177D01*
X0062991Y0064476D02*
X0082081Y0064476D01*
X0081482Y0063877D02*
X0063471Y0063877D01*
X0063719Y0063279D02*
X0080884Y0063279D01*
X0080285Y0062680D02*
X0063967Y0062680D01*
X0063981Y0062082D02*
X0079687Y0062082D01*
X0079088Y0061483D02*
X0063981Y0061483D01*
X0063894Y0060885D02*
X0078490Y0060885D01*
X0077891Y0060286D02*
X0063646Y0060286D01*
X0063398Y0059688D02*
X0077293Y0059688D01*
X0076694Y0059089D02*
X0062815Y0059089D01*
X0062112Y0058491D02*
X0076096Y0058491D01*
X0075497Y0057892D02*
X0021600Y0057892D01*
X0021600Y0057294D02*
X0074941Y0057294D01*
X0074941Y0056695D02*
X0021600Y0056695D01*
X0021600Y0056097D02*
X0074941Y0056097D01*
X0074941Y0055498D02*
X0021600Y0055498D01*
X0021600Y0054900D02*
X0074941Y0054900D01*
X0074941Y0054301D02*
X0021600Y0054301D01*
X0021600Y0053703D02*
X0074941Y0053703D01*
X0074941Y0053104D02*
X0021600Y0053104D01*
X0021600Y0052506D02*
X0074941Y0052506D01*
X0074941Y0051907D02*
X0021600Y0051907D01*
X0021600Y0051309D02*
X0074941Y0051309D01*
X0074941Y0050710D02*
X0021600Y0050710D01*
X0021600Y0050112D02*
X0074941Y0050112D01*
X0074941Y0049513D02*
X0021600Y0049513D01*
X0021600Y0048915D02*
X0074941Y0048915D01*
X0074941Y0048316D02*
X0021600Y0048316D01*
X0021600Y0047718D02*
X0074941Y0047718D01*
X0074390Y0047119D02*
X0068796Y0047119D01*
X0068888Y0047072D02*
X0068285Y0047379D01*
X0067642Y0047589D01*
X0066973Y0047694D01*
X0066935Y0047694D01*
X0066935Y0040695D01*
X0066335Y0040695D01*
X0066335Y0047694D01*
X0066296Y0047694D01*
X0065628Y0047589D01*
X0064984Y0047379D01*
X0064381Y0047072D01*
X0063833Y0046674D01*
X0063355Y0046196D01*
X0062957Y0045648D01*
X0062650Y0045045D01*
X0062441Y0044401D01*
X0062335Y0043733D01*
X0062335Y0040694D01*
X0066335Y0040694D01*
X0066335Y0040094D01*
X0066935Y0040094D01*
X0066935Y0033094D01*
X0066973Y0033094D01*
X0067642Y0033200D01*
X0068285Y0033410D01*
X0068888Y0033717D01*
X0069436Y0034115D01*
X0069914Y0034593D01*
X0070312Y0035141D01*
X0070620Y0035744D01*
X0070829Y0036388D01*
X0070935Y0037056D01*
X0070935Y0040094D01*
X0066935Y0040094D01*
X0066935Y0040694D01*
X0070935Y0040694D01*
X0070935Y0043733D01*
X0070829Y0044401D01*
X0070620Y0045045D01*
X0070312Y0045648D01*
X0069914Y0046196D01*
X0069436Y0046674D01*
X0068888Y0047072D01*
X0069590Y0046521D02*
X0073680Y0046521D01*
X0073081Y0045922D02*
X0070113Y0045922D01*
X0070478Y0045324D02*
X0072779Y0045324D01*
X0072532Y0044725D02*
X0070724Y0044725D01*
X0070872Y0044127D02*
X0072335Y0044127D01*
X0072335Y0043528D02*
X0070935Y0043528D01*
X0070935Y0042930D02*
X0072335Y0042930D01*
X0072335Y0042331D02*
X0070935Y0042331D01*
X0070935Y0041733D02*
X0072335Y0041733D01*
X0072335Y0041134D02*
X0070935Y0041134D01*
X0070935Y0039937D02*
X0072335Y0039937D01*
X0072335Y0039339D02*
X0070935Y0039339D01*
X0070935Y0038740D02*
X0072335Y0038740D01*
X0072335Y0038141D02*
X0070935Y0038141D01*
X0070935Y0037543D02*
X0072335Y0037543D01*
X0072335Y0036944D02*
X0070917Y0036944D01*
X0070815Y0036346D02*
X0072415Y0036346D01*
X0072663Y0035747D02*
X0070621Y0035747D01*
X0070316Y0035149D02*
X0072910Y0035149D01*
X0073398Y0034550D02*
X0069872Y0034550D01*
X0069212Y0033952D02*
X0073996Y0033952D01*
X0075154Y0033353D02*
X0068113Y0033353D01*
X0066935Y0033353D02*
X0066335Y0033353D01*
X0066335Y0033094D02*
X0066335Y0040094D01*
X0062335Y0040094D01*
X0062335Y0037056D01*
X0062441Y0036388D01*
X0062650Y0035744D01*
X0062957Y0035141D01*
X0063355Y0034593D01*
X0063833Y0034115D01*
X0064381Y0033717D01*
X0064984Y0033410D01*
X0065628Y0033200D01*
X0066296Y0033094D01*
X0066335Y0033094D01*
X0066335Y0033952D02*
X0066935Y0033952D01*
X0066935Y0034550D02*
X0066335Y0034550D01*
X0066335Y0035149D02*
X0066935Y0035149D01*
X0066935Y0035747D02*
X0066335Y0035747D01*
X0066335Y0036346D02*
X0066935Y0036346D01*
X0066935Y0036944D02*
X0066335Y0036944D01*
X0066335Y0037543D02*
X0066935Y0037543D01*
X0066935Y0038141D02*
X0066335Y0038141D01*
X0066335Y0038740D02*
X0066935Y0038740D01*
X0066935Y0039339D02*
X0066335Y0039339D01*
X0066335Y0039937D02*
X0066935Y0039937D01*
X0066935Y0040536D02*
X0072335Y0040536D01*
X0066935Y0041134D02*
X0066335Y0041134D01*
X0066335Y0040536D02*
X0060935Y0040536D01*
X0060935Y0041134D02*
X0062335Y0041134D01*
X0062335Y0041733D02*
X0060935Y0041733D01*
X0060935Y0042331D02*
X0062335Y0042331D01*
X0062335Y0042930D02*
X0060935Y0042930D01*
X0060935Y0043528D02*
X0062335Y0043528D01*
X0062397Y0044127D02*
X0060935Y0044127D01*
X0060738Y0044725D02*
X0062546Y0044725D01*
X0062792Y0045324D02*
X0060490Y0045324D01*
X0060188Y0045922D02*
X0063156Y0045922D01*
X0063680Y0046521D02*
X0059590Y0046521D01*
X0058879Y0047119D02*
X0064473Y0047119D01*
X0066335Y0047119D02*
X0066935Y0047119D01*
X0066935Y0046521D02*
X0066335Y0046521D01*
X0066335Y0045922D02*
X0066935Y0045922D01*
X0066935Y0045324D02*
X0066335Y0045324D01*
X0066335Y0044725D02*
X0066935Y0044725D01*
X0066935Y0044127D02*
X0066335Y0044127D01*
X0066335Y0043528D02*
X0066935Y0043528D01*
X0066935Y0042930D02*
X0066335Y0042930D01*
X0066335Y0042331D02*
X0066935Y0042331D01*
X0066935Y0041733D02*
X0066335Y0041733D01*
X0062335Y0039937D02*
X0060935Y0039937D01*
X0060935Y0039339D02*
X0062335Y0039339D01*
X0062335Y0038740D02*
X0060935Y0038740D01*
X0060935Y0038141D02*
X0062335Y0038141D01*
X0062335Y0037543D02*
X0060935Y0037543D01*
X0060935Y0036944D02*
X0062352Y0036944D01*
X0062454Y0036346D02*
X0060855Y0036346D01*
X0060607Y0035747D02*
X0062649Y0035747D01*
X0062953Y0035149D02*
X0060359Y0035149D01*
X0059872Y0034550D02*
X0063398Y0034550D01*
X0064057Y0033952D02*
X0059273Y0033952D01*
X0058115Y0033353D02*
X0065157Y0033353D01*
X0053398Y0034550D02*
X0048869Y0034550D01*
X0049165Y0035149D02*
X0052910Y0035149D01*
X0052663Y0035747D02*
X0049165Y0035747D01*
X0049165Y0039339D02*
X0052335Y0039339D01*
X0052335Y0039937D02*
X0049165Y0039937D01*
X0048883Y0040536D02*
X0052335Y0040536D01*
X0052335Y0041134D02*
X0033413Y0041134D01*
X0034011Y0040536D02*
X0036217Y0040536D01*
X0035935Y0039937D02*
X0034096Y0039937D01*
X0034096Y0039339D02*
X0035935Y0039339D01*
X0042190Y0040536D02*
X0042910Y0040536D01*
X0042628Y0039937D02*
X0042472Y0039937D01*
X0042472Y0039339D02*
X0042628Y0039339D01*
X0042628Y0038740D02*
X0042472Y0038740D01*
X0042472Y0038141D02*
X0042628Y0038141D01*
X0042628Y0037543D02*
X0042472Y0037543D01*
X0042472Y0036944D02*
X0042628Y0036944D01*
X0042628Y0036346D02*
X0042472Y0036346D01*
X0042472Y0035747D02*
X0042628Y0035747D01*
X0042628Y0035149D02*
X0042472Y0035149D01*
X0042176Y0034550D02*
X0042924Y0034550D01*
X0052335Y0041733D02*
X0021600Y0041733D01*
X0021600Y0042331D02*
X0052335Y0042331D01*
X0052335Y0042930D02*
X0021600Y0042930D01*
X0021600Y0043528D02*
X0052335Y0043528D01*
X0052335Y0044127D02*
X0021600Y0044127D01*
X0021600Y0044725D02*
X0052532Y0044725D01*
X0052779Y0045324D02*
X0021600Y0045324D01*
X0021600Y0045922D02*
X0053081Y0045922D01*
X0053680Y0046521D02*
X0021600Y0046521D01*
X0021600Y0047119D02*
X0054390Y0047119D01*
X0052850Y0058491D02*
X0032112Y0058491D01*
X0032815Y0059089D02*
X0052147Y0059089D01*
X0051564Y0059688D02*
X0033398Y0059688D01*
X0033646Y0060286D02*
X0051316Y0060286D01*
X0051068Y0060885D02*
X0033894Y0060885D01*
X0033981Y0061483D02*
X0050981Y0061483D01*
X0050981Y0062082D02*
X0033981Y0062082D01*
X0033967Y0062680D02*
X0050995Y0062680D01*
X0051243Y0063279D02*
X0033719Y0063279D01*
X0033471Y0063877D02*
X0051491Y0063877D01*
X0051971Y0064476D02*
X0032991Y0064476D01*
X0032393Y0065074D02*
X0052569Y0065074D01*
X0053869Y0065673D02*
X0031093Y0065673D01*
X0023869Y0065673D02*
X0021600Y0065673D01*
X0021600Y0065074D02*
X0022569Y0065074D01*
X0021971Y0064476D02*
X0021600Y0064476D01*
X0021600Y0066272D02*
X0106376Y0066272D01*
X0106975Y0066870D02*
X0021600Y0066870D01*
X0021600Y0067469D02*
X0107573Y0067469D01*
X0108172Y0068067D02*
X0021600Y0068067D01*
X0021600Y0068666D02*
X0108770Y0068666D01*
X0109369Y0069264D02*
X0021600Y0069264D01*
X0021600Y0059089D02*
X0022147Y0059089D01*
X0021600Y0058491D02*
X0022850Y0058491D01*
X0022466Y0041212D02*
X0022466Y0037850D01*
X0025828Y0037850D01*
X0025828Y0040083D01*
X0025740Y0040414D01*
X0025569Y0040710D01*
X0025327Y0040952D01*
X0025030Y0041124D01*
X0024699Y0041212D01*
X0022466Y0041212D01*
X0022466Y0041134D02*
X0021866Y0041134D01*
X0021866Y0040536D02*
X0022466Y0040536D01*
X0022466Y0039937D02*
X0021866Y0039937D01*
X0021866Y0039339D02*
X0022466Y0039339D01*
X0022466Y0038740D02*
X0021866Y0038740D01*
X0021866Y0038141D02*
X0022466Y0038141D01*
X0022466Y0037543D02*
X0026772Y0037543D01*
X0026772Y0038141D02*
X0025828Y0038141D01*
X0025828Y0038740D02*
X0026772Y0038740D01*
X0026772Y0039339D02*
X0025828Y0039339D01*
X0025828Y0039937D02*
X0026772Y0039937D01*
X0026857Y0040536D02*
X0025670Y0040536D01*
X0024991Y0041134D02*
X0027455Y0041134D01*
X0026772Y0036944D02*
X0025828Y0036944D01*
X0025828Y0036346D02*
X0026772Y0036346D01*
X0026772Y0035747D02*
X0025828Y0035747D01*
X0025828Y0035149D02*
X0026772Y0035149D01*
X0026871Y0034550D02*
X0025661Y0034550D01*
X0024939Y0033952D02*
X0027469Y0033952D01*
X0022466Y0033952D02*
X0021866Y0033952D01*
X0021866Y0034550D02*
X0022466Y0034550D01*
X0022466Y0035149D02*
X0021866Y0035149D01*
X0021866Y0035747D02*
X0022466Y0035747D01*
X0022466Y0036346D02*
X0021866Y0036346D01*
X0021866Y0036944D02*
X0022466Y0036944D01*
X0061093Y0065673D02*
X0105778Y0065673D01*
X0108174Y0063279D02*
X0111109Y0063279D01*
X0111109Y0063877D02*
X0108773Y0063877D01*
X0109371Y0064476D02*
X0111168Y0064476D01*
X0111416Y0065074D02*
X0109970Y0065074D01*
X0110568Y0065673D02*
X0111868Y0065673D01*
X0111167Y0066272D02*
X0112645Y0066272D01*
X0112645Y0066870D02*
X0111765Y0066870D01*
X0112443Y0067469D02*
X0112645Y0067469D01*
X0116845Y0067469D02*
X0129843Y0067469D01*
X0129840Y0068067D02*
X0116845Y0068067D01*
X0116845Y0068666D02*
X0129646Y0068666D01*
X0129646Y0069264D02*
X0116845Y0069264D01*
X0116845Y0069863D02*
X0129646Y0069863D01*
X0129646Y0070461D02*
X0117437Y0070461D01*
X0118036Y0071060D02*
X0129646Y0071060D01*
X0129646Y0071658D02*
X0118112Y0071658D01*
X0118112Y0072257D02*
X0129646Y0072257D01*
X0129646Y0072855D02*
X0118112Y0072855D01*
X0118112Y0073454D02*
X0129646Y0073454D01*
X0129646Y0074052D02*
X0118112Y0074052D01*
X0118112Y0074651D02*
X0130233Y0074651D01*
X0127060Y0077643D02*
X0159982Y0077643D01*
X0159550Y0078242D02*
X0127324Y0078242D01*
X0127324Y0078840D02*
X0159550Y0078840D01*
X0159550Y0079439D02*
X0127324Y0079439D01*
X0127324Y0080037D02*
X0159550Y0080037D01*
X0159550Y0080636D02*
X0127324Y0080636D01*
X0127324Y0081234D02*
X0159550Y0081234D01*
X0159550Y0081833D02*
X0127324Y0081833D01*
X0127324Y0082431D02*
X0159550Y0082431D01*
X0160580Y0077045D02*
X0120464Y0077045D01*
X0119866Y0076446D02*
X0161179Y0076446D01*
X0161777Y0075848D02*
X0119267Y0075848D01*
X0118669Y0075249D02*
X0162376Y0075249D01*
X0162367Y0074651D02*
X0162974Y0074651D01*
X0162954Y0074052D02*
X0163573Y0074052D01*
X0164171Y0073454D02*
X0162954Y0073454D01*
X0162954Y0072855D02*
X0164500Y0072855D01*
X0164500Y0072257D02*
X0162954Y0072257D01*
X0162954Y0071658D02*
X0164500Y0071658D01*
X0164500Y0071060D02*
X0162954Y0071060D01*
X0162954Y0070461D02*
X0164156Y0070461D01*
X0163828Y0069863D02*
X0162954Y0069863D01*
X0162954Y0069264D02*
X0163609Y0069264D01*
X0163609Y0068666D02*
X0162954Y0068666D01*
X0162760Y0068067D02*
X0163691Y0068067D01*
X0163939Y0067469D02*
X0162757Y0067469D01*
X0162757Y0066870D02*
X0164425Y0066870D01*
X0165374Y0066272D02*
X0162757Y0066272D01*
X0162757Y0065673D02*
X0170138Y0065673D01*
X0170138Y0065074D02*
X0162757Y0065074D01*
X0162757Y0064476D02*
X0170138Y0064476D01*
X0170138Y0063877D02*
X0167108Y0063877D01*
X0168126Y0063279D02*
X0170138Y0063279D01*
X0170138Y0062680D02*
X0168640Y0062680D01*
X0168888Y0062082D02*
X0170138Y0062082D01*
X0170138Y0061483D02*
X0168991Y0061483D01*
X0168991Y0060885D02*
X0170138Y0060885D01*
X0170138Y0060515D02*
X0170667Y0059986D01*
X0170335Y0059653D01*
X0170335Y0054639D01*
X0171096Y0053878D01*
X0176504Y0053878D01*
X0177265Y0054639D01*
X0177265Y0059653D01*
X0176933Y0059986D01*
X0177462Y0060515D01*
X0177462Y0066317D01*
X0176701Y0067078D01*
X0170899Y0067078D01*
X0170138Y0066317D01*
X0170138Y0060515D01*
X0170367Y0060286D02*
X0168792Y0060286D01*
X0168493Y0059688D02*
X0170369Y0059688D01*
X0170335Y0059089D02*
X0167894Y0059089D01*
X0170335Y0058491D02*
X0161675Y0058491D01*
X0161724Y0058462D02*
X0161428Y0058633D01*
X0161097Y0058722D01*
X0159100Y0058722D01*
X0159100Y0055655D01*
X0162226Y0055655D01*
X0162226Y0057593D01*
X0162137Y0057924D01*
X0161966Y0058220D01*
X0161724Y0058462D01*
X0161676Y0059089D02*
X0164706Y0059089D01*
X0164107Y0059688D02*
X0162226Y0059688D01*
X0162146Y0057892D02*
X0170335Y0057892D01*
X0170335Y0057294D02*
X0162226Y0057294D01*
X0162226Y0056695D02*
X0170335Y0056695D01*
X0170335Y0056097D02*
X0162226Y0056097D01*
X0162226Y0055055D02*
X0159100Y0055055D01*
X0159100Y0051988D01*
X0161097Y0051988D01*
X0161428Y0052077D01*
X0161724Y0052248D01*
X0161966Y0052490D01*
X0162137Y0052786D01*
X0162226Y0053117D01*
X0162226Y0055055D01*
X0162226Y0054900D02*
X0170335Y0054900D01*
X0170335Y0055498D02*
X0159100Y0055498D01*
X0159100Y0055655D02*
X0159100Y0055055D01*
X0158500Y0055055D01*
X0158500Y0051988D01*
X0156503Y0051988D01*
X0156172Y0052077D01*
X0155876Y0052248D01*
X0155634Y0052490D01*
X0155463Y0052786D01*
X0155374Y0053117D01*
X0155374Y0055055D01*
X0158500Y0055055D01*
X0158500Y0055655D01*
X0155374Y0055655D01*
X0155374Y0057593D01*
X0155463Y0057924D01*
X0155634Y0058220D01*
X0155876Y0058462D01*
X0156172Y0058633D01*
X0156503Y0058722D01*
X0158500Y0058722D01*
X0158500Y0055655D01*
X0159100Y0055655D01*
X0159100Y0056097D02*
X0158500Y0056097D01*
X0158500Y0056695D02*
X0159100Y0056695D01*
X0159100Y0057294D02*
X0158500Y0057294D01*
X0158500Y0057892D02*
X0159100Y0057892D01*
X0159100Y0058491D02*
X0158500Y0058491D01*
X0155925Y0058491D02*
X0154883Y0058491D01*
X0154883Y0059089D02*
X0155924Y0059089D01*
X0155374Y0059688D02*
X0154883Y0059688D01*
X0154883Y0060286D02*
X0155374Y0060286D01*
X0155374Y0060885D02*
X0154883Y0060885D01*
X0154883Y0061483D02*
X0155374Y0061483D01*
X0155374Y0062082D02*
X0154883Y0062082D01*
X0154883Y0062680D02*
X0155374Y0062680D01*
X0155374Y0063279D02*
X0154883Y0063279D01*
X0154883Y0063877D02*
X0155374Y0063877D01*
X0155374Y0064476D02*
X0154883Y0064476D01*
X0154883Y0065074D02*
X0155598Y0065074D01*
X0154883Y0065673D02*
X0159370Y0065673D01*
X0159370Y0066272D02*
X0154883Y0066272D01*
X0154883Y0066870D02*
X0159370Y0066870D01*
X0159370Y0067469D02*
X0154883Y0067469D01*
X0159095Y0068067D02*
X0159095Y0068067D01*
X0159095Y0068666D02*
X0159095Y0068666D01*
X0159095Y0069264D02*
X0159095Y0069264D01*
X0159095Y0069863D02*
X0159095Y0069863D01*
X0159095Y0070461D02*
X0159095Y0070461D01*
X0159095Y0071060D02*
X0159095Y0071060D01*
X0159095Y0071162D02*
X0159095Y0074824D01*
X0159095Y0071162D01*
X0159095Y0071162D01*
X0159095Y0071658D02*
X0159095Y0071658D01*
X0159095Y0072257D02*
X0159095Y0072257D01*
X0159095Y0072855D02*
X0159095Y0072855D01*
X0159095Y0073454D02*
X0159095Y0073454D01*
X0159095Y0074052D02*
X0159095Y0074052D01*
X0159095Y0074651D02*
X0159095Y0074651D01*
X0167226Y0066272D02*
X0170138Y0066272D01*
X0170691Y0066870D02*
X0168175Y0066870D01*
X0176746Y0068067D02*
X0180854Y0068067D01*
X0180255Y0068666D02*
X0177345Y0068666D01*
X0177462Y0069264D02*
X0180138Y0069264D01*
X0180138Y0069863D02*
X0177462Y0069863D01*
X0177462Y0070461D02*
X0179744Y0070461D01*
X0179145Y0071060D02*
X0177462Y0071060D01*
X0177462Y0071658D02*
X0178547Y0071658D01*
X0177948Y0072257D02*
X0177462Y0072257D01*
X0180494Y0075249D02*
X0180802Y0075249D01*
X0185895Y0075848D02*
X0186705Y0075848D01*
X0186798Y0075249D02*
X0204701Y0075249D01*
X0204701Y0074651D02*
X0187396Y0074651D01*
X0187462Y0074052D02*
X0204701Y0074052D01*
X0204701Y0073454D02*
X0187462Y0073454D01*
X0187462Y0072855D02*
X0204701Y0072855D01*
X0204701Y0072257D02*
X0187462Y0072257D01*
X0187462Y0071658D02*
X0204701Y0071658D01*
X0204701Y0071060D02*
X0187462Y0071060D01*
X0187462Y0070461D02*
X0204701Y0070461D01*
X0204701Y0069863D02*
X0187462Y0069863D01*
X0187462Y0069264D02*
X0204701Y0069264D01*
X0204701Y0068666D02*
X0187345Y0068666D01*
X0186746Y0068067D02*
X0204701Y0068067D01*
X0204701Y0062680D02*
X0201156Y0062680D01*
X0202098Y0062082D02*
X0204701Y0062082D01*
X0204701Y0061483D02*
X0202665Y0061483D01*
X0203064Y0060885D02*
X0204701Y0060885D01*
X0204701Y0060286D02*
X0203338Y0060286D01*
X0203513Y0059688D02*
X0204701Y0059688D01*
X0204701Y0054301D02*
X0186927Y0054301D01*
X0187265Y0054900D02*
X0191483Y0054900D01*
X0191649Y0054815D02*
X0192293Y0054606D01*
X0192962Y0054500D01*
X0196000Y0054500D01*
X0196000Y0058500D01*
X0189000Y0058500D01*
X0189000Y0058462D01*
X0189106Y0057793D01*
X0189315Y0057149D01*
X0189622Y0056546D01*
X0190020Y0055999D01*
X0190499Y0055520D01*
X0191046Y0055122D01*
X0191649Y0054815D01*
X0190529Y0055498D02*
X0187265Y0055498D01*
X0187265Y0056097D02*
X0189949Y0056097D01*
X0189546Y0056695D02*
X0187265Y0056695D01*
X0187265Y0057294D02*
X0189268Y0057294D01*
X0189090Y0057892D02*
X0187265Y0057892D01*
X0187265Y0058491D02*
X0189000Y0058491D01*
X0186467Y0053633D02*
X0186137Y0053722D01*
X0184100Y0053722D01*
X0184100Y0050754D01*
X0183500Y0050754D01*
X0183500Y0053722D01*
X0181463Y0053722D01*
X0181133Y0053633D01*
X0180836Y0053462D01*
X0180594Y0053220D01*
X0180423Y0052924D01*
X0180335Y0052593D01*
X0180335Y0050754D01*
X0183500Y0050754D01*
X0183500Y0050154D01*
X0180335Y0050154D01*
X0180335Y0048314D01*
X0180423Y0047983D01*
X0180594Y0047687D01*
X0180836Y0047445D01*
X0181133Y0047274D01*
X0181463Y0047185D01*
X0183500Y0047185D01*
X0183500Y0050153D01*
X0184100Y0050153D01*
X0184100Y0047185D01*
X0186137Y0047185D01*
X0186467Y0047274D01*
X0186764Y0047445D01*
X0187006Y0047687D01*
X0187177Y0047983D01*
X0187265Y0048314D01*
X0187265Y0050154D01*
X0184100Y0050154D01*
X0184100Y0050754D01*
X0187265Y0050754D01*
X0187265Y0052593D01*
X0187177Y0052924D01*
X0187006Y0053220D01*
X0186764Y0053462D01*
X0186467Y0053633D01*
X0186208Y0053703D02*
X0204701Y0053703D01*
X0204701Y0053104D02*
X0187073Y0053104D01*
X0187265Y0052506D02*
X0191010Y0052506D01*
X0190326Y0051907D02*
X0187265Y0051907D01*
X0187265Y0051309D02*
X0189728Y0051309D01*
X0189437Y0050710D02*
X0184100Y0050710D01*
X0184100Y0050112D02*
X0183500Y0050112D01*
X0183500Y0050710D02*
X0174100Y0050710D01*
X0174100Y0050754D02*
X0177265Y0050754D01*
X0177265Y0052593D01*
X0177177Y0052924D01*
X0177006Y0053220D01*
X0176764Y0053462D01*
X0176467Y0053633D01*
X0176137Y0053722D01*
X0174100Y0053722D01*
X0174100Y0050754D01*
X0173500Y0050754D01*
X0173500Y0053722D01*
X0171463Y0053722D01*
X0171133Y0053633D01*
X0170836Y0053462D01*
X0170594Y0053220D01*
X0170423Y0052924D01*
X0170335Y0052593D01*
X0170335Y0050754D01*
X0173500Y0050754D01*
X0173500Y0050154D01*
X0170335Y0050154D01*
X0170335Y0048314D01*
X0170423Y0047983D01*
X0170594Y0047687D01*
X0170836Y0047445D01*
X0171133Y0047274D01*
X0171463Y0047185D01*
X0173500Y0047185D01*
X0173500Y0050153D01*
X0174100Y0050153D01*
X0174100Y0047185D01*
X0176137Y0047185D01*
X0176467Y0047274D01*
X0176764Y0047445D01*
X0177006Y0047687D01*
X0177177Y0047983D01*
X0177265Y0048314D01*
X0177265Y0050154D01*
X0174100Y0050154D01*
X0174100Y0050754D01*
X0174100Y0051309D02*
X0173500Y0051309D01*
X0173500Y0051907D02*
X0174100Y0051907D01*
X0174100Y0052506D02*
X0173500Y0052506D01*
X0173500Y0053104D02*
X0174100Y0053104D01*
X0174100Y0053703D02*
X0173500Y0053703D01*
X0171392Y0053703D02*
X0162226Y0053703D01*
X0162226Y0054301D02*
X0170673Y0054301D01*
X0170527Y0053104D02*
X0162223Y0053104D01*
X0161975Y0052506D02*
X0170335Y0052506D01*
X0170335Y0051907D02*
X0154883Y0051907D01*
X0154883Y0051309D02*
X0170335Y0051309D01*
X0170335Y0050112D02*
X0154883Y0050112D01*
X0154883Y0050710D02*
X0173500Y0050710D01*
X0173500Y0050112D02*
X0174100Y0050112D01*
X0174100Y0049513D02*
X0173500Y0049513D01*
X0173500Y0048915D02*
X0174100Y0048915D01*
X0174100Y0048316D02*
X0173500Y0048316D01*
X0173500Y0047718D02*
X0174100Y0047718D01*
X0170577Y0047718D02*
X0154883Y0047718D01*
X0154883Y0048316D02*
X0170335Y0048316D01*
X0170335Y0048915D02*
X0154883Y0048915D01*
X0154883Y0049513D02*
X0170335Y0049513D01*
X0177023Y0047718D02*
X0180577Y0047718D01*
X0180335Y0048316D02*
X0177265Y0048316D01*
X0177265Y0048915D02*
X0180335Y0048915D01*
X0180335Y0049513D02*
X0177265Y0049513D01*
X0177265Y0050112D02*
X0180335Y0050112D01*
X0180335Y0051309D02*
X0177265Y0051309D01*
X0177265Y0051907D02*
X0180335Y0051907D01*
X0180335Y0052506D02*
X0177265Y0052506D01*
X0177073Y0053104D02*
X0180527Y0053104D01*
X0181392Y0053703D02*
X0176208Y0053703D01*
X0176927Y0054301D02*
X0180673Y0054301D01*
X0180335Y0054900D02*
X0177265Y0054900D01*
X0177265Y0055498D02*
X0180335Y0055498D01*
X0180335Y0056097D02*
X0177265Y0056097D01*
X0177265Y0056695D02*
X0180335Y0056695D01*
X0180335Y0057294D02*
X0177265Y0057294D01*
X0177265Y0057892D02*
X0180335Y0057892D01*
X0180335Y0058491D02*
X0177265Y0058491D01*
X0177265Y0059089D02*
X0180335Y0059089D01*
X0180369Y0059688D02*
X0177231Y0059688D01*
X0177233Y0060286D02*
X0180367Y0060286D01*
X0180138Y0060885D02*
X0177462Y0060885D01*
X0177462Y0061483D02*
X0180138Y0061483D01*
X0180138Y0062082D02*
X0177462Y0062082D01*
X0177462Y0062680D02*
X0180138Y0062680D01*
X0180138Y0063279D02*
X0177462Y0063279D01*
X0177462Y0063877D02*
X0180138Y0063877D01*
X0180138Y0064476D02*
X0177462Y0064476D01*
X0177462Y0065074D02*
X0180138Y0065074D01*
X0180138Y0065673D02*
X0177462Y0065673D01*
X0177462Y0066272D02*
X0180138Y0066272D01*
X0180691Y0066870D02*
X0176909Y0066870D01*
X0186222Y0076446D02*
X0186378Y0076446D01*
X0186378Y0077045D02*
X0186222Y0077045D01*
X0186222Y0077643D02*
X0186378Y0077643D01*
X0186378Y0078242D02*
X0186222Y0078242D01*
X0186222Y0078840D02*
X0186378Y0078840D01*
X0186378Y0079439D02*
X0186222Y0079439D01*
X0186222Y0080037D02*
X0186378Y0080037D01*
X0187883Y0083628D02*
X0204701Y0083628D01*
X0204701Y0083030D02*
X0192649Y0083030D01*
X0193247Y0082431D02*
X0204701Y0082431D01*
X0204701Y0084227D02*
X0187284Y0084227D01*
X0186783Y0084825D02*
X0186686Y0084825D01*
X0186378Y0085424D02*
X0186222Y0085424D01*
X0186222Y0086022D02*
X0186378Y0086022D01*
X0186378Y0086621D02*
X0186222Y0086621D01*
X0186222Y0087219D02*
X0186378Y0087219D01*
X0186378Y0087818D02*
X0186222Y0087818D01*
X0186222Y0088416D02*
X0186378Y0088416D01*
X0186378Y0089015D02*
X0186222Y0089015D01*
X0186222Y0089613D02*
X0186378Y0089613D01*
X0186378Y0090212D02*
X0186222Y0090212D01*
X0186222Y0090810D02*
X0186378Y0090810D01*
X0192149Y0094402D02*
X0195374Y0094402D01*
X0195374Y0095000D02*
X0190750Y0095000D01*
X0190750Y0095599D02*
X0198500Y0095599D01*
X0198500Y0095655D02*
X0195374Y0095655D01*
X0195374Y0097593D01*
X0195463Y0097924D01*
X0195634Y0098220D01*
X0195876Y0098462D01*
X0196172Y0098633D01*
X0196503Y0098722D01*
X0198500Y0098722D01*
X0198500Y0095655D01*
X0198500Y0096197D02*
X0199100Y0096197D01*
X0199100Y0095599D02*
X0204701Y0095599D01*
X0204701Y0096197D02*
X0202226Y0096197D01*
X0202226Y0096796D02*
X0204701Y0096796D01*
X0204701Y0097394D02*
X0202226Y0097394D01*
X0202098Y0097993D02*
X0204701Y0097993D01*
X0204701Y0098591D02*
X0201501Y0098591D01*
X0201776Y0099190D02*
X0204701Y0099190D01*
X0204701Y0099788D02*
X0202226Y0099788D01*
X0202226Y0100387D02*
X0204701Y0100387D01*
X0204701Y0100985D02*
X0202226Y0100985D01*
X0202226Y0101584D02*
X0204701Y0101584D01*
X0204701Y0102182D02*
X0202226Y0102182D01*
X0202226Y0102781D02*
X0204701Y0102781D01*
X0204701Y0103379D02*
X0202226Y0103379D01*
X0202226Y0103978D02*
X0204701Y0103978D01*
X0204701Y0104576D02*
X0202226Y0104576D01*
X0201994Y0105175D02*
X0204701Y0105175D01*
X0204701Y0105773D02*
X0202265Y0105773D01*
X0202265Y0106372D02*
X0204701Y0106372D01*
X0204701Y0106970D02*
X0202265Y0106970D01*
X0202265Y0107569D02*
X0204701Y0107569D01*
X0204701Y0108167D02*
X0202265Y0108167D01*
X0202265Y0108766D02*
X0204701Y0108766D01*
X0204701Y0109364D02*
X0202265Y0109364D01*
X0202265Y0109963D02*
X0204701Y0109963D01*
X0204701Y0110561D02*
X0202165Y0110561D01*
X0201566Y0111160D02*
X0204701Y0111160D01*
X0204701Y0111758D02*
X0201884Y0111758D01*
X0202265Y0112357D02*
X0204701Y0112357D01*
X0204701Y0112955D02*
X0202265Y0112955D01*
X0202265Y0113554D02*
X0204701Y0113554D01*
X0204701Y0114152D02*
X0202265Y0114152D01*
X0202265Y0114751D02*
X0204701Y0114751D01*
X0204701Y0115349D02*
X0202265Y0115349D01*
X0202265Y0115948D02*
X0204701Y0115948D01*
X0204701Y0116546D02*
X0202265Y0116546D01*
X0202265Y0117145D02*
X0204701Y0117145D01*
X0204701Y0117743D02*
X0201675Y0117743D01*
X0200900Y0118342D02*
X0204701Y0118342D01*
X0204701Y0118941D02*
X0200900Y0118941D01*
X0200900Y0119539D02*
X0204701Y0119539D01*
X0204701Y0120138D02*
X0200900Y0120138D01*
X0200900Y0120736D02*
X0204701Y0120736D01*
X0204701Y0121335D02*
X0200900Y0121335D01*
X0200900Y0121933D02*
X0204701Y0121933D01*
X0204701Y0122532D02*
X0200900Y0122532D01*
X0200900Y0123130D02*
X0204701Y0123130D01*
X0204701Y0123729D02*
X0200591Y0123729D01*
X0199993Y0124327D02*
X0204701Y0124327D01*
X0204701Y0124926D02*
X0199394Y0124926D01*
X0198796Y0125524D02*
X0204701Y0125524D01*
X0204701Y0126123D02*
X0198197Y0126123D01*
X0197599Y0126721D02*
X0204701Y0126721D01*
X0204701Y0127320D02*
X0195097Y0127320D01*
X0196670Y0127918D02*
X0204701Y0127918D01*
X0204701Y0128517D02*
X0197707Y0128517D01*
X0198744Y0129115D02*
X0204701Y0129115D01*
X0204701Y0129714D02*
X0199393Y0129714D01*
X0199992Y0130312D02*
X0204701Y0130312D01*
X0204701Y0130911D02*
X0200590Y0130911D01*
X0201160Y0131509D02*
X0204701Y0131509D01*
X0204701Y0132108D02*
X0201506Y0132108D01*
X0201852Y0132706D02*
X0204701Y0132706D01*
X0204701Y0133305D02*
X0202197Y0133305D01*
X0202543Y0133903D02*
X0204701Y0133903D01*
X0204701Y0134502D02*
X0202797Y0134502D01*
X0202958Y0135100D02*
X0204701Y0135100D01*
X0204701Y0135699D02*
X0203118Y0135699D01*
X0203278Y0136297D02*
X0204701Y0136297D01*
X0204701Y0136896D02*
X0203439Y0136896D01*
X0203545Y0137494D02*
X0204701Y0137494D01*
X0204701Y0138093D02*
X0203545Y0138093D01*
X0203545Y0138691D02*
X0204701Y0138691D01*
X0204701Y0139290D02*
X0203545Y0139290D01*
X0203545Y0139888D02*
X0204701Y0139888D01*
X0204701Y0140487D02*
X0203544Y0140487D01*
X0203384Y0141085D02*
X0204701Y0141085D01*
X0204701Y0141684D02*
X0203224Y0141684D01*
X0203063Y0142282D02*
X0204701Y0142282D01*
X0204701Y0142881D02*
X0202903Y0142881D01*
X0202743Y0143479D02*
X0204701Y0143479D01*
X0204701Y0144078D02*
X0202425Y0144078D01*
X0202079Y0144677D02*
X0204701Y0144677D01*
X0204701Y0145275D02*
X0201734Y0145275D01*
X0201388Y0145874D02*
X0204701Y0145874D01*
X0204701Y0146472D02*
X0200984Y0146472D01*
X0200386Y0147071D02*
X0204701Y0147071D01*
X0204701Y0147669D02*
X0199787Y0147669D01*
X0199189Y0148268D02*
X0204701Y0148268D01*
X0183647Y0148268D02*
X0041620Y0148268D01*
X0042219Y0147669D02*
X0183049Y0147669D01*
X0182450Y0147071D02*
X0096675Y0147071D01*
X0097273Y0146472D02*
X0181852Y0146472D01*
X0181448Y0145874D02*
X0155178Y0145874D01*
X0155451Y0145785D02*
X0154807Y0145994D01*
X0154138Y0146100D01*
X0154100Y0146100D01*
X0154100Y0139100D01*
X0158100Y0139100D01*
X0158100Y0142138D01*
X0157994Y0142807D01*
X0157785Y0143451D01*
X0157478Y0144054D01*
X0157080Y0144601D01*
X0156601Y0145080D01*
X0156054Y0145478D01*
X0155451Y0145785D01*
X0156333Y0145275D02*
X0181103Y0145275D01*
X0180757Y0144677D02*
X0157005Y0144677D01*
X0157460Y0144078D02*
X0180411Y0144078D01*
X0180094Y0143479D02*
X0157770Y0143479D01*
X0157970Y0142881D02*
X0179933Y0142881D01*
X0179773Y0142282D02*
X0158077Y0142282D01*
X0158100Y0141684D02*
X0179613Y0141684D01*
X0179452Y0141085D02*
X0158100Y0141085D01*
X0158100Y0140487D02*
X0179292Y0140487D01*
X0179291Y0139888D02*
X0158100Y0139888D01*
X0158100Y0139290D02*
X0179291Y0139290D01*
X0179291Y0138691D02*
X0154100Y0138691D01*
X0154100Y0138093D02*
X0153500Y0138093D01*
X0153500Y0138691D02*
X0148100Y0138691D01*
X0148100Y0138093D02*
X0149500Y0138093D01*
X0149500Y0137494D02*
X0148100Y0137494D01*
X0148100Y0136896D02*
X0149500Y0136896D01*
X0149500Y0136297D02*
X0148100Y0136297D01*
X0148100Y0135699D02*
X0149500Y0135699D01*
X0149557Y0135100D02*
X0148100Y0135100D01*
X0147917Y0134502D02*
X0149701Y0134502D01*
X0149940Y0133903D02*
X0147669Y0133903D01*
X0147386Y0133305D02*
X0150298Y0133305D01*
X0150813Y0132706D02*
X0146787Y0132706D01*
X0151572Y0132108D02*
X0151575Y0132108D01*
X0152171Y0131509D02*
X0153403Y0131509D01*
X0153500Y0131509D02*
X0153539Y0131509D01*
X0153500Y0132108D02*
X0154100Y0132108D01*
X0154100Y0132706D02*
X0153500Y0132706D01*
X0153500Y0133305D02*
X0154100Y0133305D01*
X0154100Y0133903D02*
X0153500Y0133903D01*
X0153500Y0134502D02*
X0154100Y0134502D01*
X0154100Y0135100D02*
X0153500Y0135100D01*
X0153500Y0135699D02*
X0154100Y0135699D01*
X0154100Y0136297D02*
X0153500Y0136297D01*
X0153500Y0136896D02*
X0154100Y0136896D01*
X0154100Y0137494D02*
X0153500Y0137494D01*
X0153500Y0139290D02*
X0154100Y0139290D01*
X0154100Y0139888D02*
X0153500Y0139888D01*
X0153500Y0140487D02*
X0154100Y0140487D01*
X0154100Y0141085D02*
X0153500Y0141085D01*
X0153500Y0141684D02*
X0154100Y0141684D01*
X0154100Y0142282D02*
X0153500Y0142282D01*
X0153500Y0142881D02*
X0154100Y0142881D01*
X0154100Y0143479D02*
X0153500Y0143479D01*
X0153500Y0144078D02*
X0154100Y0144078D01*
X0154100Y0144677D02*
X0153500Y0144677D01*
X0153500Y0145275D02*
X0154100Y0145275D01*
X0154100Y0145874D02*
X0153500Y0145874D01*
X0152422Y0145874D02*
X0145202Y0145874D01*
X0146406Y0145275D02*
X0151267Y0145275D01*
X0150595Y0144677D02*
X0147005Y0144677D01*
X0147511Y0144078D02*
X0150140Y0144078D01*
X0149830Y0143479D02*
X0147759Y0143479D01*
X0148007Y0142881D02*
X0149630Y0142881D01*
X0149523Y0142282D02*
X0148100Y0142282D01*
X0148100Y0141684D02*
X0149500Y0141684D01*
X0149500Y0141085D02*
X0148100Y0141085D01*
X0148100Y0140487D02*
X0149500Y0140487D01*
X0149500Y0139888D02*
X0148100Y0139888D01*
X0148100Y0139290D02*
X0149500Y0139290D01*
X0158100Y0138093D02*
X0179291Y0138093D01*
X0179291Y0137494D02*
X0158100Y0137494D01*
X0158100Y0136896D02*
X0179397Y0136896D01*
X0179558Y0136297D02*
X0158100Y0136297D01*
X0158100Y0135699D02*
X0179718Y0135699D01*
X0179879Y0135100D02*
X0158043Y0135100D01*
X0157899Y0134502D02*
X0180039Y0134502D01*
X0180294Y0133903D02*
X0157660Y0133903D01*
X0157302Y0133305D02*
X0180639Y0133305D01*
X0180985Y0132706D02*
X0156787Y0132706D01*
X0152941Y0130911D02*
X0152769Y0130911D01*
X0155888Y0127918D02*
X0175462Y0127918D01*
X0176060Y0127320D02*
X0155290Y0127320D01*
X0155965Y0126721D02*
X0156636Y0126721D01*
X0156385Y0126123D02*
X0156222Y0126123D01*
X0156222Y0125524D02*
X0156378Y0125524D01*
X0156378Y0124926D02*
X0156222Y0124926D01*
X0156222Y0124327D02*
X0156378Y0124327D01*
X0156222Y0123729D02*
X0159445Y0123729D01*
X0159445Y0124327D02*
X0160045Y0124327D01*
X0160045Y0123729D02*
X0179652Y0123729D01*
X0180250Y0123130D02*
X0163112Y0123130D01*
X0163112Y0123500D02*
X0160045Y0123500D01*
X0160045Y0120374D01*
X0161983Y0120374D01*
X0162314Y0120463D01*
X0162610Y0120634D01*
X0162852Y0120876D01*
X0163023Y0121172D01*
X0163112Y0121503D01*
X0163112Y0123500D01*
X0163112Y0124327D02*
X0179053Y0124327D01*
X0178455Y0124926D02*
X0163112Y0124926D01*
X0163112Y0125524D02*
X0177856Y0125524D01*
X0177257Y0126123D02*
X0163105Y0126123D01*
X0162854Y0126721D02*
X0176659Y0126721D01*
X0180205Y0129115D02*
X0184093Y0129115D01*
X0183443Y0129714D02*
X0179606Y0129714D01*
X0179008Y0130312D02*
X0182845Y0130312D01*
X0182246Y0130911D02*
X0178409Y0130911D01*
X0177811Y0131509D02*
X0181676Y0131509D01*
X0181330Y0132108D02*
X0177212Y0132108D01*
X0180803Y0128517D02*
X0185129Y0128517D01*
X0186166Y0127918D02*
X0181402Y0127918D01*
X0182000Y0127320D02*
X0187740Y0127320D01*
X0190750Y0122532D02*
X0195849Y0122532D01*
X0196447Y0121933D02*
X0190750Y0121933D01*
X0190750Y0121335D02*
X0196700Y0121335D01*
X0196700Y0120736D02*
X0190750Y0120736D01*
X0190750Y0120138D02*
X0196700Y0120138D01*
X0196700Y0119539D02*
X0186600Y0119539D01*
X0186600Y0119130D02*
X0190750Y0119130D01*
X0190750Y0115322D01*
X0190661Y0114991D01*
X0190490Y0114695D01*
X0190248Y0114453D01*
X0189951Y0114282D01*
X0189621Y0114193D01*
X0186600Y0114193D01*
X0186600Y0119130D01*
X0186600Y0118941D02*
X0186000Y0118941D01*
X0186000Y0119539D02*
X0162754Y0119539D01*
X0162954Y0119338D02*
X0162193Y0120100D01*
X0159935Y0120100D01*
X0159918Y0120084D01*
X0159857Y0120100D01*
X0159095Y0120100D01*
X0159095Y0116438D01*
X0159095Y0116438D01*
X0159095Y0116438D01*
X0159095Y0112776D01*
X0159857Y0112776D01*
X0159918Y0112792D01*
X0159935Y0112776D01*
X0162193Y0112776D01*
X0162954Y0113537D01*
X0162954Y0119338D01*
X0162954Y0118941D02*
X0181850Y0118941D01*
X0181850Y0118342D02*
X0162954Y0118342D01*
X0162954Y0117743D02*
X0181850Y0117743D01*
X0181850Y0117145D02*
X0162954Y0117145D01*
X0162954Y0116546D02*
X0181850Y0116546D01*
X0181850Y0115948D02*
X0162954Y0115948D01*
X0162954Y0115349D02*
X0173373Y0115349D01*
X0173376Y0115352D02*
X0173134Y0115110D01*
X0172963Y0114814D01*
X0172874Y0114483D01*
X0172874Y0112545D01*
X0176000Y0112545D01*
X0176000Y0115612D01*
X0174003Y0115612D01*
X0173672Y0115523D01*
X0173376Y0115352D01*
X0172946Y0114751D02*
X0162954Y0114751D01*
X0162954Y0114152D02*
X0172874Y0114152D01*
X0172874Y0113554D02*
X0162954Y0113554D01*
X0162373Y0112955D02*
X0172874Y0112955D01*
X0172874Y0111945D02*
X0172874Y0110007D01*
X0172963Y0109676D01*
X0173134Y0109380D01*
X0173376Y0109138D01*
X0173672Y0108967D01*
X0174003Y0108878D01*
X0176000Y0108878D01*
X0176000Y0111945D01*
X0172874Y0111945D01*
X0172874Y0111758D02*
X0148978Y0111758D01*
X0148978Y0111160D02*
X0172874Y0111160D01*
X0172874Y0110561D02*
X0148978Y0110561D01*
X0148978Y0109963D02*
X0165546Y0109963D01*
X0165276Y0109364D02*
X0148978Y0109364D01*
X0148978Y0108766D02*
X0165276Y0108766D01*
X0165276Y0108167D02*
X0148978Y0108167D01*
X0148978Y0107569D02*
X0165276Y0107569D01*
X0165276Y0106970D02*
X0148978Y0106970D01*
X0148991Y0106372D02*
X0165276Y0106372D01*
X0165276Y0105773D02*
X0148991Y0105773D01*
X0148746Y0105175D02*
X0165276Y0105175D01*
X0165276Y0104576D02*
X0148381Y0104576D01*
X0147724Y0103978D02*
X0165276Y0103978D01*
X0172600Y0104576D02*
X0172874Y0104576D01*
X0172874Y0105175D02*
X0172600Y0105175D01*
X0172600Y0105773D02*
X0172874Y0105773D01*
X0172874Y0106372D02*
X0172600Y0106372D01*
X0172600Y0106970D02*
X0172874Y0106970D01*
X0172874Y0107569D02*
X0172600Y0107569D01*
X0172600Y0108167D02*
X0173081Y0108167D01*
X0172600Y0108766D02*
X0185796Y0108766D01*
X0186394Y0109364D02*
X0179451Y0109364D01*
X0179466Y0109380D02*
X0179637Y0109676D01*
X0179726Y0110007D01*
X0179726Y0111945D01*
X0176600Y0111945D01*
X0176600Y0112545D01*
X0176000Y0112545D01*
X0176000Y0111945D01*
X0176600Y0111945D01*
X0176600Y0108878D01*
X0178597Y0108878D01*
X0178928Y0108967D01*
X0179224Y0109138D01*
X0179466Y0109380D01*
X0179714Y0109963D02*
X0186993Y0109963D01*
X0187592Y0110561D02*
X0179726Y0110561D01*
X0179726Y0111160D02*
X0188190Y0111160D01*
X0188789Y0111758D02*
X0179726Y0111758D01*
X0179726Y0112545D02*
X0176600Y0112545D01*
X0176600Y0115612D01*
X0178597Y0115612D01*
X0178928Y0115523D01*
X0179224Y0115352D01*
X0179466Y0115110D01*
X0179637Y0114814D01*
X0179726Y0114483D01*
X0179726Y0112545D01*
X0179726Y0112955D02*
X0189986Y0112955D01*
X0190584Y0113554D02*
X0179726Y0113554D01*
X0179726Y0114152D02*
X0191183Y0114152D01*
X0191781Y0114751D02*
X0190522Y0114751D01*
X0190750Y0115349D02*
X0192380Y0115349D01*
X0192978Y0115948D02*
X0190750Y0115948D01*
X0190750Y0116546D02*
X0193577Y0116546D01*
X0195335Y0117145D02*
X0190750Y0117145D01*
X0190750Y0117743D02*
X0195925Y0117743D01*
X0196700Y0118342D02*
X0190750Y0118342D01*
X0190750Y0118941D02*
X0196700Y0118941D01*
X0195335Y0112357D02*
X0195327Y0112357D01*
X0195716Y0111758D02*
X0194728Y0111758D01*
X0194130Y0111160D02*
X0196034Y0111160D01*
X0195435Y0110561D02*
X0193531Y0110561D01*
X0192933Y0109963D02*
X0195335Y0109963D01*
X0195335Y0109364D02*
X0192334Y0109364D01*
X0191736Y0108766D02*
X0195335Y0108766D01*
X0195335Y0108167D02*
X0191137Y0108167D01*
X0190539Y0107569D02*
X0195335Y0107569D01*
X0195335Y0106970D02*
X0189940Y0106970D01*
X0189342Y0106372D02*
X0195335Y0106372D01*
X0195335Y0105773D02*
X0188743Y0105773D01*
X0188145Y0105175D02*
X0195606Y0105175D01*
X0195374Y0104576D02*
X0187546Y0104576D01*
X0186948Y0103978D02*
X0195374Y0103978D01*
X0193484Y0103379D02*
X0190016Y0103379D01*
X0190614Y0102781D02*
X0192885Y0102781D01*
X0192287Y0102182D02*
X0190750Y0102182D01*
X0190750Y0101584D02*
X0191688Y0101584D01*
X0191090Y0100985D02*
X0190750Y0100985D01*
X0193486Y0098591D02*
X0196099Y0098591D01*
X0195824Y0099190D02*
X0194085Y0099190D01*
X0194683Y0099788D02*
X0195374Y0099788D01*
X0195374Y0100387D02*
X0195282Y0100387D01*
X0195502Y0097993D02*
X0192888Y0097993D01*
X0192289Y0097394D02*
X0195374Y0097394D01*
X0195374Y0096796D02*
X0191691Y0096796D01*
X0190750Y0096197D02*
X0195374Y0096197D01*
X0198500Y0096796D02*
X0199100Y0096796D01*
X0199100Y0097394D02*
X0198500Y0097394D01*
X0198500Y0097993D02*
X0199100Y0097993D01*
X0199100Y0098591D02*
X0198500Y0098591D01*
X0198500Y0095000D02*
X0199100Y0095000D01*
X0199100Y0094402D02*
X0198500Y0094402D01*
X0198500Y0093803D02*
X0199100Y0093803D01*
X0199100Y0093205D02*
X0198500Y0093205D01*
X0198500Y0092606D02*
X0199100Y0092606D01*
X0199100Y0092008D02*
X0198500Y0092008D01*
X0198722Y0091409D02*
X0198962Y0091409D01*
X0198878Y0090810D02*
X0198722Y0090810D01*
X0198722Y0090212D02*
X0198878Y0090212D01*
X0198878Y0089613D02*
X0198722Y0089613D01*
X0198722Y0089015D02*
X0201945Y0089015D01*
X0201945Y0088500D02*
X0198878Y0088500D01*
X0198878Y0086503D01*
X0198967Y0086172D01*
X0199138Y0085876D01*
X0199380Y0085634D01*
X0199676Y0085463D01*
X0200007Y0085374D01*
X0201945Y0085374D01*
X0201945Y0088500D01*
X0201945Y0088416D02*
X0202545Y0088416D01*
X0202545Y0087818D02*
X0201945Y0087818D01*
X0201945Y0087219D02*
X0202545Y0087219D01*
X0202545Y0086621D02*
X0201945Y0086621D01*
X0201945Y0086022D02*
X0202545Y0086022D01*
X0202545Y0085424D02*
X0201945Y0085424D01*
X0199821Y0085424D02*
X0198010Y0085424D01*
X0198609Y0086022D02*
X0199053Y0086022D01*
X0198878Y0086621D02*
X0198722Y0086621D01*
X0198722Y0087219D02*
X0198878Y0087219D01*
X0198878Y0087818D02*
X0198722Y0087818D01*
X0198722Y0088416D02*
X0198878Y0088416D01*
X0201945Y0089613D02*
X0202545Y0089613D01*
X0202545Y0090212D02*
X0201945Y0090212D01*
X0201945Y0090810D02*
X0202545Y0090810D01*
X0202545Y0091409D02*
X0201945Y0091409D01*
X0201945Y0092008D02*
X0202545Y0092008D01*
X0202033Y0092606D02*
X0204701Y0092606D01*
X0204701Y0093205D02*
X0202226Y0093205D01*
X0202226Y0093803D02*
X0204701Y0093803D01*
X0204701Y0094402D02*
X0202226Y0094402D01*
X0202226Y0095000D02*
X0204701Y0095000D01*
X0195374Y0093803D02*
X0192747Y0093803D01*
X0193346Y0093205D02*
X0195374Y0093205D01*
X0195567Y0092606D02*
X0193944Y0092606D01*
X0192904Y0084825D02*
X0204701Y0084825D01*
X0204669Y0085424D02*
X0204701Y0085424D01*
X0202545Y0081833D02*
X0201945Y0081833D01*
X0201945Y0081234D02*
X0202545Y0081234D01*
X0202545Y0080636D02*
X0201945Y0080636D01*
X0201945Y0080037D02*
X0202545Y0080037D01*
X0202545Y0079439D02*
X0201945Y0079439D01*
X0201945Y0078840D02*
X0198722Y0078840D01*
X0198878Y0078500D02*
X0198878Y0076503D01*
X0198967Y0076172D01*
X0199138Y0075876D01*
X0199380Y0075634D01*
X0199676Y0075463D01*
X0200007Y0075374D01*
X0201945Y0075374D01*
X0201945Y0078500D01*
X0198878Y0078500D01*
X0198878Y0078242D02*
X0198722Y0078242D01*
X0198722Y0077643D02*
X0198878Y0077643D01*
X0198878Y0077045D02*
X0198722Y0077045D01*
X0198722Y0076446D02*
X0198893Y0076446D01*
X0199166Y0075848D02*
X0198434Y0075848D01*
X0201945Y0075848D02*
X0202545Y0075848D01*
X0202545Y0076446D02*
X0201945Y0076446D01*
X0201945Y0077045D02*
X0202545Y0077045D01*
X0202545Y0077643D02*
X0201945Y0077643D01*
X0201945Y0078242D02*
X0202545Y0078242D01*
X0198878Y0079439D02*
X0198722Y0079439D01*
X0198722Y0080037D02*
X0198878Y0080037D01*
X0198878Y0080636D02*
X0198722Y0080636D01*
X0198722Y0081234D02*
X0198915Y0081234D01*
X0199246Y0081833D02*
X0198354Y0081833D01*
X0177499Y0097394D02*
X0172600Y0097394D01*
X0172600Y0096796D02*
X0176900Y0096796D01*
X0176302Y0096197D02*
X0172600Y0096197D01*
X0172600Y0095599D02*
X0175703Y0095599D01*
X0175105Y0095000D02*
X0172600Y0095000D01*
X0172600Y0094402D02*
X0174506Y0094402D01*
X0173908Y0093803D02*
X0172600Y0093803D01*
X0172600Y0093205D02*
X0173309Y0093205D01*
X0172711Y0092606D02*
X0172600Y0092606D01*
X0172600Y0097993D02*
X0178097Y0097993D01*
X0178696Y0098591D02*
X0172600Y0098591D01*
X0172600Y0099190D02*
X0179294Y0099190D01*
X0179893Y0099788D02*
X0172600Y0099788D01*
X0172600Y0100387D02*
X0181850Y0100387D01*
X0181850Y0100985D02*
X0175880Y0100985D01*
X0176479Y0101584D02*
X0181850Y0101584D01*
X0181850Y0102182D02*
X0179158Y0102182D01*
X0179726Y0102781D02*
X0181986Y0102781D01*
X0179726Y0107569D02*
X0184599Y0107569D01*
X0185197Y0108167D02*
X0179519Y0108167D01*
X0176600Y0109364D02*
X0176000Y0109364D01*
X0176000Y0109963D02*
X0176600Y0109963D01*
X0176600Y0110561D02*
X0176000Y0110561D01*
X0176000Y0111160D02*
X0176600Y0111160D01*
X0176600Y0111758D02*
X0176000Y0111758D01*
X0176000Y0112357D02*
X0148978Y0112357D01*
X0143622Y0112357D02*
X0122252Y0112357D01*
X0122851Y0112955D02*
X0130227Y0112955D01*
X0129646Y0113554D02*
X0123449Y0113554D01*
X0124048Y0114152D02*
X0129646Y0114152D01*
X0129646Y0114751D02*
X0124646Y0114751D01*
X0125245Y0115349D02*
X0129646Y0115349D01*
X0129646Y0115948D02*
X0125843Y0115948D01*
X0126442Y0116546D02*
X0129646Y0116546D01*
X0129646Y0117145D02*
X0127040Y0117145D01*
X0127639Y0117743D02*
X0129646Y0117743D01*
X0129646Y0118342D02*
X0128237Y0118342D01*
X0128836Y0118941D02*
X0129646Y0118941D01*
X0126378Y0121335D02*
X0126177Y0121335D01*
X0126133Y0121172D02*
X0126222Y0121503D01*
X0126222Y0123500D01*
X0123155Y0123500D01*
X0123155Y0120374D01*
X0125093Y0120374D01*
X0125424Y0120463D01*
X0125720Y0120634D01*
X0125962Y0120876D01*
X0126133Y0121172D01*
X0125841Y0120736D02*
X0125823Y0120736D01*
X0125242Y0120138D02*
X0021600Y0120138D01*
X0021600Y0120736D02*
X0119888Y0120736D01*
X0119990Y0120634D02*
X0119748Y0120876D01*
X0119577Y0121172D01*
X0119488Y0121503D01*
X0119488Y0123500D01*
X0122555Y0123500D01*
X0122555Y0124100D01*
X0119488Y0124100D01*
X0119488Y0126097D01*
X0119577Y0126428D01*
X0119748Y0126724D01*
X0119990Y0126966D01*
X0120286Y0127137D01*
X0120617Y0127226D01*
X0122555Y0127226D01*
X0122555Y0124100D01*
X0123155Y0124100D01*
X0123155Y0127226D01*
X0125093Y0127226D01*
X0125424Y0127137D01*
X0125720Y0126966D01*
X0125962Y0126724D01*
X0126133Y0126428D01*
X0126222Y0126097D01*
X0126222Y0124100D01*
X0123155Y0124100D01*
X0123155Y0123500D01*
X0122555Y0123500D01*
X0122555Y0120374D01*
X0120617Y0120374D01*
X0120286Y0120463D01*
X0119990Y0120634D01*
X0119533Y0121335D02*
X0102379Y0121335D01*
X0103238Y0121933D02*
X0119488Y0121933D01*
X0119488Y0122532D02*
X0103687Y0122532D01*
X0103935Y0123130D02*
X0119488Y0123130D01*
X0119488Y0124327D02*
X0104797Y0124327D01*
X0104198Y0123729D02*
X0122555Y0123729D01*
X0122555Y0124327D02*
X0123155Y0124327D01*
X0123155Y0123729D02*
X0126378Y0123729D01*
X0126378Y0124327D02*
X0126222Y0124327D01*
X0126222Y0124926D02*
X0126378Y0124926D01*
X0126378Y0125524D02*
X0126222Y0125524D01*
X0126215Y0126123D02*
X0126378Y0126123D01*
X0126635Y0126721D02*
X0125964Y0126721D01*
X0127645Y0127320D02*
X0107790Y0127320D01*
X0108388Y0127918D02*
X0127352Y0127918D01*
X0129700Y0131509D02*
X0129789Y0131509D01*
X0130388Y0132108D02*
X0129102Y0132108D01*
X0130214Y0133305D02*
X0112265Y0133305D01*
X0112265Y0133903D02*
X0129931Y0133903D01*
X0129683Y0134502D02*
X0112265Y0134502D01*
X0112265Y0135100D02*
X0129500Y0135100D01*
X0129500Y0135699D02*
X0112265Y0135699D01*
X0112265Y0136297D02*
X0129500Y0136297D01*
X0129500Y0136896D02*
X0112265Y0136896D01*
X0112265Y0137494D02*
X0129500Y0137494D01*
X0129500Y0138093D02*
X0112133Y0138093D01*
X0111534Y0138691D02*
X0129500Y0138691D01*
X0129500Y0139290D02*
X0111916Y0139290D01*
X0112265Y0139888D02*
X0129500Y0139888D01*
X0129500Y0140487D02*
X0112265Y0140487D01*
X0112265Y0141085D02*
X0129500Y0141085D01*
X0129500Y0141684D02*
X0112265Y0141684D01*
X0112265Y0142282D02*
X0129500Y0142282D01*
X0129593Y0142881D02*
X0112265Y0142881D01*
X0112265Y0143479D02*
X0129841Y0143479D01*
X0130089Y0144078D02*
X0112265Y0144078D01*
X0112242Y0144677D02*
X0130595Y0144677D01*
X0131194Y0145275D02*
X0111644Y0145275D01*
X0105956Y0145275D02*
X0099144Y0145275D01*
X0099742Y0144677D02*
X0105358Y0144677D01*
X0105335Y0144078D02*
X0099765Y0144078D01*
X0099765Y0143479D02*
X0103584Y0143479D01*
X0102986Y0142881D02*
X0099765Y0142881D01*
X0099765Y0142282D02*
X0102387Y0142282D01*
X0101789Y0141684D02*
X0099765Y0141684D01*
X0099765Y0141085D02*
X0101190Y0141085D01*
X0103587Y0138691D02*
X0106066Y0138691D01*
X0105684Y0139290D02*
X0104185Y0139290D01*
X0104784Y0139888D02*
X0105335Y0139888D01*
X0105467Y0138093D02*
X0102988Y0138093D01*
X0102390Y0137494D02*
X0105335Y0137494D01*
X0105335Y0133305D02*
X0099765Y0133305D01*
X0099525Y0132706D02*
X0105575Y0132706D01*
X0106638Y0132108D02*
X0097994Y0132108D01*
X0097994Y0131509D02*
X0106039Y0131509D01*
X0105441Y0130911D02*
X0097994Y0130911D01*
X0097994Y0130312D02*
X0104842Y0130312D01*
X0104244Y0129714D02*
X0097994Y0129714D01*
X0098380Y0129115D02*
X0103645Y0129115D01*
X0103047Y0128517D02*
X0098979Y0128517D01*
X0099577Y0127918D02*
X0102448Y0127918D01*
X0101850Y0127320D02*
X0100176Y0127320D01*
X0100774Y0126721D02*
X0101251Y0126721D01*
X0097779Y0124926D02*
X0021600Y0124926D01*
X0021600Y0125524D02*
X0097181Y0125524D01*
X0096582Y0126123D02*
X0021600Y0126123D01*
X0021600Y0126721D02*
X0032162Y0126721D01*
X0029929Y0127320D02*
X0021600Y0127320D01*
X0021600Y0127918D02*
X0028532Y0127918D01*
X0027495Y0128517D02*
X0021600Y0128517D01*
X0021600Y0129115D02*
X0026473Y0129115D01*
X0025874Y0129714D02*
X0021600Y0129714D01*
X0021600Y0130312D02*
X0025276Y0130312D01*
X0024677Y0130911D02*
X0021600Y0130911D01*
X0021600Y0131509D02*
X0024144Y0131509D01*
X0023799Y0132108D02*
X0021600Y0132108D01*
X0021600Y0132706D02*
X0023453Y0132706D01*
X0023108Y0133305D02*
X0021600Y0133305D01*
X0021600Y0133903D02*
X0022762Y0133903D01*
X0022535Y0134502D02*
X0021600Y0134502D01*
X0021600Y0135100D02*
X0022375Y0135100D01*
X0022214Y0135699D02*
X0021600Y0135699D01*
X0021600Y0136297D02*
X0022054Y0136297D01*
X0021893Y0136896D02*
X0021600Y0136896D01*
X0021600Y0137494D02*
X0021811Y0137494D01*
X0021811Y0138093D02*
X0021600Y0138093D01*
X0021600Y0138691D02*
X0021811Y0138691D01*
X0021811Y0139290D02*
X0021600Y0139290D01*
X0021600Y0139888D02*
X0021811Y0139888D01*
X0021835Y0140487D02*
X0021600Y0140487D01*
X0021600Y0141085D02*
X0021996Y0141085D01*
X0022156Y0141684D02*
X0021600Y0141684D01*
X0021600Y0142282D02*
X0022316Y0142282D01*
X0022477Y0142881D02*
X0021600Y0142881D01*
X0021600Y0143479D02*
X0022637Y0143479D01*
X0022982Y0144078D02*
X0021600Y0144078D01*
X0021600Y0144677D02*
X0023328Y0144677D01*
X0023673Y0145275D02*
X0021600Y0145275D01*
X0021600Y0145874D02*
X0024019Y0145874D01*
X0024460Y0146472D02*
X0021600Y0146472D01*
X0021600Y0147071D02*
X0025059Y0147071D01*
X0025657Y0147669D02*
X0021600Y0147669D01*
X0021600Y0148268D02*
X0026256Y0148268D01*
X0042817Y0147071D02*
X0065108Y0147071D01*
X0064510Y0146472D02*
X0043416Y0146472D01*
X0043857Y0145874D02*
X0049922Y0145874D01*
X0049649Y0145785D02*
X0050293Y0145994D01*
X0050962Y0146100D01*
X0051000Y0146100D01*
X0051000Y0139100D01*
X0051600Y0139100D01*
X0055600Y0139100D01*
X0055600Y0142138D01*
X0055494Y0142807D01*
X0055285Y0143451D01*
X0054978Y0144054D01*
X0054580Y0144601D01*
X0054101Y0145080D01*
X0053554Y0145478D01*
X0052951Y0145785D01*
X0052307Y0145994D01*
X0051638Y0146100D01*
X0051600Y0146100D01*
X0051600Y0139100D01*
X0051600Y0138500D01*
X0055600Y0138500D01*
X0055600Y0135462D01*
X0055494Y0134793D01*
X0055285Y0134149D01*
X0054978Y0133546D01*
X0054580Y0132999D01*
X0054101Y0132520D01*
X0053554Y0132122D01*
X0052951Y0131815D01*
X0052307Y0131606D01*
X0051638Y0131500D01*
X0051600Y0131500D01*
X0051600Y0138500D01*
X0051000Y0138500D01*
X0051000Y0131500D01*
X0050962Y0131500D01*
X0050293Y0131606D01*
X0049649Y0131815D01*
X0049046Y0132122D01*
X0048499Y0132520D01*
X0048020Y0132999D01*
X0047622Y0133546D01*
X0047315Y0134149D01*
X0047106Y0134793D01*
X0047000Y0135462D01*
X0047000Y0138500D01*
X0051000Y0138500D01*
X0051000Y0139100D01*
X0047000Y0139100D01*
X0047000Y0142138D01*
X0047106Y0142807D01*
X0047315Y0143451D01*
X0047622Y0144054D01*
X0048020Y0144601D01*
X0048499Y0145080D01*
X0049046Y0145478D01*
X0049649Y0145785D01*
X0048767Y0145275D02*
X0044202Y0145275D01*
X0044548Y0144677D02*
X0048095Y0144677D01*
X0047640Y0144078D02*
X0044893Y0144078D01*
X0045238Y0143479D02*
X0047330Y0143479D01*
X0047130Y0142881D02*
X0045399Y0142881D01*
X0045559Y0142282D02*
X0047023Y0142282D01*
X0047000Y0141684D02*
X0045720Y0141684D01*
X0045880Y0141085D02*
X0047000Y0141085D01*
X0047000Y0140487D02*
X0046040Y0140487D01*
X0046065Y0139888D02*
X0047000Y0139888D01*
X0047000Y0139290D02*
X0046065Y0139290D01*
X0046065Y0138691D02*
X0051000Y0138691D01*
X0051000Y0138093D02*
X0051600Y0138093D01*
X0051600Y0138691D02*
X0057000Y0138691D01*
X0057000Y0138093D02*
X0055600Y0138093D01*
X0055600Y0137494D02*
X0057000Y0137494D01*
X0057000Y0136896D02*
X0055600Y0136896D01*
X0055600Y0136297D02*
X0057000Y0136297D01*
X0057000Y0135699D02*
X0055600Y0135699D01*
X0055543Y0135100D02*
X0057000Y0135100D01*
X0057183Y0134502D02*
X0055399Y0134502D01*
X0055160Y0133903D02*
X0057431Y0133903D01*
X0057714Y0133305D02*
X0054802Y0133305D01*
X0054287Y0132706D02*
X0058313Y0132706D01*
X0058977Y0132108D02*
X0053525Y0132108D01*
X0051697Y0131509D02*
X0060422Y0131509D01*
X0062178Y0131509D02*
X0073403Y0131509D01*
X0073462Y0131500D02*
X0073500Y0131500D01*
X0073500Y0138500D01*
X0069500Y0138500D01*
X0069500Y0135462D01*
X0069606Y0134793D01*
X0069815Y0134149D01*
X0070122Y0133546D01*
X0070520Y0132999D01*
X0070999Y0132520D01*
X0071546Y0132122D01*
X0072149Y0131815D01*
X0072793Y0131606D01*
X0073462Y0131500D01*
X0073500Y0131509D02*
X0074100Y0131509D01*
X0074100Y0131500D02*
X0074138Y0131500D01*
X0074807Y0131606D01*
X0075451Y0131815D01*
X0076054Y0132122D01*
X0076601Y0132520D01*
X0077080Y0132999D01*
X0077478Y0133546D01*
X0077785Y0134149D01*
X0077994Y0134793D01*
X0078100Y0135462D01*
X0078100Y0138500D01*
X0074100Y0138500D01*
X0074100Y0131500D01*
X0074197Y0131509D02*
X0082922Y0131509D01*
X0081477Y0132108D02*
X0076025Y0132108D01*
X0076787Y0132706D02*
X0080813Y0132706D01*
X0080214Y0133305D02*
X0077302Y0133305D01*
X0077660Y0133903D02*
X0079931Y0133903D01*
X0079683Y0134502D02*
X0077899Y0134502D01*
X0078043Y0135100D02*
X0079500Y0135100D01*
X0079500Y0135699D02*
X0078100Y0135699D01*
X0078100Y0136297D02*
X0079500Y0136297D01*
X0079500Y0136896D02*
X0078100Y0136896D01*
X0078100Y0137494D02*
X0079500Y0137494D01*
X0079500Y0138093D02*
X0078100Y0138093D01*
X0078100Y0139290D02*
X0079500Y0139290D01*
X0079500Y0139888D02*
X0078100Y0139888D01*
X0078100Y0140487D02*
X0079500Y0140487D01*
X0079500Y0141085D02*
X0078100Y0141085D01*
X0078100Y0141684D02*
X0079500Y0141684D01*
X0079500Y0142282D02*
X0078077Y0142282D01*
X0077970Y0142881D02*
X0079593Y0142881D01*
X0079841Y0143479D02*
X0077770Y0143479D01*
X0077460Y0144078D02*
X0080089Y0144078D01*
X0079500Y0138691D02*
X0074100Y0138691D01*
X0074100Y0138093D02*
X0073500Y0138093D01*
X0073500Y0138691D02*
X0065600Y0138691D01*
X0065600Y0138093D02*
X0069500Y0138093D01*
X0069500Y0137494D02*
X0065600Y0137494D01*
X0065600Y0136896D02*
X0069500Y0136896D01*
X0069500Y0136297D02*
X0065600Y0136297D01*
X0065600Y0135699D02*
X0069500Y0135699D01*
X0069557Y0135100D02*
X0065600Y0135100D01*
X0065417Y0134502D02*
X0069701Y0134502D01*
X0069940Y0133903D02*
X0065169Y0133903D01*
X0064886Y0133305D02*
X0070298Y0133305D01*
X0070813Y0132706D02*
X0064287Y0132706D01*
X0063623Y0132108D02*
X0071575Y0132108D01*
X0073500Y0132108D02*
X0074100Y0132108D01*
X0074100Y0132706D02*
X0073500Y0132706D01*
X0073500Y0133305D02*
X0074100Y0133305D01*
X0074100Y0133903D02*
X0073500Y0133903D01*
X0073500Y0134502D02*
X0074100Y0134502D01*
X0074100Y0135100D02*
X0073500Y0135100D01*
X0073500Y0135699D02*
X0074100Y0135699D01*
X0074100Y0136297D02*
X0073500Y0136297D01*
X0073500Y0136896D02*
X0074100Y0136896D01*
X0074100Y0137494D02*
X0073500Y0137494D01*
X0069500Y0139290D02*
X0065600Y0139290D01*
X0065600Y0139888D02*
X0069500Y0139888D01*
X0069500Y0140487D02*
X0065600Y0140487D01*
X0065600Y0141085D02*
X0069500Y0141085D01*
X0069500Y0141684D02*
X0065600Y0141684D01*
X0065600Y0142282D02*
X0069523Y0142282D01*
X0069630Y0142881D02*
X0065709Y0142881D01*
X0066308Y0143479D02*
X0069830Y0143479D01*
X0070140Y0144078D02*
X0066906Y0144078D01*
X0063911Y0145874D02*
X0062702Y0145874D01*
X0059898Y0145874D02*
X0052678Y0145874D01*
X0051600Y0145874D02*
X0051000Y0145874D01*
X0051000Y0145275D02*
X0051600Y0145275D01*
X0051600Y0144677D02*
X0051000Y0144677D01*
X0051000Y0144078D02*
X0051600Y0144078D01*
X0051600Y0143479D02*
X0051000Y0143479D01*
X0051000Y0142881D02*
X0051600Y0142881D01*
X0051600Y0142282D02*
X0051000Y0142282D01*
X0051000Y0141684D02*
X0051600Y0141684D01*
X0051600Y0141085D02*
X0051000Y0141085D01*
X0051000Y0140487D02*
X0051600Y0140487D01*
X0051600Y0139888D02*
X0051000Y0139888D01*
X0051000Y0139290D02*
X0051600Y0139290D01*
X0051600Y0137494D02*
X0051000Y0137494D01*
X0051000Y0136896D02*
X0051600Y0136896D01*
X0051600Y0136297D02*
X0051000Y0136297D01*
X0051000Y0135699D02*
X0051600Y0135699D01*
X0051600Y0135100D02*
X0051000Y0135100D01*
X0051000Y0134502D02*
X0051600Y0134502D01*
X0051600Y0133903D02*
X0051000Y0133903D01*
X0051000Y0133305D02*
X0051600Y0133305D01*
X0051600Y0132706D02*
X0051000Y0132706D01*
X0051000Y0132108D02*
X0051600Y0132108D01*
X0051600Y0131509D02*
X0051000Y0131509D01*
X0050903Y0131509D02*
X0043731Y0131509D01*
X0044077Y0132108D02*
X0049075Y0132108D01*
X0048313Y0132706D02*
X0044422Y0132706D01*
X0044768Y0133305D02*
X0047798Y0133305D01*
X0047440Y0133903D02*
X0045113Y0133903D01*
X0045341Y0134502D02*
X0047201Y0134502D01*
X0047057Y0135100D02*
X0045501Y0135100D01*
X0045661Y0135699D02*
X0047000Y0135699D01*
X0047000Y0136297D02*
X0045822Y0136297D01*
X0045982Y0136896D02*
X0047000Y0136896D01*
X0047000Y0137494D02*
X0046065Y0137494D01*
X0046065Y0138093D02*
X0047000Y0138093D01*
X0043198Y0130911D02*
X0094606Y0130911D01*
X0094606Y0131509D02*
X0084678Y0131509D01*
X0086123Y0132108D02*
X0094606Y0132108D01*
X0093075Y0132706D02*
X0086787Y0132706D01*
X0087386Y0133305D02*
X0092835Y0133305D01*
X0092835Y0133903D02*
X0087669Y0133903D01*
X0087917Y0134502D02*
X0092835Y0134502D01*
X0092835Y0135100D02*
X0088100Y0135100D01*
X0088100Y0135699D02*
X0092835Y0135699D01*
X0092835Y0136297D02*
X0088100Y0136297D01*
X0088100Y0136896D02*
X0092835Y0136896D01*
X0094606Y0130312D02*
X0042600Y0130312D01*
X0042001Y0129714D02*
X0094606Y0129714D01*
X0094606Y0129115D02*
X0041403Y0129115D01*
X0040380Y0128517D02*
X0094606Y0128517D01*
X0094787Y0127918D02*
X0039343Y0127918D01*
X0037947Y0127320D02*
X0095385Y0127320D01*
X0095984Y0126721D02*
X0035713Y0126721D01*
X0021600Y0124327D02*
X0098378Y0124327D01*
X0098609Y0123729D02*
X0021600Y0123729D01*
X0021600Y0123130D02*
X0098665Y0123130D01*
X0098913Y0122532D02*
X0021600Y0122532D01*
X0021600Y0121933D02*
X0099362Y0121933D01*
X0100221Y0121335D02*
X0021600Y0121335D01*
X0021600Y0119539D02*
X0124644Y0119539D01*
X0124045Y0118941D02*
X0021600Y0118941D01*
X0021600Y0118342D02*
X0123447Y0118342D01*
X0122848Y0117743D02*
X0021600Y0117743D01*
X0021600Y0117145D02*
X0122250Y0117145D01*
X0121651Y0116546D02*
X0021600Y0116546D01*
X0021600Y0115948D02*
X0121053Y0115948D01*
X0122555Y0120736D02*
X0123155Y0120736D01*
X0123155Y0121335D02*
X0122555Y0121335D01*
X0122555Y0121933D02*
X0123155Y0121933D01*
X0123155Y0122532D02*
X0122555Y0122532D01*
X0122555Y0123130D02*
X0123155Y0123130D01*
X0123155Y0124926D02*
X0122555Y0124926D01*
X0122555Y0125524D02*
X0123155Y0125524D01*
X0123155Y0126123D02*
X0122555Y0126123D01*
X0122555Y0126721D02*
X0123155Y0126721D01*
X0119746Y0126721D02*
X0107191Y0126721D01*
X0106592Y0126123D02*
X0119495Y0126123D01*
X0119488Y0125524D02*
X0105994Y0125524D01*
X0105395Y0124926D02*
X0119488Y0124926D01*
X0126222Y0123130D02*
X0126378Y0123130D01*
X0126378Y0122532D02*
X0126222Y0122532D01*
X0126222Y0121933D02*
X0126378Y0121933D01*
X0130813Y0132706D02*
X0112025Y0132706D01*
X0097872Y0145874D02*
X0132398Y0145874D01*
X0135202Y0145874D02*
X0142398Y0145874D01*
X0141194Y0145275D02*
X0136406Y0145275D01*
X0137005Y0144677D02*
X0140595Y0144677D01*
X0140089Y0144078D02*
X0137511Y0144078D01*
X0137759Y0143479D02*
X0139841Y0143479D01*
X0139593Y0142881D02*
X0138007Y0142881D01*
X0138100Y0142282D02*
X0139500Y0142282D01*
X0139500Y0141684D02*
X0138100Y0141684D01*
X0138100Y0141085D02*
X0139500Y0141085D01*
X0139500Y0140487D02*
X0138100Y0140487D01*
X0138100Y0139888D02*
X0139500Y0139888D01*
X0139500Y0139290D02*
X0138100Y0139290D01*
X0138100Y0138691D02*
X0139500Y0138691D01*
X0139500Y0138093D02*
X0138100Y0138093D01*
X0138100Y0137494D02*
X0139500Y0137494D01*
X0139500Y0136896D02*
X0138100Y0136896D01*
X0138100Y0136297D02*
X0139500Y0136297D01*
X0139500Y0135699D02*
X0138100Y0135699D01*
X0138100Y0135100D02*
X0139500Y0135100D01*
X0139683Y0134502D02*
X0137917Y0134502D01*
X0137669Y0133903D02*
X0139931Y0133903D01*
X0140214Y0133305D02*
X0137386Y0133305D01*
X0136787Y0132706D02*
X0140813Y0132706D01*
X0156222Y0123130D02*
X0156378Y0123130D01*
X0159445Y0123130D02*
X0160045Y0123130D01*
X0160045Y0122532D02*
X0159445Y0122532D01*
X0159445Y0121933D02*
X0160045Y0121933D01*
X0160045Y0121335D02*
X0159445Y0121335D01*
X0159445Y0120736D02*
X0160045Y0120736D01*
X0158827Y0120138D02*
X0181850Y0120138D01*
X0181850Y0120736D02*
X0162712Y0120736D01*
X0163067Y0121335D02*
X0181850Y0121335D01*
X0181850Y0121933D02*
X0163112Y0121933D01*
X0163112Y0122532D02*
X0181850Y0122532D01*
X0186000Y0118342D02*
X0186600Y0118342D01*
X0186600Y0117743D02*
X0186000Y0117743D01*
X0186000Y0117145D02*
X0186600Y0117145D01*
X0186600Y0116546D02*
X0186000Y0116546D01*
X0186000Y0115948D02*
X0186600Y0115948D01*
X0186600Y0115349D02*
X0186000Y0115349D01*
X0186000Y0114751D02*
X0186600Y0114751D01*
X0189387Y0112357D02*
X0176600Y0112357D01*
X0176600Y0112955D02*
X0176000Y0112955D01*
X0176000Y0113554D02*
X0176600Y0113554D01*
X0176600Y0114152D02*
X0176000Y0114152D01*
X0176000Y0114751D02*
X0176600Y0114751D01*
X0176600Y0115349D02*
X0176000Y0115349D01*
X0179227Y0115349D02*
X0181850Y0115349D01*
X0182078Y0114751D02*
X0179654Y0114751D01*
X0172886Y0109963D02*
X0172330Y0109963D01*
X0172600Y0109364D02*
X0173149Y0109364D01*
X0159095Y0112955D02*
X0159095Y0112955D01*
X0159095Y0113554D02*
X0159095Y0113554D01*
X0159095Y0114152D02*
X0159095Y0114152D01*
X0159095Y0114751D02*
X0159095Y0114751D01*
X0159095Y0115349D02*
X0159095Y0115349D01*
X0159095Y0115948D02*
X0159095Y0115948D01*
X0159095Y0116546D02*
X0159095Y0116546D01*
X0159095Y0117145D02*
X0159095Y0117145D01*
X0159095Y0117743D02*
X0159095Y0117743D01*
X0159095Y0118342D02*
X0159095Y0118342D01*
X0159095Y0118941D02*
X0159095Y0118941D01*
X0159095Y0119539D02*
X0159095Y0119539D01*
X0159445Y0124926D02*
X0160045Y0124926D01*
X0160045Y0125524D02*
X0159445Y0125524D01*
X0159445Y0126123D02*
X0160045Y0126123D01*
X0160045Y0126721D02*
X0159445Y0126721D01*
X0143854Y0105175D02*
X0143746Y0105175D01*
X0143381Y0104576D02*
X0144219Y0104576D01*
X0144876Y0103978D02*
X0142724Y0103978D01*
X0110454Y0115349D02*
X0064853Y0115349D01*
X0064838Y0115364D02*
X0057762Y0115364D01*
X0057000Y0114602D01*
X0057000Y0107525D01*
X0057762Y0106764D01*
X0064838Y0106764D01*
X0065600Y0107525D01*
X0065600Y0114602D01*
X0064838Y0115364D01*
X0065451Y0114751D02*
X0109856Y0114751D01*
X0109257Y0114152D02*
X0065600Y0114152D01*
X0065600Y0113554D02*
X0108659Y0113554D01*
X0108060Y0112955D02*
X0065600Y0112955D01*
X0065600Y0112357D02*
X0107462Y0112357D01*
X0106863Y0111758D02*
X0065600Y0111758D01*
X0065600Y0111160D02*
X0106265Y0111160D01*
X0105666Y0110561D02*
X0065600Y0110561D01*
X0065600Y0109963D02*
X0105068Y0109963D01*
X0104469Y0109364D02*
X0065600Y0109364D01*
X0065600Y0108766D02*
X0103871Y0108766D01*
X0103272Y0108167D02*
X0065600Y0108167D01*
X0065600Y0107569D02*
X0102674Y0107569D01*
X0100594Y0106970D02*
X0099387Y0106970D01*
X0097004Y0106970D02*
X0096404Y0106970D01*
X0096404Y0106372D02*
X0097004Y0106372D01*
X0097004Y0105773D02*
X0096404Y0105773D01*
X0096404Y0105175D02*
X0097004Y0105175D01*
X0097004Y0104576D02*
X0096404Y0104576D01*
X0096403Y0103978D02*
X0064612Y0103978D01*
X0064580Y0104023D02*
X0064978Y0103475D01*
X0065285Y0102872D01*
X0065494Y0102228D01*
X0065600Y0101560D01*
X0065600Y0101521D01*
X0061600Y0101521D01*
X0061600Y0100921D01*
X0061600Y0096921D01*
X0061638Y0096921D01*
X0062307Y0097027D01*
X0062951Y0097236D01*
X0063554Y0097544D01*
X0064101Y0097941D01*
X0064580Y0098420D01*
X0064978Y0098968D01*
X0065285Y0099571D01*
X0065494Y0100214D01*
X0065600Y0100883D01*
X0065600Y0100921D01*
X0061600Y0100921D01*
X0061000Y0100921D01*
X0061000Y0096921D01*
X0060962Y0096921D01*
X0060293Y0097027D01*
X0059649Y0097236D01*
X0059046Y0097544D01*
X0058499Y0097941D01*
X0058020Y0098420D01*
X0057622Y0098968D01*
X0057315Y0099571D01*
X0057106Y0100214D01*
X0057000Y0100883D01*
X0057000Y0100921D01*
X0061000Y0100921D01*
X0061000Y0101521D01*
X0057000Y0101521D01*
X0057000Y0101560D01*
X0057106Y0102228D01*
X0057315Y0102872D01*
X0057622Y0103475D01*
X0058020Y0104023D01*
X0058499Y0104501D01*
X0059046Y0104899D01*
X0059649Y0105206D01*
X0060293Y0105415D01*
X0060962Y0105521D01*
X0061000Y0105521D01*
X0061000Y0101521D01*
X0061600Y0101521D01*
X0061600Y0105521D01*
X0061638Y0105521D01*
X0062307Y0105415D01*
X0062951Y0105206D01*
X0063554Y0104899D01*
X0064101Y0104501D01*
X0064580Y0104023D01*
X0065026Y0103379D02*
X0093238Y0103379D01*
X0093238Y0102781D02*
X0089715Y0102781D01*
X0090313Y0102182D02*
X0093238Y0102182D01*
X0093259Y0101584D02*
X0090912Y0101584D01*
X0091510Y0100985D02*
X0093546Y0100985D01*
X0092707Y0099788D02*
X0099893Y0099788D01*
X0099606Y0099190D02*
X0092994Y0099190D01*
X0092994Y0098591D02*
X0099606Y0098591D01*
X0099606Y0097993D02*
X0092994Y0097993D01*
X0092994Y0097394D02*
X0099606Y0097394D01*
X0099606Y0096796D02*
X0092994Y0096796D01*
X0092994Y0096197D02*
X0099606Y0096197D01*
X0099606Y0095599D02*
X0092994Y0095599D01*
X0092994Y0095000D02*
X0099606Y0095000D01*
X0099606Y0094402D02*
X0092994Y0094402D01*
X0089606Y0093803D02*
X0064950Y0093803D01*
X0064945Y0093814D02*
X0063736Y0095024D01*
X0062155Y0095679D01*
X0060445Y0095679D01*
X0058864Y0095024D01*
X0057655Y0093814D01*
X0057000Y0092234D01*
X0057000Y0090523D01*
X0057655Y0088943D01*
X0058864Y0087733D01*
X0060445Y0087079D01*
X0062155Y0087079D01*
X0063736Y0087733D01*
X0064945Y0088943D01*
X0065600Y0090523D01*
X0065600Y0092234D01*
X0064945Y0093814D01*
X0065198Y0093205D02*
X0081799Y0093205D01*
X0081793Y0094402D02*
X0064358Y0094402D01*
X0063760Y0095000D02*
X0081614Y0095000D01*
X0081614Y0095599D02*
X0062349Y0095599D01*
X0061600Y0097394D02*
X0061000Y0097394D01*
X0061000Y0097993D02*
X0061600Y0097993D01*
X0061600Y0098591D02*
X0061000Y0098591D01*
X0061000Y0099190D02*
X0061600Y0099190D01*
X0061600Y0099788D02*
X0061000Y0099788D01*
X0061000Y0100387D02*
X0061600Y0100387D01*
X0061600Y0100985D02*
X0074680Y0100985D01*
X0074082Y0100387D02*
X0065521Y0100387D01*
X0065356Y0099788D02*
X0073797Y0099788D01*
X0073609Y0099190D02*
X0065091Y0099190D01*
X0064704Y0098591D02*
X0073609Y0098591D01*
X0073722Y0097993D02*
X0064152Y0097993D01*
X0063260Y0097394D02*
X0073970Y0097394D01*
X0074499Y0096796D02*
X0021600Y0096796D01*
X0021600Y0097394D02*
X0034340Y0097394D01*
X0034046Y0097544D02*
X0034649Y0097236D01*
X0035293Y0097027D01*
X0035962Y0096921D01*
X0036000Y0096921D01*
X0036000Y0100921D01*
X0036600Y0100921D01*
X0036600Y0096921D01*
X0036638Y0096921D01*
X0037307Y0097027D01*
X0037951Y0097236D01*
X0038554Y0097544D01*
X0039101Y0097941D01*
X0039580Y0098420D01*
X0039978Y0098968D01*
X0040285Y0099571D01*
X0040494Y0100214D01*
X0040600Y0100883D01*
X0040600Y0100921D01*
X0036600Y0100921D01*
X0036600Y0101521D01*
X0040600Y0101521D01*
X0040600Y0101560D01*
X0040494Y0102228D01*
X0040285Y0102872D01*
X0039978Y0103475D01*
X0039580Y0104023D01*
X0039101Y0104501D01*
X0038554Y0104899D01*
X0037951Y0105206D01*
X0037307Y0105415D01*
X0036638Y0105521D01*
X0036600Y0105521D01*
X0036600Y0101521D01*
X0036000Y0101521D01*
X0036000Y0100921D01*
X0032000Y0100921D01*
X0032000Y0100883D01*
X0032106Y0100214D01*
X0032315Y0099571D01*
X0032622Y0098968D01*
X0033020Y0098420D01*
X0033499Y0097941D01*
X0034046Y0097544D01*
X0033448Y0097993D02*
X0021600Y0097993D01*
X0021600Y0098591D02*
X0032896Y0098591D01*
X0032509Y0099190D02*
X0021600Y0099190D01*
X0021600Y0099788D02*
X0032244Y0099788D01*
X0032079Y0100387D02*
X0021600Y0100387D01*
X0021600Y0100985D02*
X0036000Y0100985D01*
X0036000Y0101521D02*
X0032000Y0101521D01*
X0032000Y0101560D01*
X0032106Y0102228D01*
X0032315Y0102872D01*
X0032622Y0103475D01*
X0033020Y0104023D01*
X0033499Y0104501D01*
X0034046Y0104899D01*
X0034649Y0105206D01*
X0035293Y0105415D01*
X0035962Y0105521D01*
X0036000Y0105521D01*
X0036000Y0101521D01*
X0036000Y0101584D02*
X0036600Y0101584D01*
X0036600Y0102182D02*
X0036000Y0102182D01*
X0036000Y0102781D02*
X0036600Y0102781D01*
X0036600Y0103379D02*
X0036000Y0103379D01*
X0036000Y0103978D02*
X0036600Y0103978D01*
X0036600Y0104576D02*
X0036000Y0104576D01*
X0036000Y0105175D02*
X0036600Y0105175D01*
X0038012Y0105175D02*
X0059588Y0105175D01*
X0058602Y0104576D02*
X0038998Y0104576D01*
X0039612Y0103978D02*
X0057988Y0103978D01*
X0057574Y0103379D02*
X0040026Y0103379D01*
X0040315Y0102781D02*
X0057285Y0102781D01*
X0057099Y0102182D02*
X0040501Y0102182D01*
X0040596Y0101584D02*
X0057004Y0101584D01*
X0057079Y0100387D02*
X0040521Y0100387D01*
X0040356Y0099788D02*
X0057244Y0099788D01*
X0057509Y0099190D02*
X0040091Y0099190D01*
X0039704Y0098591D02*
X0057896Y0098591D01*
X0058448Y0097993D02*
X0039152Y0097993D01*
X0038260Y0097394D02*
X0059340Y0097394D01*
X0060251Y0095599D02*
X0037349Y0095599D01*
X0037155Y0095679D02*
X0035445Y0095679D01*
X0033864Y0095024D01*
X0032655Y0093814D01*
X0032000Y0092234D01*
X0032000Y0090523D01*
X0032655Y0088943D01*
X0033864Y0087733D01*
X0035445Y0087079D01*
X0037155Y0087079D01*
X0038736Y0087733D01*
X0039945Y0088943D01*
X0040600Y0090523D01*
X0040600Y0092234D01*
X0039945Y0093814D01*
X0038736Y0095024D01*
X0037155Y0095679D01*
X0038760Y0095000D02*
X0058840Y0095000D01*
X0058242Y0094402D02*
X0039358Y0094402D01*
X0039950Y0093803D02*
X0057650Y0093803D01*
X0057402Y0093205D02*
X0040198Y0093205D01*
X0040446Y0092606D02*
X0057154Y0092606D01*
X0057000Y0092008D02*
X0040600Y0092008D01*
X0040600Y0091409D02*
X0057000Y0091409D01*
X0057000Y0090810D02*
X0040600Y0090810D01*
X0040471Y0090212D02*
X0057129Y0090212D01*
X0057377Y0089613D02*
X0040223Y0089613D01*
X0039975Y0089015D02*
X0057625Y0089015D01*
X0058181Y0088416D02*
X0039419Y0088416D01*
X0038820Y0087818D02*
X0058780Y0087818D01*
X0060105Y0087219D02*
X0037495Y0087219D01*
X0038151Y0085424D02*
X0059449Y0085424D01*
X0058508Y0084825D02*
X0039092Y0084825D01*
X0039690Y0084227D02*
X0057910Y0084227D01*
X0057512Y0083628D02*
X0040088Y0083628D01*
X0040336Y0083030D02*
X0057264Y0083030D01*
X0057016Y0082431D02*
X0040584Y0082431D01*
X0040600Y0081833D02*
X0057000Y0081833D01*
X0057000Y0081234D02*
X0040600Y0081234D01*
X0040581Y0080636D02*
X0057019Y0080636D01*
X0057267Y0080037D02*
X0040333Y0080037D01*
X0040085Y0079439D02*
X0057514Y0079439D01*
X0057915Y0078840D02*
X0039685Y0078840D01*
X0039087Y0078242D02*
X0058513Y0078242D01*
X0059462Y0077643D02*
X0038138Y0077643D01*
X0035105Y0087219D02*
X0021600Y0087219D01*
X0021600Y0086621D02*
X0074674Y0086621D01*
X0074076Y0087219D02*
X0062495Y0087219D01*
X0063820Y0087818D02*
X0073795Y0087818D01*
X0073609Y0088416D02*
X0064419Y0088416D01*
X0064975Y0089015D02*
X0073609Y0089015D01*
X0073725Y0089613D02*
X0065223Y0089613D01*
X0065471Y0090212D02*
X0073973Y0090212D01*
X0074505Y0090810D02*
X0065600Y0090810D01*
X0065600Y0091409D02*
X0075568Y0091409D01*
X0077112Y0092008D02*
X0065600Y0092008D01*
X0065446Y0092606D02*
X0077711Y0092606D01*
X0078991Y0089015D02*
X0082180Y0089015D01*
X0082011Y0088416D02*
X0078991Y0088416D01*
X0078805Y0087818D02*
X0081614Y0087818D01*
X0081614Y0087219D02*
X0078524Y0087219D01*
X0077926Y0086621D02*
X0081614Y0086621D01*
X0081614Y0084825D02*
X0079593Y0084825D01*
X0079765Y0084227D02*
X0081968Y0084227D01*
X0082223Y0083628D02*
X0079765Y0083628D01*
X0079765Y0083030D02*
X0081624Y0083030D01*
X0081614Y0096197D02*
X0077047Y0096197D01*
X0078101Y0096796D02*
X0081614Y0096796D01*
X0081614Y0097394D02*
X0078630Y0097394D01*
X0078878Y0097993D02*
X0081614Y0097993D01*
X0082186Y0098591D02*
X0078991Y0098591D01*
X0079085Y0099190D02*
X0088515Y0099190D01*
X0092109Y0100387D02*
X0100491Y0100387D01*
X0100598Y0100494D02*
X0100598Y0100494D01*
X0100239Y0100985D02*
X0099861Y0100985D01*
X0097004Y0100985D02*
X0096404Y0100985D01*
X0096404Y0101584D02*
X0097004Y0101584D01*
X0097004Y0102182D02*
X0096404Y0102182D01*
X0096404Y0102781D02*
X0097004Y0102781D01*
X0097004Y0103379D02*
X0096404Y0103379D01*
X0093238Y0104576D02*
X0063998Y0104576D01*
X0063012Y0105175D02*
X0093238Y0105175D01*
X0093238Y0105773D02*
X0021600Y0105773D01*
X0021600Y0105175D02*
X0034588Y0105175D01*
X0033602Y0104576D02*
X0021600Y0104576D01*
X0021600Y0103978D02*
X0032988Y0103978D01*
X0032574Y0103379D02*
X0021600Y0103379D01*
X0021600Y0102781D02*
X0032285Y0102781D01*
X0032099Y0102182D02*
X0021600Y0102182D01*
X0021600Y0101584D02*
X0032004Y0101584D01*
X0036000Y0100387D02*
X0036600Y0100387D01*
X0036600Y0100985D02*
X0061000Y0100985D01*
X0061000Y0101584D02*
X0061600Y0101584D01*
X0061600Y0102182D02*
X0061000Y0102182D01*
X0061000Y0102781D02*
X0061600Y0102781D01*
X0061600Y0103379D02*
X0061000Y0103379D01*
X0061000Y0103978D02*
X0061600Y0103978D01*
X0061600Y0104576D02*
X0061000Y0104576D01*
X0061000Y0105175D02*
X0061600Y0105175D01*
X0065045Y0106970D02*
X0094020Y0106970D01*
X0093385Y0106372D02*
X0021600Y0106372D01*
X0021600Y0106970D02*
X0032555Y0106970D01*
X0032762Y0106764D02*
X0039838Y0106764D01*
X0040600Y0107525D01*
X0040600Y0114602D01*
X0039838Y0115364D01*
X0032762Y0115364D01*
X0032000Y0114602D01*
X0032000Y0107525D01*
X0032762Y0106764D01*
X0032000Y0107569D02*
X0021600Y0107569D01*
X0021600Y0108167D02*
X0032000Y0108167D01*
X0032000Y0108766D02*
X0021600Y0108766D01*
X0021600Y0109364D02*
X0032000Y0109364D01*
X0032000Y0109963D02*
X0021600Y0109963D01*
X0021600Y0110561D02*
X0032000Y0110561D01*
X0032000Y0111160D02*
X0021600Y0111160D01*
X0021600Y0111758D02*
X0032000Y0111758D01*
X0032000Y0112357D02*
X0021600Y0112357D01*
X0021600Y0112955D02*
X0032000Y0112955D01*
X0032000Y0113554D02*
X0021600Y0113554D01*
X0021600Y0114152D02*
X0032000Y0114152D01*
X0032149Y0114751D02*
X0021600Y0114751D01*
X0021600Y0115349D02*
X0032747Y0115349D01*
X0039853Y0115349D02*
X0057747Y0115349D01*
X0057149Y0114751D02*
X0040451Y0114751D01*
X0040600Y0114152D02*
X0057000Y0114152D01*
X0057000Y0113554D02*
X0040600Y0113554D01*
X0040600Y0112955D02*
X0057000Y0112955D01*
X0057000Y0112357D02*
X0040600Y0112357D01*
X0040600Y0111758D02*
X0057000Y0111758D01*
X0057000Y0111160D02*
X0040600Y0111160D01*
X0040600Y0110561D02*
X0057000Y0110561D01*
X0057000Y0109963D02*
X0040600Y0109963D01*
X0040600Y0109364D02*
X0057000Y0109364D01*
X0057000Y0108766D02*
X0040600Y0108766D01*
X0040600Y0108167D02*
X0057000Y0108167D01*
X0057000Y0107569D02*
X0040600Y0107569D01*
X0040045Y0106970D02*
X0057555Y0106970D01*
X0065315Y0102781D02*
X0077885Y0102781D01*
X0077287Y0102182D02*
X0065501Y0102182D01*
X0065596Y0101584D02*
X0076688Y0101584D01*
X0075553Y0096197D02*
X0021600Y0096197D01*
X0021600Y0095599D02*
X0035251Y0095599D01*
X0033840Y0095000D02*
X0021600Y0095000D01*
X0021600Y0094402D02*
X0033242Y0094402D01*
X0032650Y0093803D02*
X0021600Y0093803D01*
X0021600Y0093205D02*
X0032402Y0093205D01*
X0032154Y0092606D02*
X0021600Y0092606D01*
X0021600Y0092008D02*
X0032000Y0092008D01*
X0032000Y0091409D02*
X0021600Y0091409D01*
X0021600Y0090810D02*
X0032000Y0090810D01*
X0032129Y0090212D02*
X0021600Y0090212D01*
X0021600Y0089613D02*
X0032377Y0089613D01*
X0032625Y0089015D02*
X0021600Y0089015D01*
X0021600Y0088416D02*
X0033181Y0088416D01*
X0033780Y0087818D02*
X0021600Y0087818D01*
X0036000Y0097394D02*
X0036600Y0097394D01*
X0036600Y0097993D02*
X0036000Y0097993D01*
X0036000Y0098591D02*
X0036600Y0098591D01*
X0036600Y0099190D02*
X0036000Y0099190D01*
X0036000Y0099788D02*
X0036600Y0099788D01*
X0083879Y0061483D02*
X0091588Y0061483D01*
X0090990Y0060885D02*
X0083280Y0060885D01*
X0082682Y0060286D02*
X0090391Y0060286D01*
X0089793Y0059688D02*
X0082083Y0059688D01*
X0081485Y0059089D02*
X0089194Y0059089D01*
X0088596Y0058491D02*
X0080886Y0058491D01*
X0080288Y0057892D02*
X0087997Y0057892D01*
X0087399Y0057294D02*
X0079689Y0057294D01*
X0079091Y0056695D02*
X0086800Y0056695D01*
X0086202Y0056097D02*
X0078492Y0056097D01*
X0078328Y0055498D02*
X0085603Y0055498D01*
X0085005Y0054900D02*
X0078328Y0054900D01*
X0078328Y0054301D02*
X0084941Y0054301D01*
X0084941Y0053703D02*
X0078328Y0053703D01*
X0078328Y0053104D02*
X0084941Y0053104D01*
X0084941Y0052506D02*
X0078328Y0052506D01*
X0078328Y0051907D02*
X0084941Y0051907D01*
X0084941Y0051309D02*
X0078328Y0051309D01*
X0078328Y0050710D02*
X0084941Y0050710D01*
X0084941Y0050112D02*
X0078328Y0050112D01*
X0078328Y0049513D02*
X0084941Y0049513D01*
X0084941Y0048915D02*
X0078328Y0048915D01*
X0078328Y0048316D02*
X0084941Y0048316D01*
X0084941Y0047718D02*
X0078328Y0047718D01*
X0078879Y0047119D02*
X0084390Y0047119D01*
X0083680Y0046521D02*
X0079590Y0046521D01*
X0080188Y0045922D02*
X0083081Y0045922D01*
X0082779Y0045324D02*
X0080490Y0045324D01*
X0080738Y0044725D02*
X0082532Y0044725D01*
X0082335Y0044127D02*
X0080935Y0044127D01*
X0080935Y0043528D02*
X0082335Y0043528D01*
X0082335Y0042930D02*
X0080935Y0042930D01*
X0080935Y0042331D02*
X0082335Y0042331D01*
X0082335Y0041733D02*
X0080935Y0041733D01*
X0080935Y0041134D02*
X0082335Y0041134D01*
X0082335Y0040536D02*
X0080935Y0040536D01*
X0080935Y0039937D02*
X0082335Y0039937D01*
X0082335Y0039339D02*
X0080935Y0039339D01*
X0080935Y0038740D02*
X0082335Y0038740D01*
X0082335Y0038141D02*
X0080935Y0038141D01*
X0080935Y0037543D02*
X0082335Y0037543D01*
X0082335Y0036944D02*
X0080935Y0036944D01*
X0080855Y0036346D02*
X0082415Y0036346D01*
X0082663Y0035747D02*
X0080607Y0035747D01*
X0080359Y0035149D02*
X0082910Y0035149D01*
X0083398Y0034550D02*
X0079872Y0034550D01*
X0079273Y0033952D02*
X0083996Y0033952D01*
X0085154Y0033353D02*
X0078115Y0033353D01*
X0088328Y0051309D02*
X0103282Y0051309D01*
X0102157Y0051907D02*
X0088328Y0051907D01*
X0088328Y0052506D02*
X0101559Y0052506D01*
X0100960Y0053104D02*
X0088328Y0053104D01*
X0088598Y0053703D02*
X0100362Y0053703D01*
X0099494Y0054301D02*
X0089197Y0054301D01*
X0089795Y0054900D02*
X0098968Y0054900D01*
X0098720Y0055498D02*
X0090394Y0055498D01*
X0090992Y0056097D02*
X0098609Y0056097D01*
X0098609Y0056695D02*
X0091591Y0056695D01*
X0092189Y0057294D02*
X0098799Y0057294D01*
X0099087Y0057892D02*
X0092788Y0057892D01*
X0084477Y0062082D02*
X0111713Y0062082D01*
X0111351Y0062680D02*
X0107576Y0062680D01*
X0115887Y0062082D02*
X0129687Y0062082D01*
X0129843Y0062680D02*
X0116248Y0062680D01*
X0116491Y0063279D02*
X0129843Y0063279D01*
X0129843Y0063877D02*
X0116845Y0063877D01*
X0116845Y0064476D02*
X0129843Y0064476D01*
X0129843Y0065074D02*
X0116845Y0065074D01*
X0116845Y0065673D02*
X0129843Y0065673D01*
X0129843Y0066272D02*
X0116845Y0066272D01*
X0116845Y0066870D02*
X0129843Y0066870D01*
X0148300Y0056695D02*
X0151496Y0056695D01*
X0151496Y0056097D02*
X0148898Y0056097D01*
X0149497Y0055498D02*
X0151496Y0055498D01*
X0151496Y0054900D02*
X0150095Y0054900D01*
X0150494Y0054301D02*
X0151496Y0054301D01*
X0151496Y0053703D02*
X0150494Y0053703D01*
X0150494Y0053104D02*
X0151496Y0053104D01*
X0151496Y0052506D02*
X0150494Y0052506D01*
X0150494Y0051907D02*
X0151496Y0051907D01*
X0151496Y0051309D02*
X0150494Y0051309D01*
X0150494Y0050710D02*
X0151496Y0050710D01*
X0151496Y0050112D02*
X0150494Y0050112D01*
X0150494Y0049513D02*
X0151496Y0049513D01*
X0151496Y0048915D02*
X0150494Y0048915D01*
X0150494Y0048316D02*
X0151496Y0048316D01*
X0151496Y0047718D02*
X0150494Y0047718D01*
X0150494Y0047119D02*
X0151496Y0047119D01*
X0151496Y0046521D02*
X0150494Y0046521D01*
X0150494Y0045922D02*
X0151496Y0045922D01*
X0151496Y0045324D02*
X0150494Y0045324D01*
X0150494Y0044725D02*
X0151730Y0044725D01*
X0152328Y0044127D02*
X0150494Y0044127D01*
X0150494Y0043528D02*
X0152927Y0043528D01*
X0153525Y0042930D02*
X0150494Y0042930D01*
X0150494Y0042331D02*
X0154124Y0042331D01*
X0154722Y0041733D02*
X0150494Y0041733D01*
X0150494Y0041134D02*
X0155321Y0041134D01*
X0155919Y0040536D02*
X0150494Y0040536D01*
X0151982Y0039937D02*
X0156518Y0039937D01*
X0157717Y0043528D02*
X0184883Y0043528D01*
X0185481Y0044127D02*
X0157119Y0044127D01*
X0156520Y0044725D02*
X0186080Y0044725D01*
X0186678Y0045324D02*
X0155922Y0045324D01*
X0155323Y0045922D02*
X0187277Y0045922D01*
X0187875Y0046521D02*
X0154883Y0046521D01*
X0154883Y0047119D02*
X0188474Y0047119D01*
X0189072Y0047718D02*
X0187023Y0047718D01*
X0187265Y0048316D02*
X0189000Y0048316D01*
X0189000Y0048915D02*
X0187265Y0048915D01*
X0187265Y0049513D02*
X0189000Y0049513D01*
X0189189Y0050112D02*
X0187265Y0050112D01*
X0184100Y0049513D02*
X0183500Y0049513D01*
X0183500Y0048915D02*
X0184100Y0048915D01*
X0184100Y0048316D02*
X0183500Y0048316D01*
X0183500Y0047718D02*
X0184100Y0047718D01*
X0184100Y0051309D02*
X0183500Y0051309D01*
X0183500Y0051907D02*
X0184100Y0051907D01*
X0184100Y0052506D02*
X0183500Y0052506D01*
X0183500Y0053104D02*
X0184100Y0053104D01*
X0184100Y0053703D02*
X0183500Y0053703D01*
X0196000Y0054900D02*
X0196600Y0054900D01*
X0196600Y0055498D02*
X0196000Y0055498D01*
X0196000Y0056097D02*
X0196600Y0056097D01*
X0196600Y0056695D02*
X0196000Y0056695D01*
X0196000Y0057294D02*
X0196600Y0057294D01*
X0196600Y0057892D02*
X0196000Y0057892D01*
X0196000Y0058491D02*
X0196600Y0058491D01*
X0190750Y0042331D02*
X0188476Y0042331D01*
X0187878Y0041733D02*
X0190151Y0041733D01*
X0189613Y0041134D02*
X0187279Y0041134D01*
X0186681Y0040536D02*
X0189365Y0040536D01*
X0189117Y0039937D02*
X0186082Y0039937D01*
X0189000Y0039339D02*
X0152265Y0039339D01*
X0152265Y0038740D02*
X0189000Y0038740D01*
X0189000Y0038141D02*
X0152265Y0038141D01*
X0152265Y0037543D02*
X0189166Y0037543D01*
X0189414Y0036944D02*
X0152265Y0036944D01*
X0152265Y0036346D02*
X0189673Y0036346D01*
X0190271Y0035747D02*
X0152265Y0035747D01*
X0152265Y0035149D02*
X0190878Y0035149D01*
X0192323Y0034550D02*
X0152176Y0034550D01*
X0151872Y0033353D02*
X0204701Y0033353D01*
X0204701Y0032755D02*
X0192862Y0032755D01*
X0195095Y0032156D02*
X0204701Y0032156D01*
X0204701Y0031558D02*
X0196543Y0031558D01*
X0197580Y0030959D02*
X0204701Y0030959D01*
X0204701Y0030361D02*
X0198616Y0030361D01*
X0199220Y0029762D02*
X0204701Y0029762D01*
X0204701Y0029164D02*
X0199818Y0029164D01*
X0200417Y0028565D02*
X0204701Y0028565D01*
X0204701Y0027967D02*
X0200961Y0027967D01*
X0201306Y0027368D02*
X0204701Y0027368D01*
X0204701Y0026770D02*
X0201652Y0026770D01*
X0201997Y0026171D02*
X0204701Y0026171D01*
X0204701Y0025573D02*
X0202343Y0025573D01*
X0202578Y0024974D02*
X0204701Y0024974D01*
X0204701Y0024376D02*
X0202738Y0024376D01*
X0202899Y0023777D02*
X0204701Y0023777D01*
X0204701Y0023179D02*
X0203059Y0023179D01*
X0203219Y0022580D02*
X0204701Y0022580D01*
X0204701Y0021982D02*
X0203309Y0021982D01*
X0203309Y0021383D02*
X0204701Y0021383D01*
X0204701Y0020785D02*
X0203309Y0020785D01*
X0203309Y0020186D02*
X0204701Y0020186D01*
X0204701Y0019588D02*
X0203309Y0019588D01*
X0203291Y0018989D02*
X0204701Y0018989D01*
X0204701Y0018391D02*
X0203131Y0018391D01*
X0202971Y0017792D02*
X0204701Y0017792D01*
X0204701Y0017194D02*
X0202810Y0017194D01*
X0202650Y0016595D02*
X0204701Y0016595D01*
X0204701Y0015997D02*
X0202489Y0015997D01*
X0202152Y0015398D02*
X0204701Y0015398D01*
X0204701Y0014800D02*
X0201807Y0014800D01*
X0201461Y0014201D02*
X0204701Y0014201D01*
X0204701Y0013603D02*
X0201116Y0013603D01*
X0200685Y0013004D02*
X0204701Y0013004D01*
X0204701Y0012405D02*
X0200087Y0012405D01*
X0199488Y0011807D02*
X0204701Y0011807D01*
X0184784Y0030959D02*
X0152265Y0030959D01*
X0152265Y0031558D02*
X0185821Y0031558D01*
X0187269Y0032156D02*
X0152265Y0032156D01*
X0152265Y0032755D02*
X0189502Y0032755D01*
X0159100Y0052506D02*
X0158500Y0052506D01*
X0158500Y0053104D02*
X0159100Y0053104D01*
X0159100Y0053703D02*
X0158500Y0053703D01*
X0158500Y0054301D02*
X0159100Y0054301D01*
X0159100Y0054900D02*
X0158500Y0054900D01*
X0158500Y0055498D02*
X0154883Y0055498D01*
X0154883Y0054900D02*
X0155374Y0054900D01*
X0155374Y0054301D02*
X0154883Y0054301D01*
X0154883Y0053703D02*
X0155374Y0053703D01*
X0155377Y0053104D02*
X0154883Y0053104D01*
X0154883Y0052506D02*
X0155625Y0052506D01*
X0155374Y0056097D02*
X0154883Y0056097D01*
X0154883Y0056695D02*
X0155374Y0056695D01*
X0155374Y0057294D02*
X0154883Y0057294D01*
X0154883Y0057892D02*
X0155454Y0057892D01*
X0151496Y0057892D02*
X0150288Y0057892D01*
X0150886Y0058491D02*
X0151496Y0058491D01*
X0151485Y0059089D02*
X0151496Y0059089D01*
X0151496Y0057294D02*
X0149689Y0057294D01*
X0111117Y0079439D02*
X0110844Y0079439D01*
X0110519Y0078840D02*
X0110246Y0078840D01*
X0108155Y0077045D02*
X0107555Y0077045D01*
X0107555Y0076446D02*
X0108155Y0076446D01*
X0108155Y0075848D02*
X0107555Y0075848D01*
X0107555Y0075249D02*
X0108155Y0075249D01*
X0108155Y0074651D02*
X0107555Y0074651D01*
X0134587Y0027698D02*
X0134587Y0020532D01*
X0133800Y0019745D01*
X0143800Y0026300D02*
X0145355Y0024745D01*
X0148800Y0024745D01*
X0057000Y0139290D02*
X0055600Y0139290D01*
X0055600Y0139888D02*
X0057000Y0139888D01*
X0057000Y0140487D02*
X0055600Y0140487D01*
X0055600Y0141085D02*
X0057000Y0141085D01*
X0057000Y0141684D02*
X0055600Y0141684D01*
X0055577Y0142282D02*
X0057000Y0142282D01*
X0057093Y0142881D02*
X0055470Y0142881D01*
X0055270Y0143479D02*
X0057341Y0143479D01*
X0057589Y0144078D02*
X0054960Y0144078D01*
X0054505Y0144677D02*
X0058095Y0144677D01*
X0058694Y0145275D02*
X0053833Y0145275D01*
D34*
X0171300Y0138800D03*
X0171300Y0121300D03*
X0121300Y0048800D03*
X0183800Y0035050D03*
X0036300Y0046300D03*
D35*
X0118800Y0030454D02*
X0120454Y0030454D01*
X0123800Y0033800D01*
X0123800Y0036300D01*
X0125237Y0037737D01*
X0127698Y0037737D01*
X0137737Y0027698D02*
X0137737Y0022363D01*
X0138800Y0021300D01*
D36*
X0131438Y0023938D02*
X0131300Y0023800D01*
X0123800Y0023800D01*
X0118800Y0028800D01*
X0118800Y0030454D01*
X0131300Y0028800D02*
X0131300Y0027835D01*
X0131438Y0027698D01*
X0131438Y0023938D01*
X0131300Y0028800D02*
X0132363Y0029863D01*
X0139902Y0029863D01*
D37*
X0143800Y0048800D02*
X0138800Y0053800D01*
X0103800Y0053800D01*
X0101300Y0056300D01*
D38*
X0151221Y0071162D02*
X0151300Y0071162D01*
X0166300Y0068800D02*
X0166300Y0073800D01*
X0173800Y0063416D02*
X0173800Y0057146D01*
D39*
X0191182Y0020650D03*
X0033938Y0020729D03*
X0033938Y0138800D03*
X0191418Y0138889D03*
M02*
